<svg xmlns="http://www.w3.org/2000/svg" class="svg-drawing" height="15340mm" version="1.1" viewBox="-299.37 -35640.606 24770.0 15640.0" width="24470mm">
    <g transform="scale(1,-1)">
        
        <path d="M6250.63,30370.606 L6250.63,30870.606 L6920.63,30870.606" style="stroke-width:var(--lw-6);" />
        
        <path d="M8420.63,30870.606 L9470.63,30870.606" style="stroke-width:var(--lw-6);" />
        
        <path d="M11000.63,29340.606 L11000.63,27170.606" style="stroke-width:var(--lw-6);" />
        
        <path d="M11000.63,26170.606 L11000.63,24000.606" style="stroke-width:var(--lw-6);" />
        
        <path d="M9470.63,22470.606 L8420.63,22470.606" style="stroke-width:var(--lw-6);" />
        
        <path d="M6920.63,22470.606 L6250.63,22470.606 L6250.63,25670.606" style="stroke-width:var(--lw-6);" />
        
        <path d="M6250.63,27170.606 L6250.63,28520.606" style="stroke-width:var(--lw-6);" />
        
        <path d="M6000.63,22470.606 L6000.63,24920.606" style="stroke-width:var(--lw-6);" />
        
        <path d="M8420.63,31340.606 L9470.63,31340.606" style="stroke-width:var(--lw-6);" />
        
        <path d="M11470.63,29340.606 L11470.63,27170.606" style="stroke-width:var(--lw-6);" />
        
        <path d="M11470.63,26170.606 L11470.63,24000.606" style="stroke-width:var(--lw-6);" />
        
        <path d="M9470.63,22000.606 L8420.63,22000.606" style="stroke-width:var(--lw-6);" />
        
        <path d="M6920.63,22000.606 L5330.63,22000.606" style="stroke-width:var(--lw-6);" />
        
        <path d="M4330.63,22000.606 L3780.63,22000.606" style="stroke-width:var(--lw-6);" />
        
        <path d="M2780.63,23500.606 L2780.63,24700.606" style="stroke-width:var(--lw-6);" />
        
        <path d="M6000.63,28520.606 L6000.63,27170.606" style="stroke-width:var(--lw-6);" />
        
        <path d="M6000.63,25670.606 L6000.63,25170.606 L5330.63,25170.606" style="stroke-width:var(--lw-6);" />
        
        <path d="M4330.63,25170.606 L2780.63,25170.606" style="stroke-width:var(--lw-6);" />
        
        <path d="M1250.63,26700.606 L1250.63,28520.606" style="stroke-width:var(--lw-6);" />
        
        <path d="M1250.63,29520.606 L1250.63,31340.606" style="stroke-width:var(--lw-6);" />
        
        <path d="M2780.63,32870.606 L3830.63,32870.606" style="stroke-width:var(--lw-6);" />
        
        <path d="M5330.63,32870.606 L6000.63,32870.606 L6000.63,30370.606" style="stroke-width:var(--lw-6);" />
        
        <path d="M6000.63,24920.606 L5330.63,24920.606" style="stroke-width:var(--lw-6);" />
        
        <path d="M4330.63,24920.606 L3250.63,24920.606" style="stroke-width:var(--lw-6);" />
        
        <path d="M780.63,29520.606 L780.63,31340.606" style="stroke-width:var(--lw-6);" />
        
        <path d="M2780.63,33340.606 L3830.63,33340.606" style="stroke-width:var(--lw-6);" />
        
        <path d="M5330.63,33340.606 L6470.63,33340.606 L6470.63,32590.606" style="stroke-width:var(--lw-6);" />
        
        <path d="M6920.63,22470.606 L6920.63,22000.606" style="stroke-width:var(--lw-6);" />
        
        <path d="M8420.63,22470.606 L8420.63,22000.606" style="stroke-width:var(--lw-6);" />
        
        <path d="M9470.63,22470.606 L9470.63,22000.606" style="stroke-width:var(--lw-6);" />
        
        <path d="M11000.63,24000.606 L11470.63,24000.606" style="stroke-width:var(--lw-6);" />
        
        <path d="M6920.63,30870.606 L6920.63,31340.606" style="stroke-width:var(--lw-6);" />
        
        <path d="M8420.63,30870.606 L8420.63,31340.606" style="stroke-width:var(--lw-6);" />
        
        <path d="M9470.63,30870.606 L9470.63,31340.606" style="stroke-width:var(--lw-6);" />
        
        <path d="M11000.63,29340.606 L11470.63,29340.606" style="stroke-width:var(--lw-6);" />
        
        <path d="M5330.63,25170.606 L5330.63,24920.606" style="stroke-width:var(--lw-6);" />
        
        <path d="M5330.63,22470.606 L5330.63,22000.606" style="stroke-width:var(--lw-6);" />
        
        <path d="M4330.63,25170.606 L4330.63,24920.606" style="stroke-width:var(--lw-6);" />
        
        <path d="M4330.63,22470.606 L4330.63,22000.606" style="stroke-width:var(--lw-6);" />
        
        <path d="M2780.63,25170.606 L2780.63,24700.606" style="stroke-width:var(--lw-6);" />
        
        <path d="M1250.63,26700.606 L490.63,26700.606" style="stroke-width:var(--lw-6);" />
        
        <path d="M11000.63,26170.606 L11470.63,26170.606" style="stroke-width:var(--lw-6);" />
        
        <path d="M11000.63,27170.606 L11470.63,27170.606" style="stroke-width:var(--lw-6);" />
        
        <path d="M490.63,28520.606 L1250.63,28520.606" style="stroke-width:var(--lw-6);" />
        
        <path d="M780.63,29520.606 L1250.63,29520.606" style="stroke-width:var(--lw-6);" />
        
        <path d="M3250.63,24920.606 L3250.63,23500.606" style="stroke-width:var(--lw-6);" />
        
        <path d="M3780.63,22470.606 L4330.63,22470.606" style="stroke-width:var(--lw-6);" />
        
        <path d="M5330.63,22470.606 L6000.63,22470.606" style="stroke-width:var(--lw-6);" />
        
        <path d="M2500.63,25670.606 L2500.63,25170.606" style="stroke-width:var(--lw-1);" />
        
        <path d="M2750.63,26170.606 L2750.63,25170.606" style="stroke-width:var(--lw-1);" />
        
        <path d="M3000.63,26170.606 L3000.63,25170.606" style="stroke-width:var(--lw-1);" />
        
        <path d="M3250.63,26170.606 L3250.63,25170.606" style="stroke-width:var(--lw-1);" />
        
        <path d="M3500.63,26170.606 L3500.63,25170.606" style="stroke-width:var(--lw-1);" />
        
        <path d="M3750.63,26170.606 L3750.63,25170.606" style="stroke-width:var(--lw-1);" />
        
        <path d="M4000.63,26170.606 L4000.63,25170.606" style="stroke-width:var(--lw-1);" />
        
        <path d="M4250.63,26170.606 L2750.63,26170.606" style="stroke-width:var(--lw-1);" />
        
        <path d="M19250.63,30370.606 L19250.63,30870.606 L19920.63,30870.606" style="stroke-width:var(--lw-6);" />
        
        <path d="M21420.63,30870.606 L22470.63,30870.606" style="stroke-width:var(--lw-6);" />
        
        <path d="M24000.63,29340.606 L24000.63,27170.606" style="stroke-width:var(--lw-6);" />
        
        <path d="M24000.63,26170.606 L24000.63,24000.606" style="stroke-width:var(--lw-6);" />
        
        <path d="M22470.63,22470.606 L21420.63,22470.606" style="stroke-width:var(--lw-6);" />
        
        <path d="M19920.63,22470.606 L19250.63,22470.606 L19250.63,25670.606" style="stroke-width:var(--lw-6);" />
        
        <path d="M19250.63,27170.606 L19250.63,28520.606" style="stroke-width:var(--lw-6);" />
        
        <path d="M21420.63,31340.606 L22470.63,31340.606" style="stroke-width:var(--lw-6);" />
        
        <path d="M24470.63,29340.606 L24470.63,27170.606" style="stroke-width:var(--lw-6);" />
        
        <path d="M24470.63,26170.606 L24470.63,24000.606" style="stroke-width:var(--lw-6);" />
        
        <path d="M22470.63,22000.606 L21420.63,22000.606" style="stroke-width:var(--lw-6);" />
        
        <path d="M19920.63,22000.606 L18780.63,22000.606 L18780.63,22750.606" style="stroke-width:var(--lw-6);" />
        
        <path d="M19000.63,28520.606 L19000.63,27170.606" style="stroke-width:var(--lw-6);" />
        
        <path d="M19000.63,25670.606 L19000.63,25170.606 L18330.63,25170.606" style="stroke-width:var(--lw-6);" />
        
        <path d="M16830.63,25170.606 L15780.63,25170.606" style="stroke-width:var(--lw-6);" />
        
        <path d="M14250.63,26700.606 L14250.63,28520.606" style="stroke-width:var(--lw-6);" />
        
        <path d="M14250.63,29520.606 L14250.63,31340.606" style="stroke-width:var(--lw-6);" />
        
        <path d="M15780.63,32870.606 L16830.63,32870.606" style="stroke-width:var(--lw-6);" />
        
        <path d="M18330.63,32870.606 L19000.63,32870.606 L19000.63,30370.606" style="stroke-width:var(--lw-6);" />
        
        <path d="M16830.63,24700.606 L15780.63,24700.606" style="stroke-width:var(--lw-6);" />
        
        <path d="M13490.63,26700.606 L13490.63,28520.606" style="stroke-width:var(--lw-6);" />
        
        <path d="M13780.63,29520.606 L13780.63,31340.606" style="stroke-width:var(--lw-6);" />
        
        <path d="M15780.63,33340.606 L16830.63,33340.606" style="stroke-width:var(--lw-6);" />
        
        <path d="M18330.63,33340.606 L19470.63,33340.606 L19470.63,32590.606" style="stroke-width:var(--lw-6);" />
        
        <path d="M15250.63,27170.606 L15250.63,25170.606" style="stroke-width:var(--lw-1);" />
        
        <path d="M15500.63,27170.606 L15500.63,25170.606" style="stroke-width:var(--lw-1);" />
        
        <path d="M15750.63,27170.606 L15750.63,25170.606" style="stroke-width:var(--lw-1);" />
        
        <path d="M16000.63,27170.606 L16000.63,25170.606" style="stroke-width:var(--lw-1);" />
        
        <path d="M16250.63,27170.606 L16250.63,25170.606" style="stroke-width:var(--lw-1);" />
        
        <path d="M16500.63,27170.606 L16500.63,25170.606" style="stroke-width:var(--lw-1);" />
        
        <path d="M16750.63,27170.606 L16750.63,25170.606" style="stroke-width:var(--lw-1);" />
        
        <path d="M17000.63,27170.606 L17000.63,25170.606" style="stroke-width:var(--lw-1);" />
        
        <path d="M17250.63,26170.606 L15250.63,26170.606" style="stroke-width:var(--lw-1);" />
        
        <path d="M17250.63,27170.606 L17250.63,25170.606" style="stroke-width:var(--lw-5);" />
        
        <path d="M19250.63,30370.606 L19000.63,30370.606" style="stroke-width:var(--lw-6);" />
        
        <path d="M19250.63,25670.606 L19000.63,25670.606" style="stroke-width:var(--lw-6);" />
        
        <path d="M19000.63,27170.606 L19250.63,27170.606" style="stroke-width:var(--lw-6);" />
        
        <path d="M19250.63,28520.606 L19000.63,28520.606" style="stroke-width:var(--lw-6);" />
        
        <path d="M6250.63,30370.606 L6000.63,30370.606" style="stroke-width:var(--lw-6);" />
        
        <path d="M6250.63,25670.606 L6000.63,25670.606" style="stroke-width:var(--lw-6);" />
        
        <path d="M6000.63,27170.606 L6250.63,27170.606" style="stroke-width:var(--lw-6);" />
        
        <path d="M6250.63,28520.606 L6000.63,28520.606" style="stroke-width:var(--lw-6);" />
        
        <path d="M490.63,26700.606 L490.63,28520.606" style="stroke-width:var(--lw-6);" />
        
        <path d="M2780.63,20800.606 L3250.63,20800.606 L3250.63,20000.606 L2780.63,20000.606 Z" style="stroke-width:var(--lw-6);" />
        
        <path d="M5780.63,20500.606 L6920.63,20500.606 L6920.63,20000.606 L5780.63,20000.606 Z" style="stroke-width:var(--lw-6);" />
        
        <path d="M5330.63,35340.606 L6470.63,35340.606 L6470.63,34840.606 L5330.63,34840.606 Z" style="stroke-width:var(--lw-6);" />
        
        <path d="M11000.63,35340.606 L11470.63,35340.606 L11470.63,34540.606 L11000.63,34540.606 Z" style="stroke-width:var(--lw-6);" />
        
        <path d="M19920.63,22470.606 L19920.63,22000.606" style="stroke-width:var(--lw-6);" />
        
        <path d="M21420.63,22470.606 L21420.63,22000.606" style="stroke-width:var(--lw-6);" />
        
        <path d="M22470.63,22470.606 L22470.63,22000.606" style="stroke-width:var(--lw-6);" />
        
        <path d="M24000.63,24000.606 L24470.63,24000.606" style="stroke-width:var(--lw-6);" />
        
        <path d="M19920.63,30870.606 L19920.63,31340.606" style="stroke-width:var(--lw-6);" />
        
        <path d="M21420.63,30870.606 L21420.63,31340.606" style="stroke-width:var(--lw-6);" />
        
        <path d="M22470.63,30870.606 L22470.63,31340.606" style="stroke-width:var(--lw-6);" />
        
        <path d="M24000.63,29340.606 L24470.63,29340.606" style="stroke-width:var(--lw-6);" />
        
        <path d="M18330.63,32870.606 L18330.63,33340.606" style="stroke-width:var(--lw-6);" />
        
        <path d="M16830.63,32870.606 L16830.63,33340.606" style="stroke-width:var(--lw-6);" />
        
        <path d="M15780.63,32870.606 L15780.63,33340.606" style="stroke-width:var(--lw-6);" />
        
        <path d="M14250.63,31340.606 L13780.63,31340.606" style="stroke-width:var(--lw-6);" />
        
        <path d="M15780.63,25170.606 L15780.63,24700.606" style="stroke-width:var(--lw-6);" />
        
        <path d="M14250.63,26700.606 L13490.63,26700.606" style="stroke-width:var(--lw-6);" />
        
        <path d="M24000.63,26170.606 L24470.63,26170.606" style="stroke-width:var(--lw-6);" />
        
        <path d="M24000.63,27170.606 L24470.63,27170.606" style="stroke-width:var(--lw-6);" />
        
        <path d="M13490.63,28520.606 L14250.63,28520.606" style="stroke-width:var(--lw-6);" />
        
        <path d="M13780.63,29520.606 L14250.63,29520.606" style="stroke-width:var(--lw-6);" />
        
        <path d="M18330.63,24700.606 L18330.63,25170.606" style="stroke-width:var(--lw-6);" />
        
        <path d="M16830.63,24700.606 L16830.63,25170.606" style="stroke-width:var(--lw-6);" />
        
        <path d="M2780.63,23500.606 L2780.63,20000.606 L6920.63,20000.606 L6920.63,22000.606" style="stroke-width:var(--lw-5);" />
        
        <path d="M5330.63,33340.606 L5330.63,35340.606 L11470.63,35340.606 L11470.63,29340.606" style="stroke-width:var(--lw-5);" />
        
        <path d="M15780.63,24700.606 L15780.63,20000.606 L19920.63,20000.606 L19920.63,22000.606" style="stroke-width:var(--lw-5);" />
        
        <path d="M15880.63,24700.606 L15880.63,20100.606 L19820.63,20100.606 L19820.63,22000.606" style="stroke-width:var(--lw-1);" />
        
        <path d="M18330.63,33340.606 L18330.63,35340.606 L24470.63,35340.606 L24470.63,29340.606" style="stroke-width:var(--lw-5);" />
        
        <path d="M18430.63,33340.606 L18430.63,35240.606 L24370.63,35240.606 L24370.63,31340.606" style="stroke-width:var(--lw-1);" />
        
        <path d="M18330.63,24700.606 L18330.63,22750.606 L18780.63,22750.606" style="stroke-width:var(--lw-6);" />
        
        <path d="M19920.63,31340.606 L19920.63,32590.606 L19470.63,32590.606" style="stroke-width:var(--lw-6);" />
        
        <path d="M3780.63,22470.606 L3780.63,22000.606" style="stroke-width:var(--lw-6);" />
        
        <path d="M3250.63,23500.606 L2780.63,23500.606" style="stroke-width:var(--lw-6);" />
        
        <path d="M6920.63,31340.606 L6920.63,32590.606 L6470.63,32590.606" style="stroke-width:var(--lw-6);" />
        
        <path d="M13780.63,31340.606 L13780.63,33340.606 L15780.63,33340.606" style="stroke-width:var(--lw-5);" />
        
        <path d="M14250.63,31340.606 L14250.63,32870.606 L15780.63,32870.606" style="stroke-width:var(--lw-1);" />
        
        <path d="M16830.63,33340.606 L18330.63,33340.606" style="stroke-width:var(--lw-5);" />
        
        <path d="M16830.63,32870.606 L18330.63,32870.606" style="stroke-width:var(--lw-1);" />
        
        <path d="M13780.63,29520.606 L13780.63,28520.606" style="stroke-width:var(--lw-5);" />
        
        <path d="M14250.63,29520.606 L14250.63,28520.606" style="stroke-width:var(--lw-1);" />
        
        <path d="M14250.63,26700.606 L14250.63,25170.606 L15780.63,25170.606" style="stroke-width:var(--lw-1);" />
        
        <path d="M13780.63,26700.606 L13780.63,24700.606 L15780.63,24700.606" style="stroke-width:var(--lw-1);" />
        
        <path d="M13900.63,33220.606 L13900.63,33120.606 L15780.63,33120.606 L15780.63,33220.606 Z" style="stroke-width:var(--lw-1);" />
        
        <path d="M15710.63,33120.606 L15710.63,33220.606 L15780.63,33220.606 L15780.63,33120.606 Z" style="stroke-width:var(--lw-1);" />
        
        <path d="M14070.63,33120.606 L14070.63,33220.606 L14000.63,33220.606 L14000.63,33120.606 Z" style="stroke-width:var(--lw-1);" />
        
        <path d="M13900.63,33220.606 L14000.63,33220.606 L14000.63,31340.606 L13900.63,31340.606 Z" style="stroke-width:var(--lw-1);" />
        
        <path d="M14000.63,31410.606 L13900.63,31410.606 L13900.63,31340.606 L14000.63,31340.606 Z" style="stroke-width:var(--lw-1);" />
        
        <path d="M14000.63,33050.606 L13900.63,33050.606 L13900.63,33120.606 L14000.63,33120.606 Z" style="stroke-width:var(--lw-1);" />
        
        <path d="M16830.63,33220.606 L16830.63,33120.606 L18330.63,33120.606 L18330.63,33220.606 Z" style="stroke-width:var(--lw-1);" />
        
        <path d="M17260.63,33120.606 L17260.63,33220.606 L17330.63,33220.606 L17330.63,33120.606 Z" style="stroke-width:var(--lw-1);" />
        
        <path d="M16900.63,33120.606 L16900.63,33220.606 L16830.63,33220.606 L16830.63,33120.606 Z" style="stroke-width:var(--lw-1);" />
        
        <path d="M16830.63,25170.606 L18330.63,25170.606" style="stroke-width:var(--lw-5);" />
        
        <path d="M18260.63,33120.606 L18260.63,33220.606 L18330.63,33220.606 L18330.63,33120.606 Z" style="stroke-width:var(--lw-1);" />
        
        <path d="M17330.63,33120.606 L17330.63,33220.606 L17400.63,33220.606 L17400.63,33120.606 Z" style="stroke-width:var(--lw-1);" />
        
        <path d="M22470.63,30870.606 L24000.63,30870.606 L24000.63,29340.606" style="stroke-width:var(--lw-1);" />
        
        <path d="M24350.63,31220.606 L24250.63,31220.606 L24250.63,29340.606 L24350.63,29340.606 Z" style="stroke-width:var(--lw-1);" />
        
        <path d="M24250.63,29410.606 L24350.63,29410.606 L24350.63,29340.606 L24250.63,29340.606 Z" style="stroke-width:var(--lw-1);" />
        
        <path d="M24250.63,31050.606 L24350.63,31050.606 L24350.63,31120.606 L24250.63,31120.606 Z" style="stroke-width:var(--lw-1);" />
        
        <path d="M24350.63,31220.606 L24350.63,31120.606 L22470.63,31120.606 L22470.63,31220.606 Z" style="stroke-width:var(--lw-1);" />
        
        <path d="M22540.63,31120.606 L22540.63,31220.606 L22470.63,31220.606 L22470.63,31120.606 Z" style="stroke-width:var(--lw-1);" />
        
        <path d="M24180.63,31120.606 L24180.63,31220.606 L24250.63,31220.606 L24250.63,31120.606 Z" style="stroke-width:var(--lw-1);" />
        
        <path d="M13900.63,28520.606 L14000.63,28520.606 L14000.63,29520.606 L13900.63,29520.606 Z" style="stroke-width:var(--lw-1);" />
        
        <path d="M14000.63,29450.606 L13900.63,29450.606 L13900.63,29520.606 L14000.63,29520.606 Z" style="stroke-width:var(--lw-1);" />
        
        <path d="M14000.63,28520.606 L13900.63,28520.606 L13900.63,28590.606 L14000.63,28590.606 Z" style="stroke-width:var(--lw-1);" />
        
        <path d="M24470.63,26170.606 L24470.63,27170.606" style="stroke-width:var(--lw-5);" />
        
        <path d="M24000.63,26170.606 L24000.63,27170.606" style="stroke-width:var(--lw-1);" />
        
        <path d="M24350.63,27170.606 L24250.63,27170.606 L24250.63,26170.606 L24350.63,26170.606 Z" style="stroke-width:var(--lw-1);" />
        
        <path d="M24250.63,26240.606 L24350.63,26240.606 L24350.63,26170.606 L24250.63,26170.606 Z" style="stroke-width:var(--lw-1);" />
        
        <path d="M24250.63,27170.606 L24350.63,27170.606 L24350.63,27100.606 L24250.63,27100.606 Z" style="stroke-width:var(--lw-1);" />
        
        <path d="M22470.63,22470.606 L24000.63,22470.606 L24000.63,24000.606" style="stroke-width:var(--lw-1);" />
        
        <path d="M24350.63,22120.606 L24250.63,22120.606 L24250.63,24000.606 L24350.63,24000.606 Z" style="stroke-width:var(--lw-1);" />
        
        <path d="M24250.63,23930.606 L24350.63,23930.606 L24350.63,24000.606 L24250.63,24000.606 Z" style="stroke-width:var(--lw-1);" />
        
        <path d="M24250.63,22290.606 L24350.63,22290.606 L24350.63,22220.606 L24250.63,22220.606 Z" style="stroke-width:var(--lw-1);" />
        
        <path d="M24350.63,22120.606 L24350.63,22220.606 L22470.63,22220.606 L22470.63,22120.606 Z" style="stroke-width:var(--lw-1);" />
        
        <path d="M22540.63,22220.606 L22540.63,22120.606 L22470.63,22120.606 L22470.63,22220.606 Z" style="stroke-width:var(--lw-1);" />
        
        <path d="M24180.63,22220.606 L24180.63,22120.606 L24250.63,22120.606 L24250.63,22220.606 Z" style="stroke-width:var(--lw-1);" />
        
        <path d="M24470.63,24000.606 L24470.63,22000.606 L22470.63,22000.606" style="stroke-width:var(--lw-5);" />
        
        <path d="M21420.63,22000.606 L19920.63,22000.606" style="stroke-width:var(--lw-5);" />
        
        <path d="M21420.63,22470.606 L19920.63,22470.606" style="stroke-width:var(--lw-1);" />
        
        <path d="M21420.63,22120.606 L21420.63,22220.606 L19920.63,22220.606 L19920.63,22120.606 Z" style="stroke-width:var(--lw-1);" />
        
        <path d="M20990.63,22220.606 L20990.63,22120.606 L20920.63,22120.606 L20920.63,22220.606 Z" style="stroke-width:var(--lw-1);" />
        
        <path d="M21350.63,22220.606 L21350.63,22120.606 L21420.63,22120.606 L21420.63,22220.606 Z" style="stroke-width:var(--lw-1);" />
        
        <path d="M19990.63,22220.606 L19990.63,22120.606 L19920.63,22120.606 L19920.63,22220.606 Z" style="stroke-width:var(--lw-1);" />
        
        <path d="M20920.63,22220.606 L20920.63,22120.606 L20850.63,22120.606 L20850.63,22220.606 Z" style="stroke-width:var(--lw-1);" />
        
        <path d="M13900.63,24820.606 L13900.63,24920.606 L15780.63,24920.606 L15780.63,24820.606 Z" style="stroke-width:var(--lw-1);" />
        
        <path d="M15710.63,24920.606 L15710.63,24820.606 L15780.63,24820.606 L15780.63,24920.606 Z" style="stroke-width:var(--lw-1);" />
        
        <path d="M14070.63,24920.606 L14070.63,24820.606 L14000.63,24820.606 L14000.63,24920.606 Z" style="stroke-width:var(--lw-1);" />
        
        <path d="M13900.63,24820.606 L14000.63,24820.606 L14000.63,26700.606 L13900.63,26700.606 Z" style="stroke-width:var(--lw-1);" />
        
        <path d="M14000.63,26630.606 L13900.63,26630.606 L13900.63,26700.606 L14000.63,26700.606 Z" style="stroke-width:var(--lw-1);" />
        
        <path d="M14000.63,24990.606 L13900.63,24990.606 L13900.63,24920.606 L14000.63,24920.606 Z" style="stroke-width:var(--lw-1);" />
        
        <path d="M19920.63,30870.606 L21420.63,30870.606" style="stroke-width:var(--lw-1);" />
        
        <path d="M19920.63,31120.606 L19920.63,31220.606 L19970.63,31220.606 L19970.63,31120.606 Z" style="stroke-width:var(--lw-1);" />
        
        <path d="M20870.63,31120.606 L20870.63,31220.606 L20920.63,31220.606 L20920.63,31120.606 Z" style="stroke-width:var(--lw-1);" />
        
        <path d="M19970.63,31220.606 L19970.63,32120.606" style="stroke-width:var(--lw-1);" />
        
        <path d="M20870.63,31220.6039 A900,900 0 0,1 19970.63,32120.606" style="stroke-width:var(--lw-1);" />
        
        <path d="M21420.63,31220.606 L21420.63,31120.606 L20920.63,31120.606 L20920.63,31220.606 Z" style="stroke-width:var(--lw-1);" />
        
        <path d="M20990.63,31120.606 L20990.63,31220.606 L20920.63,31220.606 L20920.63,31120.606 Z" style="stroke-width:var(--lw-1);" />
        
        <path d="M21350.63,31120.606 L21350.63,31220.606 L21420.63,31220.606 L21420.63,31120.606 Z" style="stroke-width:var(--lw-1);" />
        
        <path d="M18330.63,24920.606 L18330.63,24820.606 L18280.63,24820.606 L18280.63,24920.606 Z" style="stroke-width:var(--lw-1);" />
        
        <path d="M17380.63,24920.606 L17380.63,24820.606 L17330.63,24820.606 L17330.63,24920.606 Z" style="stroke-width:var(--lw-1);" />
        
        <path d="M18280.63,24820.606 L18280.63,23920.606" style="stroke-width:var(--lw-1);" />
        
        <path d="M17380.63,24820.6081 A900,900 0 0,1 18280.63,23920.606" style="stroke-width:var(--lw-1);" />
        
        <path d="M16830.63,24820.606 L16830.63,24920.606 L17330.63,24920.606 L17330.63,24820.606 Z" style="stroke-width:var(--lw-1);" />
        
        <path d="M17260.63,24920.606 L17260.63,24820.606 L17330.63,24820.606 L17330.63,24920.606 Z" style="stroke-width:var(--lw-1);" />
        
        <path d="M16900.63,24920.606 L16900.63,24820.606 L16830.63,24820.606 L16830.63,24920.606 Z" style="stroke-width:var(--lw-1);" />
        
        <path d="M11350.63,22120.606 L11250.63,22120.606 L11250.63,24000.606 L11350.63,24000.606 Z" style="stroke-width:var(--lw-1);" />
        
        <path d="M11250.63,23930.606 L11350.63,23930.606 L11350.63,24000.606 L11250.63,24000.606 Z" style="stroke-width:var(--lw-1);" />
        
        <path d="M11250.63,22290.606 L11350.63,22290.606 L11350.63,22220.606 L11250.63,22220.606 Z" style="stroke-width:var(--lw-1);" />
        
        <path d="M11350.63,22120.606 L11350.63,22220.606 L9470.63,22220.606 L9470.63,22120.606 Z" style="stroke-width:var(--lw-1);" />
        
        <path d="M9540.63,22220.606 L9540.63,22120.606 L9470.63,22120.606 L9470.63,22220.606 Z" style="stroke-width:var(--lw-1);" />
        
        <path d="M11180.63,22220.606 L11180.63,22120.606 L11250.63,22120.606 L11250.63,22220.606 Z" style="stroke-width:var(--lw-1);" />
        
        <path d="M11470.63,24000.606 L11470.63,22000.606 L9470.63,22000.606" style="stroke-width:var(--lw-5);" />
        
        <path d="M8420.63,22000.606 L6920.63,22000.606" style="stroke-width:var(--lw-5);" />
        
        <path d="M8420.63,22120.606 L8420.63,22220.606 L6920.63,22220.606 L6920.63,22120.606 Z" style="stroke-width:var(--lw-1);" />
        
        <path d="M7990.63,22220.606 L7990.63,22120.606 L7920.63,22120.606 L7920.63,22220.606 Z" style="stroke-width:var(--lw-1);" />
        
        <path d="M8350.63,22220.606 L8350.63,22120.606 L8420.63,22120.606 L8420.63,22220.606 Z" style="stroke-width:var(--lw-1);" />
        
        <path d="M6990.63,22220.606 L6990.63,22120.606 L6920.63,22120.606 L6920.63,22220.606 Z" style="stroke-width:var(--lw-1);" />
        
        <path d="M7920.63,22220.606 L7920.63,22120.606 L7850.63,22120.606 L7850.63,22220.606 Z" style="stroke-width:var(--lw-1);" />
        
        <path d="M6920.63,31120.606 L6920.63,31220.606 L6970.63,31220.606 L6970.63,31120.606 Z" style="stroke-width:var(--lw-1);" />
        
        <path d="M7870.63,31120.606 L7870.63,31220.606 L7920.63,31220.606 L7920.63,31120.606 Z" style="stroke-width:var(--lw-1);" />
        
        <path d="M6970.63,31220.606 L6970.63,32120.606" style="stroke-width:var(--lw-1);" />
        
        <path d="M7870.63,31220.6039 A900,900 0 0,1 6970.63,32120.606" style="stroke-width:var(--lw-1);" />
        
        <path d="M8420.63,31220.606 L8420.63,31120.606 L7920.63,31120.606 L7920.63,31220.606 Z" style="stroke-width:var(--lw-1);" />
        
        <path d="M7990.63,31120.606 L7990.63,31220.606 L7920.63,31220.606 L7920.63,31120.606 Z" style="stroke-width:var(--lw-1);" />
        
        <path d="M8350.63,31120.606 L8350.63,31220.606 L8420.63,31220.606 L8420.63,31120.606 Z" style="stroke-width:var(--lw-1);" />
        
        <path d="M11470.63,26170.606 L11470.63,27170.606" style="stroke-width:var(--lw-5);" />
        
        <path d="M11350.63,27170.606 L11250.63,27170.606 L11250.63,26170.606 L11350.63,26170.606 Z" style="stroke-width:var(--lw-1);" />
        
        <path d="M11250.63,26240.606 L11350.63,26240.606 L11350.63,26170.606 L11250.63,26170.606 Z" style="stroke-width:var(--lw-1);" />
        
        <path d="M11250.63,27170.606 L11350.63,27170.606 L11350.63,27100.606 L11250.63,27100.606 Z" style="stroke-width:var(--lw-1);" />
        
        <path d="M11350.63,31220.606 L11250.63,31220.606 L11250.63,29340.606 L11350.63,29340.606 Z" style="stroke-width:var(--lw-1);" />
        
        <path d="M11250.63,29410.606 L11350.63,29410.606 L11350.63,29340.606 L11250.63,29340.606 Z" style="stroke-width:var(--lw-1);" />
        
        <path d="M11250.63,31050.606 L11350.63,31050.606 L11350.63,31120.606 L11250.63,31120.606 Z" style="stroke-width:var(--lw-1);" />
        
        <path d="M11350.63,31220.606 L11350.63,31120.606 L9470.63,31120.606 L9470.63,31220.606 Z" style="stroke-width:var(--lw-1);" />
        
        <path d="M9540.63,31120.606 L9540.63,31220.606 L9470.63,31220.606 L9470.63,31120.606 Z" style="stroke-width:var(--lw-1);" />
        
        <path d="M11180.63,31120.606 L11180.63,31220.606 L11250.63,31220.606 L11250.63,31120.606 Z" style="stroke-width:var(--lw-1);" />
        
        <path d="M5330.63,32870.606 L5330.63,33340.606" style="stroke-width:var(--lw-6);" />
        
        <path d="M3830.63,32870.606 L3830.63,33340.606" style="stroke-width:var(--lw-6);" />
        
        <path d="M2780.63,32870.606 L2780.63,33340.606" style="stroke-width:var(--lw-6);" />
        
        <path d="M1250.63,31340.606 L780.63,31340.606" style="stroke-width:var(--lw-6);" />
        
        <path d="M900.63,33220.606 L1000.63,33220.606 L1000.63,31340.606 L900.63,31340.606 Z" style="stroke-width:var(--lw-1);" />
        
        <path d="M1000.63,31410.606 L900.63,31410.606 L900.63,31340.606 L1000.63,31340.606 Z" style="stroke-width:var(--lw-1);" />
        
        <path d="M1000.63,33050.606 L900.63,33050.606 L900.63,33120.606 L1000.63,33120.606 Z" style="stroke-width:var(--lw-1);" />
        
        <path d="M900.63,33220.606 L900.63,33120.606 L2780.63,33120.606 L2780.63,33220.606 Z" style="stroke-width:var(--lw-1);" />
        
        <path d="M2710.63,33120.606 L2710.63,33220.606 L2780.63,33220.606 L2780.63,33120.606 Z" style="stroke-width:var(--lw-1);" />
        
        <path d="M1070.63,33120.606 L1070.63,33220.606 L1000.63,33220.606 L1000.63,33120.606 Z" style="stroke-width:var(--lw-1);" />
        
        <path d="M780.63,31340.606 L780.63,33340.606 L2780.63,33340.606" style="stroke-width:var(--lw-5);" />
        
        <path d="M3830.63,33340.606 L5330.63,33340.606" style="stroke-width:var(--lw-5);" />
        
        <path d="M3830.63,33220.606 L3830.63,33120.606 L5330.63,33120.606 L5330.63,33220.606 Z" style="stroke-width:var(--lw-1);" />
        
        <path d="M4260.63,33120.606 L4260.63,33220.606 L4330.63,33220.606 L4330.63,33120.606 Z" style="stroke-width:var(--lw-1);" />
        
        <path d="M3900.63,33120.606 L3900.63,33220.606 L3830.63,33220.606 L3830.63,33120.606 Z" style="stroke-width:var(--lw-1);" />
        
        <path d="M5260.63,33120.606 L5260.63,33220.606 L5330.63,33220.606 L5330.63,33120.606 Z" style="stroke-width:var(--lw-1);" />
        
        <path d="M4330.63,33120.606 L4330.63,33220.606 L4400.63,33220.606 L4400.63,33120.606 Z" style="stroke-width:var(--lw-1);" />
        
        <path d="M780.63,29520.606 L780.63,28520.606" style="stroke-width:var(--lw-5);" />
        
        <path d="M900.63,24820.606 L1000.63,24820.606 L1000.63,26700.606 L900.63,26700.606 Z" style="stroke-width:var(--lw-1);" />
        
        <path d="M1000.63,26630.606 L900.63,26630.606 L900.63,26700.606 L1000.63,26700.606 Z" style="stroke-width:var(--lw-1);" />
        
        <path d="M1000.63,24990.606 L900.63,24990.606 L900.63,24920.606 L1000.63,24920.606 Z" style="stroke-width:var(--lw-1);" />
        
        <path d="M900.63,24820.606 L900.63,24920.606 L2780.63,24920.606 L2780.63,24820.606 Z" style="stroke-width:var(--lw-1);" />
        
        <path d="M2710.63,24920.606 L2710.63,24820.606 L2780.63,24820.606 L2780.63,24920.606 Z" style="stroke-width:var(--lw-1);" />
        
        <path d="M1070.63,24920.606 L1070.63,24820.606 L1000.63,24820.606 L1000.63,24920.606 Z" style="stroke-width:var(--lw-1);" />
        
        <path d="M780.63,26700.606 L780.63,24700.606 L2780.63,24700.606" style="stroke-width:var(--lw-5);" />
        
        <path d="M1250.63,26700.606 L1250.63,25170.606 L2780.63,25170.606" style="stroke-width:var(--lw-1);" />
        
        <path d="M1000.63,28520.606 L900.63,28520.606 L900.63,28570.606 L1000.63,28570.606 Z" style="stroke-width:var(--lw-1);" />
        
        <path d="M1000.63,29470.606 L900.63,29470.606 L900.63,29520.606 L1000.63,29520.606 Z" style="stroke-width:var(--lw-1);" />
        
        <path d="M900.63,28570.606 L0.63,28570.606" style="stroke-width:var(--lw-1);" />
        
        <path d="M900.6321,29470.606 A900,900 0 0,1 0.63,28570.606" style="stroke-width:var(--lw-1);" />
        
        <path d="M2900.63,22120.606 L3000.63,22120.606 L3000.63,23500.606 L2900.63,23500.606 Z" style="stroke-width:var(--lw-1);" />
        
        <path d="M3000.63,23430.606 L2900.63,23430.606 L2900.63,23500.606 L3000.63,23500.606 Z" style="stroke-width:var(--lw-1);" />
        
        <path d="M3000.63,22290.606 L2900.63,22290.606 L2900.63,22220.606 L3000.63,22220.606 Z" style="stroke-width:var(--lw-1);" />
        
        <path d="M2900.63,22120.606 L2900.63,22220.606 L3780.63,22220.606 L3780.63,22120.606 Z" style="stroke-width:var(--lw-1);" />
        
        <path d="M3710.63,22220.606 L3710.63,22120.606 L3780.63,22120.606 L3780.63,22220.606 Z" style="stroke-width:var(--lw-1);" />
        
        <path d="M3070.63,22220.606 L3070.63,22120.606 L3000.63,22120.606 L3000.63,22220.606 Z" style="stroke-width:var(--lw-1);" />
        
        <path d="M15250.63,26295.606 L14250.63,26295.606" style="stroke-width:var(--lw-1);" />
        
        <path d="M15250.63,26045.606 L14250.63,26045.606" style="stroke-width:var(--lw-1);" />
        
        <path d="M4250.63,26170.606 L4250.63,25170.606" style="stroke-width:var(--lw-1);" />
        
        <path d="M17250.63,27170.606 L14250.63,27170.606" style="stroke-width:var(--lw-5);" />
        
        <text dx="0" dy="200" fill="var(--text-color)" font-size="var(--dxf-big-font)" line-height="1.1" text-anchor="middle" transform="translate(3598.672,29252.5651) translate(0,100) scale(1,-1)" x="0" y="0">36.6</text>
        
        <path d="M17250.63,26670.606 L14750.63,26670.606 L14750.63,25670.606 L17250.63,25670.606" style="stroke-width:var(--lw-4);" />
        
        <path d="M17000.63,26795.606 L17250.63,26670.606 L17000.63,26545.606" style="stroke-width:var(--lw-4);" />
        
        <path d="M2750.63,25545.606 L2500.63,25670.606 L2750.63,25795.606" style="stroke-width:var(--lw-4);" />
        
        <path d="M4250.63,25670.606 L2500.63,25670.606" style="stroke-width:var(--lw-4);" />
        
        <path d="M2250.63,25170.606 L2750.63,26170.606" style="stroke-width:var(--lw-1);" />
        
        <path d="M5330.63,22220.606 L5330.63,22120.606 L5280.63,22120.606 L5280.63,22220.606 Z" style="stroke-width:var(--lw-1);" />
        
        <path d="M4380.63,22220.606 L4380.63,22120.606 L4330.63,22120.606 L4330.63,22220.606 Z" style="stroke-width:var(--lw-1);" />
        
        <path d="M5280.63,22120.606 L5280.63,21220.606" style="stroke-width:var(--lw-1);" />
        
        <path d="M4380.63,22120.6081 A900,900 0 0,1 5280.63,21220.606" style="stroke-width:var(--lw-1);" />
        
        <text dx="0" dy="200" fill="var(--text-color)" font-size="var(--dxf-big-font)" line-height="1.1" text-anchor="middle" transform="translate(8741.1773,26373.6045) translate(0,100) scale(1,-1)" x="0" y="0">39.9</text>
        
        <text dx="0" dy="200" fill="var(--text-color)" font-size="var(--dxf-big-font)" line-height="1.1" text-anchor="middle" transform="translate(4670.1584,23682.7114) translate(0,100) scale(1,-1)" x="0" y="0">6.7</text>
        
        <text dx="0" dy="200" fill="var(--text-color)" font-size="var(--dxf-big-font)" line-height="1.1" text-anchor="middle" transform="translate(16622.0817,29470.1112) translate(0,100) scale(1,-1)" x="0" y="0">30.6</text>
        
        <text dx="0" dy="200" fill="var(--text-color)" font-size="var(--dxf-big-font)" line-height="1.1" text-anchor="middle" transform="translate(21741.1773,26373.6045) translate(0,100) scale(1,-1)" x="0" y="0">39.9</text>
        <text dx="0" dy="200" fill="var(--text-color)" font-size="var(--dxf-big-font)" line-height="1.1" text-anchor="middle" transform="translate(12000,20200) translate(0,110) scale(1,-1)" x="0" y="0">БАЗОВАЯ ПЛАНИРОВКА</text>
    </g>
</svg>