<svg xmlns="http://www.w3.org/2000/svg" class="svg-drawing" height="15340mm" version="1.1" viewBox="-299.37 -35640.606 24770.0 15640.0" width="24470mm">
    <g transform="scale(1,-1)">
        
        <path d="M17130.63,27290.606 L15930.63,27290.606 L15930.63,28290.606 L17130.63,28290.606 Z" style="stroke-width:var(--lw-3);" />
        
        <path d="M1250.63,27170.606 L4430.63,27170.606" style="stroke-width:var(--lw-5);" />
        
        <path d="M5330.63,27170.606 L6000.63,27170.606" style="stroke-width:var(--lw-5);" />
        
        <path d="M1250.63,27290.606 L2990.63,27290.606" style="stroke-width:var(--lw-5);" />
        
        <path d="M3110.63,27290.606 L4210.63,27290.606" style="stroke-width:var(--lw-5);" />
        
        <path d="M4330.63,27290.606 L4430.63,27290.606" style="stroke-width:var(--lw-5);" />
        
        <path d="M5330.63,27290.606 L6000.63,27290.606" style="stroke-width:var(--lw-5);" />
        
        <path d="M1250.63,30250.606 L2990.63,30250.606" style="stroke-width:var(--lw-5);" />
        
        <path d="M3110.63,30250.606 L4210.63,30250.606" style="stroke-width:var(--lw-5);" />
        
        <path d="M4330.63,30250.606 L4430.63,30250.606" style="stroke-width:var(--lw-5);" />
        
        <path d="M5330.63,30250.606 L6000.63,30250.606" style="stroke-width:var(--lw-5);" />
        
        <path d="M1250.63,30370.606 L4430.63,30370.606" style="stroke-width:var(--lw-5);" />
        
        <path d="M5330.63,30370.606 L6000.63,30370.606" style="stroke-width:var(--lw-5);" />
        
        <path d="M4330.63,27290.606 L4330.63,28620.606" style="stroke-width:var(--lw-5);" />
        
        <path d="M4330.63,29420.606 L4330.63,30250.606" style="stroke-width:var(--lw-5);" />
        
        <path d="M4210.63,27290.606 L4210.63,28620.606" style="stroke-width:var(--lw-5);" />
        
        <path d="M4210.63,29420.606 L4210.63,30250.606" style="stroke-width:var(--lw-5);" />
        
        <path d="M14250.63,27170.606 L17430.63,27170.606" style="stroke-width:var(--lw-5);" />
        
        <path d="M18330.63,27170.606 L19000.63,27170.606" style="stroke-width:var(--lw-5);" />
        
        <path d="M14250.63,27290.606 L15810.63,27290.606" style="stroke-width:var(--lw-5);" />
        
        <path d="M15930.63,27290.606 L17130.63,27290.606" style="stroke-width:var(--lw-5);" />
        
        <path d="M17250.63,27290.606 L17430.63,27290.606" style="stroke-width:var(--lw-5);" />
        
        <path d="M18330.63,27290.606 L19000.63,27290.606" style="stroke-width:var(--lw-5);" />
        
        <path d="M14250.63,29520.606 L17130.63,29520.606" style="stroke-width:var(--lw-5);" />
        
        <path d="M17250.63,29520.606 L17430.63,29520.606" style="stroke-width:var(--lw-5);" />
        
        <path d="M18330.63,29520.606 L19000.63,29520.606" style="stroke-width:var(--lw-5);" />
        
        <path d="M18330.63,29640.606 L19000.63,29640.606" style="stroke-width:var(--lw-5);" />
        
        <path d="M17250.63,27290.606 L17250.63,28620.606" style="stroke-width:var(--lw-5);" />
        
        <path d="M17250.63,29420.606 L17250.63,29520.606" style="stroke-width:var(--lw-5);" />
        
        <path d="M17130.63,27290.606 L17130.63,28620.606" style="stroke-width:var(--lw-5);" />
        
        <path d="M17130.63,29420.606 L17130.63,29520.606" style="stroke-width:var(--lw-5);" />
        
        <path d="M19250.63,27550.606 L19920.63,27550.606" style="stroke-width:var(--lw-5);" />
        
        <path d="M20820.63,27550.606 L21000.63,27550.606" style="stroke-width:var(--lw-5);" />
        
        <path d="M21120.63,27550.606 L24000.63,27550.606" style="stroke-width:var(--lw-5);" />
        
        <path d="M19250.63,27670.606 L19920.63,27670.606" style="stroke-width:var(--lw-5);" />
        
        <path d="M20820.63,27670.606 L24000.63,27670.606" style="stroke-width:var(--lw-5);" />
        
        <path d="M19250.63,25670.606 L19920.63,25670.606" style="stroke-width:var(--lw-5);" />
        
        <path d="M20820.63,25670.606 L21000.63,25670.606" style="stroke-width:var(--lw-5);" />
        
        <path d="M21120.63,25670.606 L24000.63,25670.606" style="stroke-width:var(--lw-5);" />
        
        <path d="M19250.63,25550.606 L19920.63,25550.606" style="stroke-width:var(--lw-5);" />
        
        <path d="M20820.63,25550.606 L24000.63,25550.606" style="stroke-width:var(--lw-5);" />
        
        <path d="M6250.63,25670.606 L6900.63,25670.606 L6900.63,25550.606 L6250.63,25550.606" style="stroke-width:var(--lw-5);" />
        
        <path d="M6000.63,30250.606 L6000.63,28520.606" style="stroke-width:var(--lw-5);" />
        
        <path d="M6250.63,30370.606 L6250.63,28520.606" style="stroke-width:var(--lw-5);" />
        
        <path d="M19000.63,30370.606 L19000.63,29640.606" style="stroke-width:var(--lw-5);" />
        
        <path d="M19000.63,29520.606 L19000.63,28520.606" style="stroke-width:var(--lw-5);" />
        
        <path d="M18400.63,29520.606 L18400.63,27290.606" style="stroke-width:var(--lw-3);" />
        
        <path d="M19250.63,30370.606 L19250.63,28520.606" style="stroke-width:var(--lw-5);" />
        
        <path d="M19850.63,30870.606 L19850.63,27670.606" style="stroke-width:var(--lw-3);" />
        
        <path d="M3110.63,27290.606 L3110.63,28620.606" style="stroke-width:var(--lw-5);" />
        
        <path d="M3110.63,29420.606 L3110.63,30250.606" style="stroke-width:var(--lw-5);" />
        
        <path d="M2990.63,27290.606 L2990.63,28620.606" style="stroke-width:var(--lw-5);" />
        
        <path d="M2990.63,29420.606 L2990.63,30250.606" style="stroke-width:var(--lw-5);" />
        
        <path d="M4430.63,27290.606 L4430.63,27170.606" style="stroke-width:var(--lw-5);" />
        
        <path d="M5330.63,27290.606 L5330.63,27170.606" style="stroke-width:var(--lw-5);" />
        
        <path d="M2990.63,28620.606 L3110.63,28620.606" style="stroke-width:var(--lw-5);" />
        
        <path d="M2990.63,29420.606 L3110.63,29420.606" style="stroke-width:var(--lw-5);" />
        
        <path d="M3110.63,28620.606 L3460.63,28620.606 L3460.63,27490.606" style="stroke-width:var(--lw-3);" />
        
        <path d="M5400.63,30250.606 L5400.63,27290.606" style="stroke-width:var(--lw-3);" />
        
        <path d="M5400.63,30250.606 L6000.63,27290.606" style="stroke-width:var(--lw-3);" />
        
        <path d="M5400.63,27290.606 L6000.63,30250.606" style="stroke-width:var(--lw-3);" />
        
        <path d="M5350.63,24920.606 L5350.63,22470.606" style="stroke-width:var(--lw-3);" />
        
        <path d="M5350.63,24920.606 L6000.63,22470.606" style="stroke-width:var(--lw-3);" />
        
        <path d="M5350.63,22470.606 L6000.63,24920.606" style="stroke-width:var(--lw-3);" />
        
        <path d="M4430.63,30370.606 L4430.63,30250.606" style="stroke-width:var(--lw-5);" />
        
        <path d="M5330.63,30370.606 L5330.63,30250.606" style="stroke-width:var(--lw-5);" />
        
        <path d="M4210.63,28620.606 L4330.63,28620.606" style="stroke-width:var(--lw-5);" />
        
        <path d="M4210.63,29420.606 L4330.63,29420.606" style="stroke-width:var(--lw-5);" />
        
        <path d="M6900.63,25550.606 L6900.63,23070.606" style="stroke-width:var(--lw-3);" />
        
        <path d="M10200.63,24685.606 L10200.63,25485.606 L8400.63,25485.606 L8400.63,24685.606 Z" style="stroke-width:var(--lw-3);" />
        
        <path d="M9100.63,25935.606 L9100.63,25585.606 L9500.63,25585.606 L9500.63,25935.606 Z" style="stroke-width:var(--lw-3);" />
        
        <path d="M9650.63,25935.606 L9650.63,25585.606 L10050.63,25585.606 L10050.63,25935.606 Z" style="stroke-width:var(--lw-3);" />
        
        <path d="M8950.63,25935.606 L8950.63,25585.606 L8550.63,25585.606 L8550.63,25935.606 Z" style="stroke-width:var(--lw-3);" />
        
        <path d="M9100.63,24235.606 L9100.63,24585.606 L9500.63,24585.606 L9500.63,24235.606 Z" style="stroke-width:var(--lw-3);" />
        
        <path d="M9650.63,24235.606 L9650.63,24585.606 L10050.63,24585.606 L10050.63,24235.606 Z" style="stroke-width:var(--lw-3);" />
        
        <path d="M8950.63,24235.606 L8950.63,24585.606 L8550.63,24585.606 L8550.63,24235.606 Z" style="stroke-width:var(--lw-3);" />
        
        <path d="M6900.63,23070.606 L9470.63,23070.606 L9470.63,22470.606" style="stroke-width:var(--lw-3);" />
        
        <path d="M3110.63,29420.606 L4210.63,29420.606" style="stroke-width:var(--lw-3);" />
        
        <path d="M4018.13,27788.106 L4018.13,27490.606 L3653.13,27490.606 L3653.13,27788.106 A182.5,182.5 0 0 0 4018.13,27788.106" style="stroke-width:var(--lw-3);" />
        
        <path d="M3110.63,27490.606 L4210.63,27490.606" style="stroke-width:var(--lw-3);" />
        
        <path d="M5400.63,32870.606 L5400.63,30370.606" style="stroke-width:var(--lw-3);" />
        
        <path d="M5400.63,32870.606 L6000.63,30370.606" style="stroke-width:var(--lw-3);" />
        
        <path d="M5400.63,30370.606 L6000.63,32870.606" style="stroke-width:var(--lw-3);" />
        
        <circle cx="3210.63" cy="29835.606" r="25" style="stroke-width:var(--lw-3);" />
        
        <path d="M3411.0782,28245.606 A75,75 0 0 0 3336.0782,28170.606 L3236.0782,28170.606 A75,75 0 0 0 3161.0782,28245.606 L3161.0782,28445.606 A75,75 0 0 0 3236.0782,28520.606 L3336.0782,28520.606 A75,75 0 0 0 3411.0782,28445.606 Z" style="stroke-width:var(--lw-3);" />
        
        <path d="M1250.63,29650.606 L2990.63,29650.606" style="stroke-width:var(--lw-3);" />
        
        <circle cx="1550.63" cy="29950.606" r="200" style="stroke-width:var(--lw-3);" />
        
        <circle cx="2150.63" cy="29950.606" r="200" style="stroke-width:var(--lw-3);" />
        
        <path d="M1450.63,28290.606 L1450.63,27490.606 L2250.63,27490.606 L2250.63,28290.606 Z" style="stroke-width:var(--lw-3);" />
        
        <path d="M10700.63,29570.606 L10700.63,30570.606 L8500.63,30570.606 L8500.63,29570.606 L10450.63,29570.606" style="stroke-width:var(--lw-3);" />
        
        <path d="M8500.63,30320.606 L10450.63,30320.606" style="stroke-width:var(--lw-3);" />
        
        <path d="M10700.63,29570.606 L10700.63,27570.606 L9700.63,27570.606 L9700.63,30320.606" style="stroke-width:var(--lw-3);" />
        
        <path d="M10450.63,27570.606 L10450.63,30320.606" style="stroke-width:var(--lw-3);" />
        
        <path d="M8218.2029,28023.4332 L7960.3676,27654.623 A250,250 0 0 1 8022.0204,27306.4866 L8226.9149,27163.2448 A250,250 0 0 1 8575.0513,27224.8975 L8832.8866,27593.7078 Z" style="stroke-width:var(--lw-3);" />
        
        <path d="M6650.63,30870.606 L6250.63,30870.606 L6250.63,27170.606 L6650.63,27170.606 Z" style="stroke-width:var(--lw-3);" />
        
        <path d="M9400.63,29270.606 L9400.63,28370.606 L8800.63,28370.606 L8800.63,29270.606 Z" style="stroke-width:var(--lw-3);" />
        
        <path d="M18330.63,29640.606 L18330.63,29520.606" style="stroke-width:var(--lw-5);" />
        
        <path d="M18330.63,27290.606 L18330.63,27170.606" style="stroke-width:var(--lw-5);" />
        
        <path d="M17430.63,29640.606 L17430.63,29520.606" style="stroke-width:var(--lw-5);" />
        
        <path d="M17430.63,27290.606 L17430.63,27170.606" style="stroke-width:var(--lw-5);" />
        
        <path d="M19920.63,27670.606 L19920.63,27550.606" style="stroke-width:var(--lw-5);" />
        
        <path d="M19920.63,25670.606 L19920.63,25550.606" style="stroke-width:var(--lw-5);" />
        
        <path d="M20820.63,27670.606 L20820.63,27550.606" style="stroke-width:var(--lw-5);" />
        
        <path d="M20820.63,25670.606 L20820.63,25550.606" style="stroke-width:var(--lw-5);" />
        
        <path d="M17430.63,29640.606 L14250.63,29640.606" style="stroke-width:var(--lw-5);" />
        
        <path d="M6250.63,30370.606 L6250.63,30870.606 L6920.63,30870.606" style="stroke-width:var(--lw-6);" />
        
        <path d="M8420.63,30870.606 L9470.63,30870.606" style="stroke-width:var(--lw-6);" />
        
        <path d="M11000.63,29340.606 L11000.63,27170.606" style="stroke-width:var(--lw-6);" />
        
        <path d="M11000.63,26170.606 L11000.63,24000.606" style="stroke-width:var(--lw-6);" />
        
        <path d="M9470.63,22470.606 L8420.63,22470.606" style="stroke-width:var(--lw-6);" />
        
        <path d="M6920.63,22470.606 L6250.63,22470.606 L6250.63,25670.606" style="stroke-width:var(--lw-6);" />
        
        <path d="M6250.63,27170.606 L6250.63,28520.606" style="stroke-width:var(--lw-6);" />
        
        <path d="M6000.63,22470.606 L6000.63,24920.606" style="stroke-width:var(--lw-6);" />
        
        <path d="M8420.63,31340.606 L9470.63,31340.606" style="stroke-width:var(--lw-6);" />
        
        <path d="M11470.63,29340.606 L11470.63,27170.606" style="stroke-width:var(--lw-6);" />
        
        <path d="M11470.63,26170.606 L11470.63,24000.606" style="stroke-width:var(--lw-6);" />
        
        <path d="M9470.63,22000.606 L8420.63,22000.606" style="stroke-width:var(--lw-6);" />
        
        <path d="M6920.63,22000.606 L5330.63,22000.606" style="stroke-width:var(--lw-6);" />
        
        <path d="M4330.63,22000.606 L3780.63,22000.606" style="stroke-width:var(--lw-6);" />
        
        <path d="M2780.63,23500.606 L2780.63,24700.606" style="stroke-width:var(--lw-6);" />
        
        <path d="M6000.63,28520.606 L6000.63,27170.606" style="stroke-width:var(--lw-6);" />
        
        <path d="M6000.63,25670.606 L6000.63,25170.606 L5330.63,25170.606" style="stroke-width:var(--lw-6);" />
        
        <path d="M4330.63,25170.606 L2780.63,25170.606" style="stroke-width:var(--lw-6);" />
        
        <path d="M1250.63,26700.606 L1250.63,28520.606" style="stroke-width:var(--lw-6);" />
        
        <path d="M1250.63,29520.606 L1250.63,31340.606" style="stroke-width:var(--lw-6);" />
        
        <path d="M2780.63,32870.606 L3830.63,32870.606" style="stroke-width:var(--lw-6);" />
        
        <path d="M5330.63,32870.606 L6000.63,32870.606 L6000.63,30370.606" style="stroke-width:var(--lw-6);" />
        
        <path d="M6000.63,24920.606 L5330.63,24920.606" style="stroke-width:var(--lw-6);" />
        
        <path d="M4330.63,24920.606 L3250.63,24920.606" style="stroke-width:var(--lw-6);" />
        
        <path d="M780.63,29520.606 L780.63,31340.606" style="stroke-width:var(--lw-6);" />
        
        <path d="M2780.63,33340.606 L3830.63,33340.606" style="stroke-width:var(--lw-6);" />
        
        <path d="M5330.63,33340.606 L6470.63,33340.606 L6470.63,32590.606" style="stroke-width:var(--lw-6);" />
        
        <path d="M6920.63,22470.606 L6920.63,22000.606" style="stroke-width:var(--lw-6);" />
        
        <path d="M8420.63,22470.606 L8420.63,22000.606" style="stroke-width:var(--lw-6);" />
        
        <path d="M9470.63,22470.606 L9470.63,22000.606" style="stroke-width:var(--lw-6);" />
        
        <path d="M11000.63,24000.606 L11470.63,24000.606" style="stroke-width:var(--lw-6);" />
        
        <path d="M6920.63,30870.606 L6920.63,31340.606" style="stroke-width:var(--lw-6);" />
        
        <path d="M8420.63,30870.606 L8420.63,31340.606" style="stroke-width:var(--lw-6);" />
        
        <path d="M9470.63,30870.606 L9470.63,31340.606" style="stroke-width:var(--lw-6);" />
        
        <path d="M11000.63,29340.606 L11470.63,29340.606" style="stroke-width:var(--lw-6);" />
        
        <path d="M5330.63,25170.606 L5330.63,24920.606" style="stroke-width:var(--lw-6);" />
        
        <path d="M5330.63,22470.606 L5330.63,22000.606" style="stroke-width:var(--lw-6);" />
        
        <path d="M4330.63,25170.606 L4330.63,24920.606" style="stroke-width:var(--lw-6);" />
        
        <path d="M4330.63,22470.606 L4330.63,22000.606" style="stroke-width:var(--lw-6);" />
        
        <path d="M2780.63,25170.606 L2780.63,24700.606" style="stroke-width:var(--lw-6);" />
        
        <path d="M1250.63,26700.606 L490.63,26700.606" style="stroke-width:var(--lw-6);" />
        
        <path d="M11000.63,26170.606 L11470.63,26170.606" style="stroke-width:var(--lw-6);" />
        
        <path d="M11000.63,27170.606 L11470.63,27170.606" style="stroke-width:var(--lw-6);" />
        
        <path d="M490.63,28520.606 L1250.63,28520.606" style="stroke-width:var(--lw-6);" />
        
        <path d="M780.63,29520.606 L1250.63,29520.606" style="stroke-width:var(--lw-6);" />
        
        <path d="M3250.63,24920.606 L3250.63,23500.606" style="stroke-width:var(--lw-6);" />
        
        <path d="M3780.63,22470.606 L4330.63,22470.606" style="stroke-width:var(--lw-6);" />
        
        <path d="M5330.63,22470.606 L6000.63,22470.606" style="stroke-width:var(--lw-6);" />
        
        <path d="M19250.63,30370.606 L19250.63,30870.606 L19920.63,30870.606" style="stroke-width:var(--lw-6);" />
        
        <path d="M21420.63,30870.606 L22470.63,30870.606" style="stroke-width:var(--lw-6);" />
        
        <path d="M24000.63,29340.606 L24000.63,27170.606" style="stroke-width:var(--lw-6);" />
        
        <path d="M24000.63,26170.606 L24000.63,24000.606" style="stroke-width:var(--lw-6);" />
        
        <path d="M22470.63,22470.606 L21420.63,22470.606" style="stroke-width:var(--lw-6);" />
        
        <path d="M19920.63,22470.606 L19250.63,22470.606 L19250.63,25670.606" style="stroke-width:var(--lw-6);" />
        
        <path d="M19250.63,27170.606 L19250.63,28520.606" style="stroke-width:var(--lw-6);" />
        
        <path d="M21420.63,31340.606 L22470.63,31340.606" style="stroke-width:var(--lw-6);" />
        
        <path d="M24470.63,29340.606 L24470.63,27170.606" style="stroke-width:var(--lw-6);" />
        
        <path d="M24470.63,26170.606 L24470.63,24000.606" style="stroke-width:var(--lw-6);" />
        
        <path d="M22470.63,22000.606 L21420.63,22000.606" style="stroke-width:var(--lw-6);" />
        
        <path d="M19920.63,22000.606 L18780.63,22000.606 L18780.63,22750.606" style="stroke-width:var(--lw-6);" />
        
        <path d="M19000.63,28520.606 L19000.63,27170.606" style="stroke-width:var(--lw-6);" />
        
        <path d="M19000.63,25670.606 L19000.63,25170.606 L18330.63,25170.606" style="stroke-width:var(--lw-6);" />
        
        <path d="M16830.63,25170.606 L15780.63,25170.606" style="stroke-width:var(--lw-6);" />
        
        <path d="M14250.63,26700.606 L14250.63,28520.606" style="stroke-width:var(--lw-6);" />
        
        <path d="M14250.63,29520.606 L14250.63,31340.606" style="stroke-width:var(--lw-6);" />
        
        <path d="M15780.63,32870.606 L16830.63,32870.606" style="stroke-width:var(--lw-6);" />
        
        <path d="M18330.63,32870.606 L19000.63,32870.606 L19000.63,30370.606" style="stroke-width:var(--lw-6);" />
        
        <path d="M16830.63,24700.606 L15780.63,24700.606" style="stroke-width:var(--lw-6);" />
        
        <path d="M13490.63,26700.606 L13490.63,28520.606" style="stroke-width:var(--lw-6);" />
        
        <path d="M13780.63,29520.606 L13780.63,31340.606" style="stroke-width:var(--lw-6);" />
        
        <path d="M15780.63,33340.606 L16830.63,33340.606" style="stroke-width:var(--lw-6);" />
        
        <path d="M18330.63,33340.606 L19470.63,33340.606 L19470.63,32590.606" style="stroke-width:var(--lw-6);" />
        
        <path d="M15250.63,27170.606 L15250.63,25170.606" style="stroke-width:var(--lw-1);" />
        
        <path d="M15500.63,27170.606 L15500.63,25170.606" style="stroke-width:var(--lw-1);" />
        
        <path d="M15750.63,27170.606 L15750.63,25170.606" style="stroke-width:var(--lw-1);" />
        
        <path d="M16000.63,27170.606 L16000.63,25170.606" style="stroke-width:var(--lw-1);" />
        
        <path d="M16250.63,27170.606 L16250.63,25170.606" style="stroke-width:var(--lw-1);" />
        
        <path d="M16500.63,27170.606 L16500.63,25170.606" style="stroke-width:var(--lw-1);" />
        
        <path d="M16750.63,27170.606 L16750.63,25170.606" style="stroke-width:var(--lw-1);" />
        
        <path d="M17000.63,27170.606 L17000.63,25170.606" style="stroke-width:var(--lw-1);" />
        
        <path d="M17250.63,26170.606 L15250.63,26170.606" style="stroke-width:var(--lw-1);" />
        
        <path d="M17250.63,27170.606 L17250.63,25170.606" style="stroke-width:var(--lw-5);" />
        
        <path d="M19250.63,30370.606 L19000.63,30370.606" style="stroke-width:var(--lw-6);" />
        
        <path d="M19250.63,25670.606 L19000.63,25670.606" style="stroke-width:var(--lw-6);" />
        
        <path d="M19000.63,27170.606 L19250.63,27170.606" style="stroke-width:var(--lw-6);" />
        
        <path d="M19250.63,28520.606 L19000.63,28520.606" style="stroke-width:var(--lw-6);" />
        
        <path d="M6250.63,30370.606 L6000.63,30370.606" style="stroke-width:var(--lw-6);" />
        
        <path d="M6250.63,25670.606 L6000.63,25670.606" style="stroke-width:var(--lw-6);" />
        
        <path d="M6000.63,27170.606 L6250.63,27170.606" style="stroke-width:var(--lw-6);" />
        
        <path d="M6250.63,28520.606 L6000.63,28520.606" style="stroke-width:var(--lw-6);" />
        
        <path d="M490.63,26700.606 L490.63,28520.606" style="stroke-width:var(--lw-6);" />
        
        <path d="M2780.63,20800.606 L3250.63,20800.606 L3250.63,20000.606 L2780.63,20000.606 Z" style="stroke-width:var(--lw-6);" />
        
        <path d="M5780.63,20500.606 L6920.63,20500.606 L6920.63,20000.606 L5780.63,20000.606 Z" style="stroke-width:var(--lw-6);" />
        
        <path d="M5330.63,35340.606 L6470.63,35340.606 L6470.63,34840.606 L5330.63,34840.606 Z" style="stroke-width:var(--lw-6);" />
        
        <path d="M11000.63,35340.606 L11470.63,35340.606 L11470.63,34540.606 L11000.63,34540.606 Z" style="stroke-width:var(--lw-6);" />
        
        <path d="M19920.63,22470.606 L19920.63,22000.606" style="stroke-width:var(--lw-6);" />
        
        <path d="M21420.63,22470.606 L21420.63,22000.606" style="stroke-width:var(--lw-6);" />
        
        <path d="M22470.63,22470.606 L22470.63,22000.606" style="stroke-width:var(--lw-6);" />
        
        <path d="M24000.63,24000.606 L24470.63,24000.606" style="stroke-width:var(--lw-6);" />
        
        <path d="M19920.63,30870.606 L19920.63,31340.606" style="stroke-width:var(--lw-6);" />
        
        <path d="M21420.63,30870.606 L21420.63,31340.606" style="stroke-width:var(--lw-6);" />
        
        <path d="M22470.63,30870.606 L22470.63,31340.606" style="stroke-width:var(--lw-6);" />
        
        <path d="M24000.63,29340.606 L24470.63,29340.606" style="stroke-width:var(--lw-6);" />
        
        <path d="M18330.63,32870.606 L18330.63,33340.606" style="stroke-width:var(--lw-6);" />
        
        <path d="M16830.63,32870.606 L16830.63,33340.606" style="stroke-width:var(--lw-6);" />
        
        <path d="M15780.63,32870.606 L15780.63,33340.606" style="stroke-width:var(--lw-6);" />
        
        <path d="M14250.63,31340.606 L13780.63,31340.606" style="stroke-width:var(--lw-6);" />
        
        <path d="M15780.63,25170.606 L15780.63,24700.606" style="stroke-width:var(--lw-6);" />
        
        <path d="M14250.63,26700.606 L13490.63,26700.606" style="stroke-width:var(--lw-6);" />
        
        <path d="M24000.63,26170.606 L24470.63,26170.606" style="stroke-width:var(--lw-6);" />
        
        <path d="M24000.63,27170.606 L24470.63,27170.606" style="stroke-width:var(--lw-6);" />
        
        <path d="M13490.63,28520.606 L14250.63,28520.606" style="stroke-width:var(--lw-6);" />
        
        <path d="M13780.63,29520.606 L14250.63,29520.606" style="stroke-width:var(--lw-6);" />
        
        <path d="M18330.63,24700.606 L18330.63,25170.606" style="stroke-width:var(--lw-6);" />
        
        <path d="M16830.63,24700.606 L16830.63,25170.606" style="stroke-width:var(--lw-6);" />
        
        <path d="M2780.63,23500.606 L2780.63,20000.606 L6920.63,20000.606 L6920.63,22000.606" style="stroke-width:var(--lw-5);" />
        
        <path d="M5330.63,33340.606 L5330.63,35340.606 L11470.63,35340.606 L11470.63,29340.606" style="stroke-width:var(--lw-5);" />
        
        <path d="M15780.63,24700.606 L15780.63,20000.606 L19920.63,20000.606 L19920.63,22000.606" style="stroke-width:var(--lw-5);" />
        
        <path d="M18330.63,33340.606 L18330.63,35340.606 L24470.63,35340.606 L24470.63,29340.606" style="stroke-width:var(--lw-5);" />
        
        <path d="M18330.63,24700.606 L18330.63,22750.606 L18780.63,22750.606" style="stroke-width:var(--lw-6);" />
        
        <path d="M19920.63,31340.606 L19920.63,32590.606 L19470.63,32590.606" style="stroke-width:var(--lw-6);" />
        
        <path d="M3780.63,22470.606 L3780.63,22000.606" style="stroke-width:var(--lw-6);" />
        
        <path d="M3250.63,23500.606 L2780.63,23500.606" style="stroke-width:var(--lw-6);" />
        
        <path d="M6920.63,31340.606 L6920.63,32590.606 L6470.63,32590.606" style="stroke-width:var(--lw-6);" />
        
        <path d="M13780.63,31340.606 L13780.63,33340.606 L15780.63,33340.606" style="stroke-width:var(--lw-5);" />
        
        <path d="M14250.63,31340.606 L14250.63,32870.606 L15780.63,32870.606" style="stroke-width:var(--lw-1);" />
        
        <path d="M16830.63,33340.606 L18330.63,33340.606" style="stroke-width:var(--lw-5);" />
        
        <path d="M16830.63,32870.606 L18330.63,32870.606" style="stroke-width:var(--lw-1);" />
        
        <path d="M13780.63,29520.606 L13780.63,28520.606" style="stroke-width:var(--lw-5);" />
        
        <path d="M14250.63,29520.606 L14250.63,28520.606" style="stroke-width:var(--lw-1);" />
        
        <path d="M14250.63,26700.606 L14250.63,25170.606 L15780.63,25170.606" style="stroke-width:var(--lw-1);" />
        
        <path d="M13780.63,26700.606 L13780.63,24700.606 L15780.63,24700.606" style="stroke-width:var(--lw-1);" />
        
        <path d="M13900.63,33220.606 L13900.63,33120.606 L15780.63,33120.606 L15780.63,33220.606 Z" style="stroke-width:var(--lw-1);" />
        
        <path d="M15710.63,33120.606 L15710.63,33220.606 L15780.63,33220.606 L15780.63,33120.606 Z" style="stroke-width:var(--lw-1);" />
        
        <path d="M14070.63,33120.606 L14070.63,33220.606 L14000.63,33220.606 L14000.63,33120.606 Z" style="stroke-width:var(--lw-1);" />
        
        <path d="M13900.63,33220.606 L14000.63,33220.606 L14000.63,31340.606 L13900.63,31340.606 Z" style="stroke-width:var(--lw-1);" />
        
        <path d="M14000.63,31410.606 L13900.63,31410.606 L13900.63,31340.606 L14000.63,31340.606 Z" style="stroke-width:var(--lw-1);" />
        
        <path d="M14000.63,33050.606 L13900.63,33050.606 L13900.63,33120.606 L14000.63,33120.606 Z" style="stroke-width:var(--lw-1);" />
        
        <path d="M16830.63,33220.606 L16830.63,33120.606 L18330.63,33120.606 L18330.63,33220.606 Z" style="stroke-width:var(--lw-1);" />
        
        <path d="M17260.63,33120.606 L17260.63,33220.606 L17330.63,33220.606 L17330.63,33120.606 Z" style="stroke-width:var(--lw-1);" />
        
        <path d="M16900.63,33120.606 L16900.63,33220.606 L16830.63,33220.606 L16830.63,33120.606 Z" style="stroke-width:var(--lw-1);" />
        
        <path d="M16830.63,25170.606 L18330.63,25170.606" style="stroke-width:var(--lw-5);" />
        
        <path d="M18260.63,33120.606 L18260.63,33220.606 L18330.63,33220.606 L18330.63,33120.606 Z" style="stroke-width:var(--lw-1);" />
        
        <path d="M17330.63,33120.606 L17330.63,33220.606 L17400.63,33220.606 L17400.63,33120.606 Z" style="stroke-width:var(--lw-1);" />
        
        <path d="M22470.63,30870.606 L24000.63,30870.606 L24000.63,29340.606" style="stroke-width:var(--lw-1);" />
        
        <path d="M24350.63,31220.606 L24250.63,31220.606 L24250.63,29340.606 L24350.63,29340.606 Z" style="stroke-width:var(--lw-1);" />
        
        <path d="M24250.63,29410.606 L24350.63,29410.606 L24350.63,29340.606 L24250.63,29340.606 Z" style="stroke-width:var(--lw-1);" />
        
        <path d="M24250.63,31050.606 L24350.63,31050.606 L24350.63,31120.606 L24250.63,31120.606 Z" style="stroke-width:var(--lw-1);" />
        
        <path d="M24350.63,31220.606 L24350.63,31120.606 L22470.63,31120.606 L22470.63,31220.606 Z" style="stroke-width:var(--lw-1);" />
        
        <path d="M22540.63,31120.606 L22540.63,31220.606 L22470.63,31220.606 L22470.63,31120.606 Z" style="stroke-width:var(--lw-1);" />
        
        <path d="M24180.63,31120.606 L24180.63,31220.606 L24250.63,31220.606 L24250.63,31120.606 Z" style="stroke-width:var(--lw-1);" />
        
        <path d="M13900.63,28520.606 L14000.63,28520.606 L14000.63,29520.606 L13900.63,29520.606 Z" style="stroke-width:var(--lw-1);" />
        
        <path d="M14000.63,29450.606 L13900.63,29450.606 L13900.63,29520.606 L14000.63,29520.606 Z" style="stroke-width:var(--lw-1);" />
        
        <path d="M14000.63,28520.606 L13900.63,28520.606 L13900.63,28590.606 L14000.63,28590.606 Z" style="stroke-width:var(--lw-1);" />
        
        <path d="M24470.63,26170.606 L24470.63,27170.606" style="stroke-width:var(--lw-5);" />
        
        <path d="M24000.63,26170.606 L24000.63,27170.606" style="stroke-width:var(--lw-1);" />
        
        <path d="M24350.63,27170.606 L24250.63,27170.606 L24250.63,26170.606 L24350.63,26170.606 Z" style="stroke-width:var(--lw-1);" />
        
        <path d="M24250.63,26240.606 L24350.63,26240.606 L24350.63,26170.606 L24250.63,26170.606 Z" style="stroke-width:var(--lw-1);" />
        
        <path d="M24250.63,27170.606 L24350.63,27170.606 L24350.63,27100.606 L24250.63,27100.606 Z" style="stroke-width:var(--lw-1);" />
        
        <path d="M22470.63,22470.606 L24000.63,22470.606 L24000.63,24000.606" style="stroke-width:var(--lw-1);" />
        
        <path d="M24350.63,22120.606 L24250.63,22120.606 L24250.63,24000.606 L24350.63,24000.606 Z" style="stroke-width:var(--lw-1);" />
        
        <path d="M24250.63,23930.606 L24350.63,23930.606 L24350.63,24000.606 L24250.63,24000.606 Z" style="stroke-width:var(--lw-1);" />
        
        <path d="M24250.63,22290.606 L24350.63,22290.606 L24350.63,22220.606 L24250.63,22220.606 Z" style="stroke-width:var(--lw-1);" />
        
        <path d="M24350.63,22120.606 L24350.63,22220.606 L22470.63,22220.606 L22470.63,22120.606 Z" style="stroke-width:var(--lw-1);" />
        
        <path d="M22540.63,22220.606 L22540.63,22120.606 L22470.63,22120.606 L22470.63,22220.606 Z" style="stroke-width:var(--lw-1);" />
        
        <path d="M24180.63,22220.606 L24180.63,22120.606 L24250.63,22120.606 L24250.63,22220.606 Z" style="stroke-width:var(--lw-1);" />
        
        <path d="M24470.63,24000.606 L24470.63,22000.606 L22470.63,22000.606" style="stroke-width:var(--lw-5);" />
        
        <path d="M21420.63,22000.606 L19920.63,22000.606" style="stroke-width:var(--lw-5);" />
        
        <path d="M21420.63,22470.606 L19920.63,22470.606" style="stroke-width:var(--lw-1);" />
        
        <path d="M21420.63,22120.606 L21420.63,22220.606 L19920.63,22220.606 L19920.63,22120.606 Z" style="stroke-width:var(--lw-1);" />
        
        <path d="M20990.63,22220.606 L20990.63,22120.606 L20920.63,22120.606 L20920.63,22220.606 Z" style="stroke-width:var(--lw-1);" />
        
        <path d="M21350.63,22220.606 L21350.63,22120.606 L21420.63,22120.606 L21420.63,22220.606 Z" style="stroke-width:var(--lw-1);" />
        
        <path d="M19990.63,22220.606 L19990.63,22120.606 L19920.63,22120.606 L19920.63,22220.606 Z" style="stroke-width:var(--lw-1);" />
        
        <path d="M20920.63,22220.606 L20920.63,22120.606 L20850.63,22120.606 L20850.63,22220.606 Z" style="stroke-width:var(--lw-1);" />
        
        <path d="M13900.63,24820.606 L13900.63,24920.606 L15780.63,24920.606 L15780.63,24820.606 Z" style="stroke-width:var(--lw-1);" />
        
        <path d="M15710.63,24920.606 L15710.63,24820.606 L15780.63,24820.606 L15780.63,24920.606 Z" style="stroke-width:var(--lw-1);" />
        
        <path d="M14070.63,24920.606 L14070.63,24820.606 L14000.63,24820.606 L14000.63,24920.606 Z" style="stroke-width:var(--lw-1);" />
        
        <path d="M13900.63,24820.606 L14000.63,24820.606 L14000.63,26700.606 L13900.63,26700.606 Z" style="stroke-width:var(--lw-1);" />
        
        <path d="M14000.63,26630.606 L13900.63,26630.606 L13900.63,26700.606 L14000.63,26700.606 Z" style="stroke-width:var(--lw-1);" />
        
        <path d="M14000.63,24990.606 L13900.63,24990.606 L13900.63,24920.606 L14000.63,24920.606 Z" style="stroke-width:var(--lw-1);" />
        
        <path d="M19920.63,30870.606 L21420.63,30870.606" style="stroke-width:var(--lw-1);" />
        
        <path d="M19920.63,31120.606 L19920.63,31220.606 L19970.63,31220.606 L19970.63,31120.606 Z" style="stroke-width:var(--lw-1);" />
        
        <path d="M20870.63,31120.606 L20870.63,31220.606 L20920.63,31220.606 L20920.63,31120.606 Z" style="stroke-width:var(--lw-1);" />
        
        <path d="M19970.63,31220.606 L19970.63,32120.606" style="stroke-width:var(--lw-1);" />
        
        <path d="M20870.63,31220.6039 A900,900 0 0,1 19970.63,32120.606" style="stroke-width:var(--lw-1);" />
        
        <path d="M21420.63,31220.606 L21420.63,31120.606 L20920.63,31120.606 L20920.63,31220.606 Z" style="stroke-width:var(--lw-1);" />
        
        <path d="M20990.63,31120.606 L20990.63,31220.606 L20920.63,31220.606 L20920.63,31120.606 Z" style="stroke-width:var(--lw-1);" />
        
        <path d="M21350.63,31120.606 L21350.63,31220.606 L21420.63,31220.606 L21420.63,31120.606 Z" style="stroke-width:var(--lw-1);" />
        
        <path d="M18330.63,24920.606 L18330.63,24820.606 L18280.63,24820.606 L18280.63,24920.606 Z" style="stroke-width:var(--lw-1);" />
        
        <path d="M17380.63,24920.606 L17380.63,24820.606 L17330.63,24820.606 L17330.63,24920.606 Z" style="stroke-width:var(--lw-1);" />
        
        <path d="M18280.63,24820.606 L18280.63,23920.606" style="stroke-width:var(--lw-1);" />
        
        <path d="M17380.63,24820.6081 A900,900 0 0,1 18280.63,23920.606" style="stroke-width:var(--lw-1);" />
        
        <path d="M16830.63,24820.606 L16830.63,24920.606 L17330.63,24920.606 L17330.63,24820.606 Z" style="stroke-width:var(--lw-1);" />
        
        <path d="M17260.63,24920.606 L17260.63,24820.606 L17330.63,24820.606 L17330.63,24920.606 Z" style="stroke-width:var(--lw-1);" />
        
        <path d="M16900.63,24920.606 L16900.63,24820.606 L16830.63,24820.606 L16830.63,24920.606 Z" style="stroke-width:var(--lw-1);" />
        
        <path d="M11350.63,22120.606 L11250.63,22120.606 L11250.63,24000.606 L11350.63,24000.606 Z" style="stroke-width:var(--lw-1);" />
        
        <path d="M11250.63,23930.606 L11350.63,23930.606 L11350.63,24000.606 L11250.63,24000.606 Z" style="stroke-width:var(--lw-1);" />
        
        <path d="M11250.63,22290.606 L11350.63,22290.606 L11350.63,22220.606 L11250.63,22220.606 Z" style="stroke-width:var(--lw-1);" />
        
        <path d="M11350.63,22120.606 L11350.63,22220.606 L9470.63,22220.606 L9470.63,22120.606 Z" style="stroke-width:var(--lw-1);" />
        
        <path d="M9540.63,22220.606 L9540.63,22120.606 L9470.63,22120.606 L9470.63,22220.606 Z" style="stroke-width:var(--lw-1);" />
        
        <path d="M11180.63,22220.606 L11180.63,22120.606 L11250.63,22120.606 L11250.63,22220.606 Z" style="stroke-width:var(--lw-1);" />
        
        <path d="M11470.63,24000.606 L11470.63,22000.606 L9470.63,22000.606" style="stroke-width:var(--lw-5);" />
        
        <path d="M8420.63,22000.606 L6920.63,22000.606" style="stroke-width:var(--lw-5);" />
        
        <path d="M8420.63,22120.606 L8420.63,22220.606 L6920.63,22220.606 L6920.63,22120.606 Z" style="stroke-width:var(--lw-1);" />
        
        <path d="M7990.63,22220.606 L7990.63,22120.606 L7920.63,22120.606 L7920.63,22220.606 Z" style="stroke-width:var(--lw-1);" />
        
        <path d="M8350.63,22220.606 L8350.63,22120.606 L8420.63,22120.606 L8420.63,22220.606 Z" style="stroke-width:var(--lw-1);" />
        
        <path d="M6990.63,22220.606 L6990.63,22120.606 L6920.63,22120.606 L6920.63,22220.606 Z" style="stroke-width:var(--lw-1);" />
        
        <path d="M7920.63,22220.606 L7920.63,22120.606 L7850.63,22120.606 L7850.63,22220.606 Z" style="stroke-width:var(--lw-1);" />
        
        <path d="M6920.63,31120.606 L6920.63,31220.606 L6970.63,31220.606 L6970.63,31120.606 Z" style="stroke-width:var(--lw-1);" />
        
        <path d="M7870.63,31120.606 L7870.63,31220.606 L7920.63,31220.606 L7920.63,31120.606 Z" style="stroke-width:var(--lw-1);" />
        
        <path d="M6970.63,31220.606 L6970.63,32120.606" style="stroke-width:var(--lw-1);" />
        
        <path d="M7870.63,31220.6039 A900,900 0 0,1 6970.63,32120.606" style="stroke-width:var(--lw-1);" />
        
        <path d="M8420.63,31220.606 L8420.63,31120.606 L7920.63,31120.606 L7920.63,31220.606 Z" style="stroke-width:var(--lw-1);" />
        
        <path d="M7990.63,31120.606 L7990.63,31220.606 L7920.63,31220.606 L7920.63,31120.606 Z" style="stroke-width:var(--lw-1);" />
        
        <path d="M8350.63,31120.606 L8350.63,31220.606 L8420.63,31220.606 L8420.63,31120.606 Z" style="stroke-width:var(--lw-1);" />
        
        <path d="M11470.63,26170.606 L11470.63,27170.606" style="stroke-width:var(--lw-5);" />
        
        <path d="M11350.63,27170.606 L11250.63,27170.606 L11250.63,26170.606 L11350.63,26170.606 Z" style="stroke-width:var(--lw-1);" />
        
        <path d="M11250.63,26240.606 L11350.63,26240.606 L11350.63,26170.606 L11250.63,26170.606 Z" style="stroke-width:var(--lw-1);" />
        
        <path d="M11250.63,27170.606 L11350.63,27170.606 L11350.63,27100.606 L11250.63,27100.606 Z" style="stroke-width:var(--lw-1);" />
        
        <path d="M11350.63,31220.606 L11250.63,31220.606 L11250.63,29340.606 L11350.63,29340.606 Z" style="stroke-width:var(--lw-1);" />
        
        <path d="M11250.63,29410.606 L11350.63,29410.606 L11350.63,29340.606 L11250.63,29340.606 Z" style="stroke-width:var(--lw-1);" />
        
        <path d="M11250.63,31050.606 L11350.63,31050.606 L11350.63,31120.606 L11250.63,31120.606 Z" style="stroke-width:var(--lw-1);" />
        
        <path d="M11350.63,31220.606 L11350.63,31120.606 L9470.63,31120.606 L9470.63,31220.606 Z" style="stroke-width:var(--lw-1);" />
        
        <path d="M9540.63,31120.606 L9540.63,31220.606 L9470.63,31220.606 L9470.63,31120.606 Z" style="stroke-width:var(--lw-1);" />
        
        <path d="M11180.63,31120.606 L11180.63,31220.606 L11250.63,31220.606 L11250.63,31120.606 Z" style="stroke-width:var(--lw-1);" />
        
        <path d="M5330.63,32870.606 L5330.63,33340.606" style="stroke-width:var(--lw-6);" />
        
        <path d="M3830.63,32870.606 L3830.63,33340.606" style="stroke-width:var(--lw-6);" />
        
        <path d="M2780.63,32870.606 L2780.63,33340.606" style="stroke-width:var(--lw-6);" />
        
        <path d="M1250.63,31340.606 L780.63,31340.606" style="stroke-width:var(--lw-6);" />
        
        <path d="M900.63,33220.606 L1000.63,33220.606 L1000.63,31340.606 L900.63,31340.606 Z" style="stroke-width:var(--lw-1);" />
        
        <path d="M1000.63,31410.606 L900.63,31410.606 L900.63,31340.606 L1000.63,31340.606 Z" style="stroke-width:var(--lw-1);" />
        
        <path d="M1000.63,33050.606 L900.63,33050.606 L900.63,33120.606 L1000.63,33120.606 Z" style="stroke-width:var(--lw-1);" />
        
        <path d="M900.63,33220.606 L900.63,33120.606 L2780.63,33120.606 L2780.63,33220.606 Z" style="stroke-width:var(--lw-1);" />
        
        <path d="M2710.63,33120.606 L2710.63,33220.606 L2780.63,33220.606 L2780.63,33120.606 Z" style="stroke-width:var(--lw-1);" />
        
        <path d="M1070.63,33120.606 L1070.63,33220.606 L1000.63,33220.606 L1000.63,33120.606 Z" style="stroke-width:var(--lw-1);" />
        
        <path d="M780.63,31340.606 L780.63,33340.606 L2780.63,33340.606" style="stroke-width:var(--lw-5);" />
        
        <path d="M3830.63,33340.606 L5330.63,33340.606" style="stroke-width:var(--lw-5);" />
        
        <path d="M3830.63,33220.606 L3830.63,33120.606 L5330.63,33120.606 L5330.63,33220.606 Z" style="stroke-width:var(--lw-1);" />
        
        <path d="M4260.63,33120.606 L4260.63,33220.606 L4330.63,33220.606 L4330.63,33120.606 Z" style="stroke-width:var(--lw-1);" />
        
        <path d="M3900.63,33120.606 L3900.63,33220.606 L3830.63,33220.606 L3830.63,33120.606 Z" style="stroke-width:var(--lw-1);" />
        
        <path d="M5260.63,33120.606 L5260.63,33220.606 L5330.63,33220.606 L5330.63,33120.606 Z" style="stroke-width:var(--lw-1);" />
        
        <path d="M4330.63,33120.606 L4330.63,33220.606 L4400.63,33220.606 L4400.63,33120.606 Z" style="stroke-width:var(--lw-1);" />
        
        <path d="M780.63,29520.606 L780.63,28520.606" style="stroke-width:var(--lw-5);" />
        
        <path d="M900.63,24820.606 L1000.63,24820.606 L1000.63,26700.606 L900.63,26700.606 Z" style="stroke-width:var(--lw-1);" />
        
        <path d="M1000.63,26630.606 L900.63,26630.606 L900.63,26700.606 L1000.63,26700.606 Z" style="stroke-width:var(--lw-1);" />
        
        <path d="M1000.63,24990.606 L900.63,24990.606 L900.63,24920.606 L1000.63,24920.606 Z" style="stroke-width:var(--lw-1);" />
        
        <path d="M900.63,24820.606 L900.63,24920.606 L2780.63,24920.606 L2780.63,24820.606 Z" style="stroke-width:var(--lw-1);" />
        
        <path d="M2710.63,24920.606 L2710.63,24820.606 L2780.63,24820.606 L2780.63,24920.606 Z" style="stroke-width:var(--lw-1);" />
        
        <path d="M1070.63,24920.606 L1070.63,24820.606 L1000.63,24820.606 L1000.63,24920.606 Z" style="stroke-width:var(--lw-1);" />
        
        <path d="M780.63,26700.606 L780.63,24700.606 L2780.63,24700.606" style="stroke-width:var(--lw-5);" />
        
        <path d="M1250.63,26700.606 L1250.63,25170.606 L2780.63,25170.606" style="stroke-width:var(--lw-1);" />
        
        <path d="M1000.63,28520.606 L900.63,28520.606 L900.63,28570.606 L1000.63,28570.606 Z" style="stroke-width:var(--lw-1);" />
        
        <path d="M1000.63,29470.606 L900.63,29470.606 L900.63,29520.606 L1000.63,29520.606 Z" style="stroke-width:var(--lw-1);" />
        
        <path d="M900.63,28570.606 L0.63,28570.606" style="stroke-width:var(--lw-1);" />
        
        <path d="M900.6321,29470.606 A900,900 0 0,1 0.63,28570.606" style="stroke-width:var(--lw-1);" />
        
        <path d="M2900.63,22120.606 L3000.63,22120.606 L3000.63,23500.606 L2900.63,23500.606 Z" style="stroke-width:var(--lw-1);" />
        
        <path d="M3000.63,23430.606 L2900.63,23430.606 L2900.63,23500.606 L3000.63,23500.606 Z" style="stroke-width:var(--lw-1);" />
        
        <path d="M3000.63,22290.606 L2900.63,22290.606 L2900.63,22220.606 L3000.63,22220.606 Z" style="stroke-width:var(--lw-1);" />
        
        <path d="M2900.63,22120.606 L2900.63,22220.606 L3780.63,22220.606 L3780.63,22120.606 Z" style="stroke-width:var(--lw-1);" />
        
        <path d="M3710.63,22220.606 L3710.63,22120.606 L3780.63,22120.606 L3780.63,22220.606 Z" style="stroke-width:var(--lw-1);" />
        
        <path d="M3070.63,22220.606 L3070.63,22120.606 L3000.63,22120.606 L3000.63,22220.606 Z" style="stroke-width:var(--lw-1);" />
        
        <path d="M15250.63,26295.606 L14250.63,26295.606" style="stroke-width:var(--lw-1);" />
        
        <path d="M15250.63,26045.606 L14250.63,26045.606" style="stroke-width:var(--lw-1);" />
        
        <path d="M17130.63,29420.606 L17250.63,29420.606" style="stroke-width:var(--lw-5);" />
        
        <path d="M17130.63,28620.606 L17250.63,28620.606" style="stroke-width:var(--lw-5);" />
        
        <path d="M4430.63,27290.606 L4430.63,27190.606 L4480.63,27190.606 L4480.63,27290.606 Z" style="stroke-width:var(--lw-1);" />
        
        <path d="M5280.63,27290.606 L5280.63,27190.606 L5330.63,27190.606 L5330.63,27290.606 Z" style="stroke-width:var(--lw-1);" />
        
        <path d="M5330.63,30370.606 L5330.63,30270.606 L5280.63,30270.606 L5280.63,30370.606 Z" style="stroke-width:var(--lw-1);" />
        
        <path d="M4480.63,30370.606 L4480.63,30270.606 L4430.63,30270.606 L4430.63,30370.606 Z" style="stroke-width:var(--lw-1);" />
        
        <path d="M5280.63,30370.606 L5280.63,31170.606" style="stroke-width:var(--lw-1);" />
        
        <path d="M5280.63,31170.606 A800,800 0 0,1 4480.63,30370.6041" style="stroke-width:var(--lw-1);" />
        
        <path d="M4210.63,29420.606 L4310.63,29420.606 L4310.63,29370.606 L4210.63,29370.606 Z" style="stroke-width:var(--lw-1);" />
        
        <path d="M4210.63,28670.606 L4310.63,28670.606 L4310.63,28620.606 L4210.63,28620.606 Z" style="stroke-width:var(--lw-1);" />
        
        <path d="M4210.63,29370.606 L3510.63,29370.606" style="stroke-width:var(--lw-1);" />
        
        <path d="M3510.63,29370.606 A700,700 0 0,1 4210.6316,28670.606" style="stroke-width:var(--lw-1);" />
        
        <path d="M5330.63,22220.606 L5330.63,22120.606 L5280.63,22120.606 L5280.63,22220.606 Z" style="stroke-width:var(--lw-1);" />
        
        <path d="M4380.63,22220.606 L4380.63,22120.606 L4330.63,22120.606 L4330.63,22220.606 Z" style="stroke-width:var(--lw-1);" />
        
        <path d="M5280.63,22120.606 L5280.63,21220.606" style="stroke-width:var(--lw-1);" />
        
        <path d="M4380.63,22120.6081 A900,900 0 0,1 5280.63,21220.606" style="stroke-width:var(--lw-1);" />
        
        <path d="M7820.63,22612.3608 A100,100 0 0 1 7920.63,22712.3608 L7920.63,22862.3608 A100,100 0 0 1 7820.63,22962.3608 L7520.63,22962.3608 A100,100 0 0 1 7420.63,22862.3608 L7420.63,22712.3608 A100,100 0 0 1 7520.63,22612.3608 Z" style="stroke-width:var(--lw-3);" />
        
        <circle cx="6463.779" cy="23855.1009" r="100" style="stroke-width:var(--lw-3);" />
        
        <circle cx="6713.779" cy="23855.1009" r="75" style="stroke-width:var(--lw-3);" />
        
        <circle cx="6713.779" cy="24105.1009" r="100" style="stroke-width:var(--lw-3);" />
        
        <circle cx="6463.779" cy="24105.1009" r="75" style="stroke-width:var(--lw-3);" />
        
        <path d="M5280.63,27290.606 L5280.63,28090.606" style="stroke-width:var(--lw-1);" />
        
        <path d="M5280.63,28090.606 A800,800 0 0,1 4480.63,27290.6041" style="stroke-width:var(--lw-1);" />
        
        <path d="M2505.63,31270.606 L2505.63,30370.606 L4105.63,30370.606 L4105.63,31270.606 Z" style="stroke-width:var(--lw-3);" />
        
        <path d="M4105.63,30620.606 L2505.63,30620.606" style="stroke-width:var(--lw-3);" />
        
        <path d="M3305.63,31270.606 L3305.63,30620.606" style="stroke-width:var(--lw-3);" />
        
        <path d="M8420.63,33640.606 L8420.63,32740.606 L10720.63,32740.606 L10720.63,33640.606 Z" style="stroke-width:var(--lw-3);" />
        
        <path d="M9495.63,32290.606 L9495.63,32640.606 L9095.63,32640.606 L9095.63,32290.606 Z" style="stroke-width:var(--lw-3);" />
        
        <path d="M8945.63,32290.606 L8945.63,32640.606 L8545.63,32640.606 L8545.63,32290.606 Z" style="stroke-width:var(--lw-3);" />
        
        <path d="M9645.63,32290.606 L9645.63,32640.606 L10045.63,32640.606 L10045.63,32290.606 Z" style="stroke-width:var(--lw-3);" />
        
        <path d="M10195.63,32290.606 L10195.63,32640.606 L10595.63,32640.606 L10595.63,32290.606 Z" style="stroke-width:var(--lw-3);" />
        
        <path d="M9495.63,34090.606 L9495.63,33740.606 L9095.63,33740.606 L9095.63,34090.606 Z" style="stroke-width:var(--lw-3);" />
        
        <path d="M8945.63,34090.606 L8945.63,33740.606 L8545.63,33740.606 L8545.63,34090.606 Z" style="stroke-width:var(--lw-3);" />
        
        <path d="M9645.63,34090.606 L9645.63,33740.606 L10045.63,33740.606 L10045.63,34090.606 Z" style="stroke-width:var(--lw-3);" />
        
        <path d="M10195.63,34090.606 L10195.63,33740.606 L10595.63,33740.606 L10595.63,34090.606 Z" style="stroke-width:var(--lw-3);" />
        
        <path d="M3760.63,24860.606 L3760.63,23500.606 L3310.63,23500.606 L3310.63,24860.606 Z" style="stroke-width:var(--lw-3);" />
        
        <path d="M21610.63,27670.606 L21610.63,29770.606 L23410.63,29770.606 L23410.63,27670.606 Z" style="stroke-width:var(--lw-3);" />
        
        <path d="M21020.63,28070.606 L21020.63,27670.606 L24000.63,27670.606 L24000.63,28070.606 Z" style="stroke-width:var(--lw-3);" />
        
        <path d="M19250.63,29640.606 L19850.63,27670.606" style="stroke-width:var(--lw-3);" />
        
        <path d="M19250.63,27670.606 L19850.63,29640.606" style="stroke-width:var(--lw-3);" />
        
        <path d="M19920.63,27670.606 L19920.63,27570.606 L19970.63,27570.606 L19970.63,27670.606 Z" style="stroke-width:var(--lw-1);" />
        
        <path d="M20770.63,27670.606 L20770.63,27570.606 L20820.63,27570.606 L20820.63,27670.606 Z" style="stroke-width:var(--lw-1);" />
        
        <path d="M19970.63,27670.606 L19970.63,28470.606" style="stroke-width:var(--lw-1);" />
        
        <path d="M20770.63,27670.6041 A800,800 0 0,1 19970.63,28470.606" style="stroke-width:var(--lw-1);" />
        
        <path d="M18400.63,29520.606 L19000.63,27290.606" style="stroke-width:var(--lw-3);" />
        
        <path d="M19000.63,29520.606 L18400.63,27290.606" style="stroke-width:var(--lw-3);" />
        
        <path d="M17430.63,27290.606 L17430.63,27190.606 L17480.63,27190.606 L17480.63,27290.606 Z" style="stroke-width:var(--lw-1);" />
        
        <path d="M18280.63,27290.606 L18280.63,27190.606 L18330.63,27190.606 L18330.63,27290.606 Z" style="stroke-width:var(--lw-1);" />
        
        <path d="M17480.63,27290.606 L17480.63,28090.606" style="stroke-width:var(--lw-1);" />
        
        <path d="M18280.63,27290.6041 A800,800 0 0,1 17480.63,28090.606" style="stroke-width:var(--lw-1);" />
        
        <path d="M17130.63,29420.606 L17230.63,29420.606 L17230.63,29370.606 L17130.63,29370.606 Z" style="stroke-width:var(--lw-1);" />
        
        <path d="M17130.63,28670.606 L17230.63,28670.606 L17230.63,28620.606 L17130.63,28620.606 Z" style="stroke-width:var(--lw-1);" />
        
        <path d="M17130.63,29370.606 L16430.63,29370.606" style="stroke-width:var(--lw-1);" />
        
        <path d="M16430.63,29370.606 A700,700 0 0,1 17130.6316,28670.606" style="stroke-width:var(--lw-1);" />
        
        <path d="M14840.63,29640.606 L14840.63,31740.606 L16640.63,31740.606 L16640.63,29640.606 Z" style="stroke-width:var(--lw-3);" />
        
        <path d="M14250.63,30040.606 L14250.63,29640.606 L17230.63,29640.606 L17230.63,30040.606 Z" style="stroke-width:var(--lw-3);" />
        
        <path d="M18400.63,32870.606 L18400.63,29640.606" style="stroke-width:var(--lw-3);" />
        
        <path d="M18400.63,32190.606 L18100.63,32190.606 L18100.63,31740.606 L18400.63,31740.606" style="stroke-width:var(--lw-3);" />
        
        <path d="M19250.63,29640.606 L19850.63,29640.606" style="stroke-width:var(--lw-3);" />
        
        <path d="M19850.63,30030.606 L20150.63,30030.606 L20150.63,30480.606 L19850.63,30480.606" style="stroke-width:var(--lw-3);" />
        
        <path d="M19850.63,25550.606 L19850.63,22470.606" style="stroke-width:var(--lw-3);" />
        
        <path d="M19920.63,25550.606 L19920.63,25650.606 L19970.63,25650.606 L19970.63,25550.606 Z" style="stroke-width:var(--lw-1);" />
        
        <path d="M20770.63,25550.606 L20770.63,25650.606 L20820.63,25650.606 L20820.63,25550.606 Z" style="stroke-width:var(--lw-1);" />
        
        <path d="M19970.63,25550.606 L19970.63,24750.606" style="stroke-width:var(--lw-1);" />
        
        <path d="M19970.63,24750.606 A800,800 0 0,1 20770.63,25550.6078" style="stroke-width:var(--lw-1);" />
        
        <path d="M15543.13,27788.106 L15543.13,27490.606 L15178.13,27490.606 L15178.13,27788.106 A182.5,182.5 0 0 0 15543.13,27788.106" style="stroke-width:var(--lw-3);" />
        
        <path d="M14250.63,27490.606 L15810.63,27490.606" style="stroke-width:var(--lw-3);" />
        
        <path d="M14250.63,27490.606 L14250.63,29520.606 L14700.63,29520.606 L14700.63,27490.606 Z" style="stroke-width:var(--lw-3);" />
        
        <path d="M14650.63,28845.606 A75,75 0 0 0 14575.63,28770.606 L14375.63,28770.606 A75,75 0 0 0 14300.63,28845.606 L14300.63,29195.606 A75,75 0 0 0 14375.63,29270.606 L14575.63,29270.606 A75,75 0 0 0 14650.63,29195.606 Z" style="stroke-width:var(--lw-3);" />
        
        <circle cx="17030.63" cy="27790.606" r="25" style="stroke-width:var(--lw-3);" />
        
        <path d="M22545.63,23450.606 L21345.63,23450.606 L21345.63,25550.606 L22545.63,25550.606 Z" style="stroke-width:var(--lw-3);" />
        
        <path d="M21020.63,25550.606 L21020.63,25150.606 L24000.63,25150.606 L24000.63,25550.606 Z" style="stroke-width:var(--lw-3);" />
        
        <path d="M19850.63,24010.606 L19250.63,24010.606" style="stroke-width:var(--lw-3);" />
        
        <path d="M19850.63,24010.606 L19250.63,25550.606" style="stroke-width:var(--lw-3);" />
        
        <path d="M19850.63,25550.606 L19250.63,24010.606" style="stroke-width:var(--lw-3);" />
        
        <path d="M19850.63,23015.606 L20150.63,23015.606 L20150.63,23465.606 L19850.63,23465.606" style="stroke-width:var(--lw-3);" />
        
        <path d="M22444.7103,22645.606 L22444.7103,22570.606 L21444.7103,22570.606 L21444.7103,22645.606 Z" style="stroke-width:var(--lw-3);" />
        
        <path d="M21446.5497,30695.606 L21446.5497,30770.606 L22446.5497,30770.606 L22446.5497,30695.606 Z" style="stroke-width:var(--lw-3);" />
        
        <path d="M15806.5497,32695.606 L15806.5497,32770.606 L16806.5497,32770.606 L16806.5497,32695.606 Z" style="stroke-width:var(--lw-3);" />
        
        <path d="M15810.63,27290.606 L15810.63,28290.606 L15930.63,28290.606 L15930.63,27290.606" style="stroke-width:var(--lw-5);" />
        
        <path d="M6425.63,29870.606 L6350.63,29870.606 L6350.63,28170.606 L6425.63,28170.606 Z" style="stroke-width:var(--lw-3);" />
        
        <path d="M2806.5497,32695.606 L2806.5497,32770.606 L3806.5497,32770.606 L3806.5497,32695.606 Z" style="stroke-width:var(--lw-3);" />
        
        <path d="M1250.63,30370.606 L1850.63,30370.606 L1850.63,32870.606 L1250.63,32870.606 Z" style="stroke-width:var(--lw-3);" />
        
        <path d="M1850.63,32317.8728 L2150.63,32317.8728 L2150.63,31867.8728 L1850.63,31867.8728" style="stroke-width:var(--lw-3);" />
        
        <path d="M21000.63,27550.606 L21000.63,27010.606" style="stroke-width:var(--lw-5);" />
        
        <path d="M21000.63,26210.606 L21000.63,25670.606" style="stroke-width:var(--lw-5);" />
        
        <path d="M21120.63,27550.606 L21120.63,27010.606" style="stroke-width:var(--lw-5);" />
        
        <path d="M21120.63,26210.606 L21120.63,25670.606" style="stroke-width:var(--lw-5);" />
        
        <path d="M21000.63,26210.606 L21120.63,26210.606" style="stroke-width:var(--lw-5);" />
        
        <path d="M21000.63,27010.606 L21120.63,27010.606" style="stroke-width:var(--lw-5);" />
        
        <path d="M21120.63,27010.606 L21020.63,27010.606 L21020.63,26960.606 L21120.63,26960.606 Z" style="stroke-width:var(--lw-1);" />
        
        <path d="M21120.63,26260.606 L21020.63,26260.606 L21020.63,26210.606 L21120.63,26210.606 Z" style="stroke-width:var(--lw-1);" />
        
        <path d="M21120.63,26260.606 L21820.63,26260.606" style="stroke-width:var(--lw-1);" />
        
        <path d="M21820.63,26260.606 A700,700 0 0,1 21120.6284,26960.606" style="stroke-width:var(--lw-1);" />
        
        <path d="M22343.13,26168.106 L22343.13,25870.606 L21978.13,25870.606 L21978.13,26168.106 A182.5,182.5 0 0 0 22343.13,26168.106" style="stroke-width:var(--lw-3);" />
        
        <path d="M21120.63,25870.606 L23200.63,25870.606" style="stroke-width:var(--lw-3);" />
        
        <path d="M21120.63,27550.606 L23200.63,27550.606 L23200.63,27100.606 L21120.63,27100.606 Z" style="stroke-width:var(--lw-3);" />
        
        <path d="M21985.63,27150.606 A75,75 0 0 0 21910.63,27225.606 L21910.63,27425.606 A75,75 0 0 0 21985.63,27500.606 L22335.63,27500.606 A75,75 0 0 0 22410.63,27425.606 L22410.63,27225.606 A75,75 0 0 0 22335.63,27150.606 Z" style="stroke-width:var(--lw-3);" />
        
        <path d="M24000.63,27550.606 L24000.63,25670.606 L23200.63,25670.606 L23200.63,27550.606 Z" style="stroke-width:var(--lw-3);" />
        
        <path d="M23200.63,25670.606 L23200.63,27550.606" style="stroke-width:var(--lw-3);" />
        
        <circle cx="23600.63" cy="27339.176" r="25" style="stroke-width:var(--lw-3);" />
        
        <path d="M23850.63,25850.606 L23350.63,25850.606 A50,50 0 0 0 23300.63,25900.606 L23300.63,27400.606 A50,50 0 0 0 23350.63,27450.606 L23850.63,27450.606 A50,50 0 0 0 23900.63,27400.606 L23900.63,25900.606 A50,50 0 0 0 23850.63,25850.606" style="stroke-width:var(--lw-3);" />
        
        <path d="M15880.63,24700.606 L15880.63,20100.606 L19820.63,20100.606 L19820.63,22000.606" style="stroke-width:var(--lw-1);" />
        
        <path d="M18430.63,33340.606 L18430.63,35240.606 L24370.63,35240.606 L24370.63,31340.606" style="stroke-width:var(--lw-1);" />
        
        <text dx="0" dy="200" fill="var(--text-color)" font-size="var(--dxf-big-font)" line-height="1.1" text-anchor="middle" transform="translate(3203.1524,31891.8035) translate(0,100) scale(1,-1)" x="0" y="0">11.9</text>

        <text dx="0" dy="200" fill="var(--text-color)" font-size="var(--dxf-big-font)" line-height="1.1" text-anchor="middle" transform="translate(2063.0738,28902.8384) translate(0,100) scale(1,-1)" x="0" y="0">5.2</text>

        
        <text dx="0" dy="200" fill="var(--text-color)" font-size="var(--dxf-big-font)" line-height="1.1" text-anchor="middle" transform="translate(3765.5112,28304.7985) translate(0,100) scale(1,-1)" x="0" y="0">3.2</text>

        <text dx="0" dy="200" fill="var(--text-color)" font-size="var(--dxf-big-font)" line-height="1.1" text-anchor="middle" transform="translate(4797.6273,28902.8384) translate(0,100) scale(1,-1)" x="0" y="0">4.9</text>

        
        <text dx="0" dy="200" fill="var(--text-color)" font-size="var(--dxf-big-font)" line-height="1.1" text-anchor="middle" transform="translate(4799.9711,26158.8639) translate(0,100) scale(1,-1)" x="0" y="0">9.5</text>

        <text dx="0" dy="200" fill="var(--text-color)" font-size="var(--dxf-big-font)" line-height="1.1" text-anchor="middle" transform="translate(4799.6936,23700.2338) translate(0,100) scale(1,-1)" x="0" y="0">6.7</text>

        <text dx="0" dy="200" fill="var(--text-color)" font-size="var(--dxf-big-font)" line-height="1.1" text-anchor="middle" transform="translate(8671.0972,26687.4912) translate(0,100) scale(1,-1)" x="0" y="0">39.9</text>

        <text dx="0" dy="200" fill="var(--text-color)" font-size="var(--dxf-big-font)" line-height="1.1" text-anchor="middle" transform="translate(17443.198,30929.3714) translate(0,100) scale(1,-1)" x="0" y="0">15.3</text>
  
        <text dx="0" dy="200" fill="var(--text-color)" font-size="var(--dxf-big-font)" line-height="1.1" text-anchor="middle" transform="translate(15754.4481,28768.9956) translate(0,100) scale(1,-1)" x="0" y="0">6.4</text>

        <text dx="0" dy="200" fill="var(--text-color)" font-size="var(--dxf-big-font)" line-height="1.1" text-anchor="middle" transform="translate(17758.8195,28768.9956) translate(0,100) scale(1,-1)" x="0" y="0">3.9</text>

        <text dx="0" dy="200" fill="var(--text-color)" font-size="var(--dxf-big-font)" line-height="1.1" text-anchor="middle" transform="translate(20676.6177,29071.0179) translate(0,100) scale(1,-1)" x="0" y="0">15.2</text>

        <text dx="0" dy="200" fill="var(--text-color)" font-size="var(--dxf-big-font)" line-height="1.1" text-anchor="middle" transform="translate(18064.4408,26195.281) translate(0,100) scale(1,-1)" x="0" y="0">3.5</text>

        <text dx="0" dy="200" fill="var(--text-color)" font-size="var(--dxf-big-font)" line-height="1.1" text-anchor="middle" transform="translate(20159.0889,26598.7262) translate(0,100) scale(1,-1)" x="0" y="0">3.3</text>
        
        <text dx="0" dy="200" fill="var(--text-color)" font-size="var(--dxf-big-font)" line-height="1.1" text-anchor="middle" transform="translate(22167.1987,26600.5458) translate(0,100) scale(1,-1)" x="0" y="0">5.4</text>
        
        <text dx="0" dy="200" fill="var(--text-color)" font-size="var(--dxf-big-font)" line-height="1.1" text-anchor="middle" transform="translate(20764.9446,24064.6972) translate(0,100) scale(1,-1)" x="0" y="0">14.6</text>
        
        <path d="M2500.63,25670.606 L2500.63,25170.606" style="stroke-width:var(--lw-1);" />
        
        <path d="M2750.63,26170.606 L2750.63,25170.606" style="stroke-width:var(--lw-1);" />
        
        <path d="M3000.63,26170.606 L3000.63,25170.606" style="stroke-width:var(--lw-1);" />
        
        <path d="M3250.63,26170.606 L3250.63,25170.606" style="stroke-width:var(--lw-1);" />
        
        <path d="M3500.63,26170.606 L3500.63,25170.606" style="stroke-width:var(--lw-1);" />
        
        <path d="M3750.63,26170.606 L3750.63,25170.606" style="stroke-width:var(--lw-1);" />
        
        <path d="M4000.63,26170.606 L4000.63,25170.606" style="stroke-width:var(--lw-1);" />
        
        <path d="M4250.63,26170.606 L2750.63,26170.606" style="stroke-width:var(--lw-1);" />
        
        <path d="M4250.63,26170.606 L4250.63,25170.606" style="stroke-width:var(--lw-1);" />
        
        <path d="M2750.63,25545.606 L2500.63,25670.606 L2750.63,25795.606" style="stroke-width:var(--lw-4);" />
        
        <path d="M4250.63,25670.606 L2500.63,25670.606" style="stroke-width:var(--lw-4);" />
        
        <path d="M2250.63,25170.606 L2750.63,26170.606" style="stroke-width:var(--lw-1);" />
        
        <path d="M17250.63,26670.606 L14750.63,26670.606 L14750.63,25670.606 L17250.63,25670.606" style="stroke-width:var(--lw-4);" />
        
        <path d="M17000.63,26795.606 L17250.63,26670.606 L17000.63,26545.606" style="stroke-width:var(--lw-4);" />
        <text dx="0" dy="200" fill="var(--text-color)" font-size="var(--dxf-big-font)" line-height="1.1" text-anchor="middle" transform="translate(12000,20200) translate(0,110) scale(1,-1)" x="0" y="0"> 1</text>
    </g>
</svg>