<svg xmlns="http://www.w3.org/2000/svg" class="svg-drawing" height="15340mm" version="1.1" viewBox="-299.37 -35640.606 24770.0 15640.0" width="24470mm">
    <g transform="scale(1,-1)">
        
        <path d="M1250.63,27170.606 L2700.63,27170.606" style="stroke-width:var(--lw-5);" />
        
        <path d="M3500.63,27170.606 L4250.63,27170.606" style="stroke-width:var(--lw-5);" />
        
        <path d="M1250.63,27290.606 L2700.63,27290.606" style="stroke-width:var(--lw-5);" />
        
        <path d="M3500.63,27290.606 L4130.63,27290.606" style="stroke-width:var(--lw-5);" />
        
        <path d="M14250.63,27170.606 L17430.63,27170.606" style="stroke-width:var(--lw-5);" />
        
        <path d="M18330.63,27170.606 L19000.63,27170.606" style="stroke-width:var(--lw-5);" />
        
        <path d="M14250.63,27290.606 L17130.63,27290.606" style="stroke-width:var(--lw-5);" />
        
        <path d="M17250.63,27290.606 L17430.63,27290.606" style="stroke-width:var(--lw-5);" />
        
        <path d="M18330.63,27290.606 L19000.63,27290.606" style="stroke-width:var(--lw-5);" />
        
        <path d="M14250.63,29520.606 L17130.63,29520.606" style="stroke-width:var(--lw-5);" />
        
        <path d="M17250.63,29520.606 L17430.63,29520.606" style="stroke-width:var(--lw-5);" />
        
        <path d="M18330.63,29520.606 L19000.63,29520.606" style="stroke-width:var(--lw-5);" />
        
        <path d="M18330.63,29640.606 L19000.63,29640.606" style="stroke-width:var(--lw-5);" />
        
        <path d="M17250.63,27290.606 L17250.63,28620.606" style="stroke-width:var(--lw-5);" />
        
        <path d="M17250.63,29420.606 L17250.63,29520.606" style="stroke-width:var(--lw-5);" />
        
        <path d="M17130.63,27290.606 L17130.63,28620.606" style="stroke-width:var(--lw-5);" />
        
        <path d="M17130.63,29420.606 L17130.63,29520.606" style="stroke-width:var(--lw-5);" />
        
        <path d="M19250.63,27550.606 L19920.63,27550.606" style="stroke-width:var(--lw-5);" />
        
        <path d="M20820.63,27550.606 L21000.63,27550.606" style="stroke-width:var(--lw-5);" />
        
        <path d="M21120.63,27550.606 L24000.63,27550.606" style="stroke-width:var(--lw-5);" />
        
        <path d="M19250.63,27670.606 L19920.63,27670.606" style="stroke-width:var(--lw-5);" />
        
        <path d="M20820.63,27670.606 L24000.63,27670.606" style="stroke-width:var(--lw-5);" />
        
        <path d="M19250.63,25670.606 L19920.63,25670.606" style="stroke-width:var(--lw-5);" />
        
        <path d="M20820.63,25670.606 L21000.63,25670.606" style="stroke-width:var(--lw-5);" />
        
        <path d="M21120.63,25670.606 L24000.63,25670.606" style="stroke-width:var(--lw-5);" />
        
        <path d="M19250.63,25550.606 L19920.63,25550.606" style="stroke-width:var(--lw-5);" />
        
        <path d="M20820.63,25550.606 L24000.63,25550.606" style="stroke-width:var(--lw-5);" />
        
        <path d="M19000.63,30370.606 L19000.63,29640.606" style="stroke-width:var(--lw-5);" />
        
        <path d="M19000.63,29520.606 L19000.63,28520.606" style="stroke-width:var(--lw-5);" />
        
        <path d="M19250.63,30370.606 L19250.63,28520.606" style="stroke-width:var(--lw-5);" />
        
        <path d="M18330.63,29640.606 L18330.63,29520.606" style="stroke-width:var(--lw-5);" />
        
        <path d="M18330.63,27290.606 L18330.63,27170.606" style="stroke-width:var(--lw-5);" />
        
        <path d="M17430.63,29640.606 L17430.63,29520.606" style="stroke-width:var(--lw-5);" />
        
        <path d="M17430.63,27290.606 L17430.63,27170.606" style="stroke-width:var(--lw-5);" />
        
        <path d="M19920.63,27670.606 L19920.63,27550.606" style="stroke-width:var(--lw-5);" />
        
        <path d="M19920.63,25670.606 L19920.63,25550.606" style="stroke-width:var(--lw-5);" />
        
        <path d="M20820.63,27670.606 L20820.63,27550.606" style="stroke-width:var(--lw-5);" />
        
        <path d="M20820.63,25670.606 L20820.63,25550.606" style="stroke-width:var(--lw-5);" />
        
        <path d="M17430.63,29640.606 L14250.63,29640.606" style="stroke-width:var(--lw-5);" />
        
        <path d="M6250.63,30370.606 L6250.63,30870.606 L6920.63,30870.606" style="stroke-width:var(--lw-6);" />
        
        <path d="M8420.63,30870.606 L9470.63,30870.606" style="stroke-width:var(--lw-6);" />
        
        <path d="M11000.63,29340.606 L11000.63,27170.606" style="stroke-width:var(--lw-6);" />
        
        <path d="M11000.63,26170.606 L11000.63,24000.606" style="stroke-width:var(--lw-6);" />
        
        <path d="M9470.63,22470.606 L8420.63,22470.606" style="stroke-width:var(--lw-6);" />
        
        <path d="M6920.63,22470.606 L6250.63,22470.606 L6250.63,25670.606" style="stroke-width:var(--lw-6);" />
        
        <path d="M6250.63,27170.606 L6250.63,28520.606" style="stroke-width:var(--lw-6);" />
        
        <path d="M6000.63,22470.606 L6000.63,24920.606" style="stroke-width:var(--lw-6);" />
        
        <path d="M8420.63,31340.606 L9470.63,31340.606" style="stroke-width:var(--lw-6);" />
        
        <path d="M11470.63,29340.606 L11470.63,27170.606" style="stroke-width:var(--lw-6);" />
        
        <path d="M11470.63,26170.606 L11470.63,24000.606" style="stroke-width:var(--lw-6);" />
        
        <path d="M9470.63,22000.606 L8420.63,22000.606" style="stroke-width:var(--lw-6);" />
        
        <path d="M6920.63,22000.606 L5330.63,22000.606" style="stroke-width:var(--lw-6);" />
        
        <path d="M4330.63,22000.606 L3780.63,22000.606" style="stroke-width:var(--lw-6);" />
        
        <path d="M2780.63,23500.606 L2780.63,24700.606" style="stroke-width:var(--lw-6);" />
        
        <path d="M6000.63,28520.606 L6000.63,27170.606" style="stroke-width:var(--lw-6);" />
        
        <path d="M6000.63,25670.606 L6000.63,25170.606 L5330.63,25170.606" style="stroke-width:var(--lw-6);" />
        
        <path d="M4330.63,25170.606 L2780.63,25170.606" style="stroke-width:var(--lw-6);" />
        
        <path d="M1250.63,26700.606 L1250.63,28520.606" style="stroke-width:var(--lw-6);" />
        
        <path d="M2350.63,27290.606 L2350.63,27950.606" style="stroke-width:var(--lw-3);" />
        
        <path d="M1250.63,29520.606 L1250.63,31340.606" style="stroke-width:var(--lw-6);" />
        
        <path d="M2780.63,32870.606 L3830.63,32870.606" style="stroke-width:var(--lw-6);" />
        
        <path d="M5330.63,32870.606 L6000.63,32870.606 L6000.63,30370.606" style="stroke-width:var(--lw-6);" />
        
        <path d="M6000.63,24920.606 L5330.63,24920.606" style="stroke-width:var(--lw-6);" />
        
        <path d="M4330.63,24920.606 L3250.63,24920.606" style="stroke-width:var(--lw-6);" />
        
        <path d="M780.63,29520.606 L780.63,31340.606" style="stroke-width:var(--lw-6);" />
        
        <path d="M2780.63,33340.606 L3830.63,33340.606" style="stroke-width:var(--lw-6);" />
        
        <path d="M5330.63,33340.606 L6470.63,33340.606 L6470.63,32590.606" style="stroke-width:var(--lw-6);" />
        
        <path d="M6920.63,22470.606 L6920.63,22000.606" style="stroke-width:var(--lw-6);" />
        
        <path d="M8420.63,22470.606 L8420.63,22000.606" style="stroke-width:var(--lw-6);" />
        
        <path d="M9470.63,22470.606 L9470.63,22000.606" style="stroke-width:var(--lw-6);" />
        
        <path d="M11000.63,24000.606 L11470.63,24000.606" style="stroke-width:var(--lw-6);" />
        
        <path d="M6920.63,30870.606 L6920.63,31340.606" style="stroke-width:var(--lw-6);" />
        
        <path d="M8420.63,30870.606 L8420.63,31340.606" style="stroke-width:var(--lw-6);" />
        
        <path d="M9470.63,30870.606 L9470.63,31340.606" style="stroke-width:var(--lw-6);" />
        
        <path d="M11000.63,29340.606 L11470.63,29340.606" style="stroke-width:var(--lw-6);" />
        
        <path d="M5330.63,25170.606 L5330.63,24920.606" style="stroke-width:var(--lw-6);" />
        
        <path d="M5330.63,22470.606 L5330.63,22000.606" style="stroke-width:var(--lw-6);" />
        
        <path d="M4330.63,25170.606 L4330.63,24920.606" style="stroke-width:var(--lw-6);" />
        
        <path d="M4330.63,22470.606 L4330.63,22000.606" style="stroke-width:var(--lw-6);" />
        
        <path d="M2780.63,25170.606 L2780.63,24700.606" style="stroke-width:var(--lw-6);" />
        
        <path d="M1250.63,26700.606 L490.63,26700.606" style="stroke-width:var(--lw-6);" />
        
        <path d="M11000.63,26170.606 L11470.63,26170.606" style="stroke-width:var(--lw-6);" />
        
        <path d="M11000.63,27170.606 L11470.63,27170.606" style="stroke-width:var(--lw-6);" />
        
        <path d="M490.63,28520.606 L1250.63,28520.606" style="stroke-width:var(--lw-6);" />
        
        <path d="M780.63,29520.606 L1250.63,29520.606" style="stroke-width:var(--lw-6);" />
        
        <path d="M3250.63,24920.606 L3250.63,23500.606" style="stroke-width:var(--lw-6);" />
        
        <path d="M3780.63,22470.606 L4330.63,22470.606" style="stroke-width:var(--lw-6);" />
        
        <path d="M5330.63,22470.606 L6000.63,22470.606" style="stroke-width:var(--lw-6);" />
        
        <path d="M19250.63,30370.606 L19250.63,30870.606 L19920.63,30870.606" style="stroke-width:var(--lw-6);" />
        
        <path d="M21420.63,30870.606 L22470.63,30870.606" style="stroke-width:var(--lw-6);" />
        
        <path d="M24000.63,29340.606 L24000.63,27170.606" style="stroke-width:var(--lw-6);" />
        
        <path d="M24000.63,26170.606 L24000.63,24000.606" style="stroke-width:var(--lw-6);" />
        
        <path d="M22470.63,22470.606 L21420.63,22470.606" style="stroke-width:var(--lw-6);" />
        
        <path d="M19920.63,22470.606 L19250.63,22470.606 L19250.63,25670.606" style="stroke-width:var(--lw-6);" />
        
        <path d="M19250.63,27170.606 L19250.63,28520.606" style="stroke-width:var(--lw-6);" />
        
        <path d="M21420.63,31340.606 L22470.63,31340.606" style="stroke-width:var(--lw-6);" />
        
        <path d="M24470.63,29340.606 L24470.63,27170.606" style="stroke-width:var(--lw-6);" />
        
        <path d="M24470.63,26170.606 L24470.63,24000.606" style="stroke-width:var(--lw-6);" />
        
        <path d="M22470.63,22000.606 L21420.63,22000.606" style="stroke-width:var(--lw-6);" />
        
        <path d="M19920.63,22000.606 L18780.63,22000.606 L18780.63,22750.606" style="stroke-width:var(--lw-6);" />
        
        <path d="M19000.63,28520.606 L19000.63,27170.606" style="stroke-width:var(--lw-6);" />
        
        <path d="M19000.63,25670.606 L19000.63,25170.606 L18330.63,25170.606" style="stroke-width:var(--lw-6);" />
        
        <path d="M16830.63,25170.606 L15780.63,25170.606" style="stroke-width:var(--lw-6);" />
        
        <path d="M14250.63,26700.606 L14250.63,28520.606" style="stroke-width:var(--lw-6);" />
        
        <path d="M14250.63,29520.606 L14250.63,31340.606" style="stroke-width:var(--lw-6);" />
        
        <path d="M15780.63,32870.606 L16830.63,32870.606" style="stroke-width:var(--lw-6);" />
        
        <path d="M18330.63,32870.606 L19000.63,32870.606 L19000.63,30370.606" style="stroke-width:var(--lw-6);" />
        
        <path d="M16830.63,24700.606 L15780.63,24700.606" style="stroke-width:var(--lw-6);" />
        
        <path d="M13490.63,26700.606 L13490.63,28520.606" style="stroke-width:var(--lw-6);" />
        
        <path d="M13780.63,29520.606 L13780.63,31340.606" style="stroke-width:var(--lw-6);" />
        
        <path d="M15780.63,33340.606 L16830.63,33340.606" style="stroke-width:var(--lw-6);" />
        
        <path d="M18330.63,33340.606 L19470.63,33340.606 L19470.63,32590.606" style="stroke-width:var(--lw-6);" />
        
        <path d="M15250.63,27170.606 L15250.63,25170.606" style="stroke-width:var(--lw-1);" />
        
        <path d="M15500.63,27170.606 L15500.63,25170.606" style="stroke-width:var(--lw-1);" />
        
        <path d="M15750.63,27170.606 L15750.63,25170.606" style="stroke-width:var(--lw-1);" />
        
        <path d="M16000.63,27170.606 L16000.63,25170.606" style="stroke-width:var(--lw-1);" />
        
        <path d="M16250.63,27170.606 L16250.63,25170.606" style="stroke-width:var(--lw-1);" />
        
        <path d="M16500.63,27170.606 L16500.63,25170.606" style="stroke-width:var(--lw-1);" />
        
        <path d="M16750.63,27170.606 L16750.63,25170.606" style="stroke-width:var(--lw-1);" />
        
        <path d="M17000.63,27170.606 L17000.63,25170.606" style="stroke-width:var(--lw-1);" />
        
        <path d="M17250.63,26170.606 L15250.63,26170.606" style="stroke-width:var(--lw-1);" />
        
        <path d="M17250.63,27170.606 L17250.63,25170.606" style="stroke-width:var(--lw-5);" />
        
        <path d="M19250.63,30370.606 L19000.63,30370.606" style="stroke-width:var(--lw-6);" />
        
        <path d="M19250.63,25670.606 L19000.63,25670.606" style="stroke-width:var(--lw-6);" />
        
        <path d="M19000.63,27170.606 L19250.63,27170.606" style="stroke-width:var(--lw-6);" />
        
        <path d="M19250.63,28520.606 L19000.63,28520.606" style="stroke-width:var(--lw-6);" />
        
        <path d="M6250.63,30370.606 L6000.63,30370.606" style="stroke-width:var(--lw-6);" />
        
        <path d="M6250.63,25670.606 L6000.63,25670.606" style="stroke-width:var(--lw-6);" />
        
        <path d="M6000.63,27170.606 L6250.63,27170.606" style="stroke-width:var(--lw-6);" />
        
        <path d="M6250.63,28520.606 L6000.63,28520.606" style="stroke-width:var(--lw-6);" />
        
        <path d="M490.63,26700.606 L490.63,28520.606" style="stroke-width:var(--lw-6);" />
        
        <path d="M2780.63,20800.606 L3250.63,20800.606 L3250.63,20000.606 L2780.63,20000.606 Z" style="stroke-width:var(--lw-6);" />
        
        <path d="M5780.63,20500.606 L6920.63,20500.606 L6920.63,20000.606 L5780.63,20000.606 Z" style="stroke-width:var(--lw-6);" />
        
        <path d="M5330.63,35340.606 L6470.63,35340.606 L6470.63,34840.606 L5330.63,34840.606 Z" style="stroke-width:var(--lw-6);" />
        
        <path d="M11000.63,35340.606 L11470.63,35340.606 L11470.63,34540.606 L11000.63,34540.606 Z" style="stroke-width:var(--lw-6);" />
        
        <path d="M19920.63,22470.606 L19920.63,22000.606" style="stroke-width:var(--lw-6);" />
        
        <path d="M21420.63,22470.606 L21420.63,22000.606" style="stroke-width:var(--lw-6);" />
        
        <path d="M22470.63,22470.606 L22470.63,22000.606" style="stroke-width:var(--lw-6);" />
        
        <path d="M24000.63,24000.606 L24470.63,24000.606" style="stroke-width:var(--lw-6);" />
        
        <path d="M19920.63,30870.606 L19920.63,31340.606" style="stroke-width:var(--lw-6);" />
        
        <path d="M21420.63,30870.606 L21420.63,31340.606" style="stroke-width:var(--lw-6);" />
        
        <path d="M22470.63,30870.606 L22470.63,31340.606" style="stroke-width:var(--lw-6);" />
        
        <path d="M24000.63,29340.606 L24470.63,29340.606" style="stroke-width:var(--lw-6);" />
        
        <path d="M18330.63,32870.606 L18330.63,33340.606" style="stroke-width:var(--lw-6);" />
        
        <path d="M16830.63,32870.606 L16830.63,33340.606" style="stroke-width:var(--lw-6);" />
        
        <path d="M15780.63,32870.606 L15780.63,33340.606" style="stroke-width:var(--lw-6);" />
        
        <path d="M14250.63,31340.606 L13780.63,31340.606" style="stroke-width:var(--lw-6);" />
        
        <path d="M15780.63,25170.606 L15780.63,24700.606" style="stroke-width:var(--lw-6);" />
        
        <path d="M14250.63,26700.606 L13490.63,26700.606" style="stroke-width:var(--lw-6);" />
        
        <path d="M24000.63,26170.606 L24470.63,26170.606" style="stroke-width:var(--lw-6);" />
        
        <path d="M24000.63,27170.606 L24470.63,27170.606" style="stroke-width:var(--lw-6);" />
        
        <path d="M13490.63,28520.606 L14250.63,28520.606" style="stroke-width:var(--lw-6);" />
        
        <path d="M13780.63,29520.606 L14250.63,29520.606" style="stroke-width:var(--lw-6);" />
        
        <path d="M18330.63,24700.606 L18330.63,25170.606" style="stroke-width:var(--lw-6);" />
        
        <path d="M16830.63,24700.606 L16830.63,25170.606" style="stroke-width:var(--lw-6);" />
        
        <path d="M2780.63,23500.606 L2780.63,20000.606 L6920.63,20000.606 L6920.63,22000.606" style="stroke-width:var(--lw-5);" />
        
        <path d="M5330.63,33340.606 L5330.63,35340.606 L11470.63,35340.606 L11470.63,29340.606" style="stroke-width:var(--lw-5);" />
        
        <path d="M15780.63,24700.606 L15780.63,20000.606 L19920.63,20000.606 L19920.63,22000.606" style="stroke-width:var(--lw-5);" />
        
        <path d="M18330.63,33340.606 L18330.63,35340.606 L24470.63,35340.606 L24470.63,29340.606" style="stroke-width:var(--lw-5);" />
        
        <path d="M18330.63,24700.606 L18330.63,22750.606 L18780.63,22750.606" style="stroke-width:var(--lw-6);" />
        
        <path d="M19920.63,31340.606 L19920.63,32590.606 L19470.63,32590.606" style="stroke-width:var(--lw-6);" />
        
        <path d="M3780.63,22470.606 L3780.63,22000.606" style="stroke-width:var(--lw-6);" />
        
        <path d="M3250.63,23500.606 L2780.63,23500.606" style="stroke-width:var(--lw-6);" />
        
        <path d="M6920.63,31340.606 L6920.63,32590.606 L6470.63,32590.606" style="stroke-width:var(--lw-6);" />
        
        <path d="M13780.63,31340.606 L13780.63,33340.606 L15780.63,33340.606" style="stroke-width:var(--lw-5);" />
        
        <path d="M14250.63,31340.606 L14250.63,32870.606 L15780.63,32870.606" style="stroke-width:var(--lw-1);" />
        
        <path d="M16830.63,33340.606 L18330.63,33340.606" style="stroke-width:var(--lw-5);" />
        
        <path d="M16830.63,32870.606 L18330.63,32870.606" style="stroke-width:var(--lw-1);" />
        
        <path d="M13780.63,29520.606 L13780.63,28520.606" style="stroke-width:var(--lw-5);" />
        
        <path d="M14250.63,29520.606 L14250.63,28520.606" style="stroke-width:var(--lw-1);" />
        
        <path d="M14250.63,26700.606 L14250.63,25170.606 L15780.63,25170.606" style="stroke-width:var(--lw-1);" />
        
        <path d="M13780.63,26700.606 L13780.63,24700.606 L15780.63,24700.606" style="stroke-width:var(--lw-1);" />
        
        <path d="M13900.63,33220.606 L13900.63,33120.606 L15780.63,33120.606 L15780.63,33220.606 Z" style="stroke-width:var(--lw-1);" />
        
        <path d="M15710.63,33120.606 L15710.63,33220.606 L15780.63,33220.606 L15780.63,33120.606 Z" style="stroke-width:var(--lw-1);" />
        
        <path d="M14070.63,33120.606 L14070.63,33220.606 L14000.63,33220.606 L14000.63,33120.606 Z" style="stroke-width:var(--lw-1);" />
        
        <path d="M13900.63,33220.606 L14000.63,33220.606 L14000.63,31340.606 L13900.63,31340.606 Z" style="stroke-width:var(--lw-1);" />
        
        <path d="M14000.63,31410.606 L13900.63,31410.606 L13900.63,31340.606 L14000.63,31340.606 Z" style="stroke-width:var(--lw-1);" />
        
        <path d="M14000.63,33050.606 L13900.63,33050.606 L13900.63,33120.606 L14000.63,33120.606 Z" style="stroke-width:var(--lw-1);" />
        
        <path d="M16830.63,33220.606 L16830.63,33120.606 L18330.63,33120.606 L18330.63,33220.606 Z" style="stroke-width:var(--lw-1);" />
        
        <path d="M17260.63,33120.606 L17260.63,33220.606 L17330.63,33220.606 L17330.63,33120.606 Z" style="stroke-width:var(--lw-1);" />
        
        <path d="M16900.63,33120.606 L16900.63,33220.606 L16830.63,33220.606 L16830.63,33120.606 Z" style="stroke-width:var(--lw-1);" />
        
        <path d="M16830.63,25170.606 L18330.63,25170.606" style="stroke-width:var(--lw-5);" />
        
        <path d="M18260.63,33120.606 L18260.63,33220.606 L18330.63,33220.606 L18330.63,33120.606 Z" style="stroke-width:var(--lw-1);" />
        
        <path d="M17330.63,33120.606 L17330.63,33220.606 L17400.63,33220.606 L17400.63,33120.606 Z" style="stroke-width:var(--lw-1);" />
        
        <path d="M22470.63,30870.606 L24000.63,30870.606 L24000.63,29340.606" style="stroke-width:var(--lw-1);" />
        
        <path d="M24350.63,31220.606 L24250.63,31220.606 L24250.63,29340.606 L24350.63,29340.606 Z" style="stroke-width:var(--lw-1);" />
        
        <path d="M24250.63,29410.606 L24350.63,29410.606 L24350.63,29340.606 L24250.63,29340.606 Z" style="stroke-width:var(--lw-1);" />
        
        <path d="M24250.63,31050.606 L24350.63,31050.606 L24350.63,31120.606 L24250.63,31120.606 Z" style="stroke-width:var(--lw-1);" />
        
        <path d="M24350.63,31220.606 L24350.63,31120.606 L22470.63,31120.606 L22470.63,31220.606 Z" style="stroke-width:var(--lw-1);" />
        
        <path d="M22540.63,31120.606 L22540.63,31220.606 L22470.63,31220.606 L22470.63,31120.606 Z" style="stroke-width:var(--lw-1);" />
        
        <path d="M24180.63,31120.606 L24180.63,31220.606 L24250.63,31220.606 L24250.63,31120.606 Z" style="stroke-width:var(--lw-1);" />
        
        <path d="M13900.63,28520.606 L14000.63,28520.606 L14000.63,29520.606 L13900.63,29520.606 Z" style="stroke-width:var(--lw-1);" />
        
        <path d="M14000.63,29450.606 L13900.63,29450.606 L13900.63,29520.606 L14000.63,29520.606 Z" style="stroke-width:var(--lw-1);" />
        
        <path d="M14000.63,28520.606 L13900.63,28520.606 L13900.63,28590.606 L14000.63,28590.606 Z" style="stroke-width:var(--lw-1);" />
        
        <path d="M24470.63,26170.606 L24470.63,27170.606" style="stroke-width:var(--lw-5);" />
        
        <path d="M24000.63,26170.606 L24000.63,27170.606" style="stroke-width:var(--lw-1);" />
        
        <path d="M24350.63,27170.606 L24250.63,27170.606 L24250.63,26170.606 L24350.63,26170.606 Z" style="stroke-width:var(--lw-1);" />
        
        <path d="M24250.63,26240.606 L24350.63,26240.606 L24350.63,26170.606 L24250.63,26170.606 Z" style="stroke-width:var(--lw-1);" />
        
        <path d="M24250.63,27170.606 L24350.63,27170.606 L24350.63,27100.606 L24250.63,27100.606 Z" style="stroke-width:var(--lw-1);" />
        
        <path d="M22470.63,22470.606 L24000.63,22470.606 L24000.63,24000.606" style="stroke-width:var(--lw-1);" />
        
        <path d="M24350.63,22120.606 L24250.63,22120.606 L24250.63,24000.606 L24350.63,24000.606 Z" style="stroke-width:var(--lw-1);" />
        
        <path d="M24250.63,23930.606 L24350.63,23930.606 L24350.63,24000.606 L24250.63,24000.606 Z" style="stroke-width:var(--lw-1);" />
        
        <path d="M24250.63,22290.606 L24350.63,22290.606 L24350.63,22220.606 L24250.63,22220.606 Z" style="stroke-width:var(--lw-1);" />
        
        <path d="M24350.63,22120.606 L24350.63,22220.606 L22470.63,22220.606 L22470.63,22120.606 Z" style="stroke-width:var(--lw-1);" />
        
        <path d="M22540.63,22220.606 L22540.63,22120.606 L22470.63,22120.606 L22470.63,22220.606 Z" style="stroke-width:var(--lw-1);" />
        
        <path d="M24180.63,22220.606 L24180.63,22120.606 L24250.63,22120.606 L24250.63,22220.606 Z" style="stroke-width:var(--lw-1);" />
        
        <path d="M24470.63,24000.606 L24470.63,22000.606 L22470.63,22000.606" style="stroke-width:var(--lw-5);" />
        
        <path d="M21420.63,22000.606 L19920.63,22000.606" style="stroke-width:var(--lw-5);" />
        
        <path d="M21420.63,22470.606 L19920.63,22470.606" style="stroke-width:var(--lw-1);" />
        
        <path d="M21420.63,22120.606 L21420.63,22220.606 L19920.63,22220.606 L19920.63,22120.606 Z" style="stroke-width:var(--lw-1);" />
        
        <path d="M20990.63,22220.606 L20990.63,22120.606 L20920.63,22120.606 L20920.63,22220.606 Z" style="stroke-width:var(--lw-1);" />
        
        <path d="M21350.63,22220.606 L21350.63,22120.606 L21420.63,22120.606 L21420.63,22220.606 Z" style="stroke-width:var(--lw-1);" />
        
        <path d="M19990.63,22220.606 L19990.63,22120.606 L19920.63,22120.606 L19920.63,22220.606 Z" style="stroke-width:var(--lw-1);" />
        
        <path d="M20920.63,22220.606 L20920.63,22120.606 L20850.63,22120.606 L20850.63,22220.606 Z" style="stroke-width:var(--lw-1);" />
        
        <path d="M13900.63,24820.606 L13900.63,24920.606 L15780.63,24920.606 L15780.63,24820.606 Z" style="stroke-width:var(--lw-1);" />
        
        <path d="M15710.63,24920.606 L15710.63,24820.606 L15780.63,24820.606 L15780.63,24920.606 Z" style="stroke-width:var(--lw-1);" />
        
        <path d="M14070.63,24920.606 L14070.63,24820.606 L14000.63,24820.606 L14000.63,24920.606 Z" style="stroke-width:var(--lw-1);" />
        
        <path d="M13900.63,24820.606 L14000.63,24820.606 L14000.63,26700.606 L13900.63,26700.606 Z" style="stroke-width:var(--lw-1);" />
        
        <path d="M14000.63,26630.606 L13900.63,26630.606 L13900.63,26700.606 L14000.63,26700.606 Z" style="stroke-width:var(--lw-1);" />
        
        <path d="M14000.63,24990.606 L13900.63,24990.606 L13900.63,24920.606 L14000.63,24920.606 Z" style="stroke-width:var(--lw-1);" />
        
        <path d="M19920.63,30870.606 L21420.63,30870.606" style="stroke-width:var(--lw-1);" />
        
        <path d="M19920.63,31120.606 L19920.63,31220.606 L19970.63,31220.606 L19970.63,31120.606 Z" style="stroke-width:var(--lw-1);" />
        
        <path d="M20870.63,31120.606 L20870.63,31220.606 L20920.63,31220.606 L20920.63,31120.606 Z" style="stroke-width:var(--lw-1);" />
        
        <path d="M19970.63,31220.606 L19970.63,32120.606" style="stroke-width:var(--lw-1);" />
        
        <path d="M20870.63,31220.6039 A900,900 0 0,1 19970.63,32120.606" style="stroke-width:var(--lw-1);" />
        
        <path d="M21420.63,31220.606 L21420.63,31120.606 L20920.63,31120.606 L20920.63,31220.606 Z" style="stroke-width:var(--lw-1);" />
        
        <path d="M20990.63,31120.606 L20990.63,31220.606 L20920.63,31220.606 L20920.63,31120.606 Z" style="stroke-width:var(--lw-1);" />
        
        <path d="M21350.63,31120.606 L21350.63,31220.606 L21420.63,31220.606 L21420.63,31120.606 Z" style="stroke-width:var(--lw-1);" />
        
        <path d="M18330.63,24920.606 L18330.63,24820.606 L18280.63,24820.606 L18280.63,24920.606 Z" style="stroke-width:var(--lw-1);" />
        
        <path d="M17380.63,24920.606 L17380.63,24820.606 L17330.63,24820.606 L17330.63,24920.606 Z" style="stroke-width:var(--lw-1);" />
        
        <path d="M18280.63,24820.606 L18280.63,23920.606" style="stroke-width:var(--lw-1);" />
        
        <path d="M17380.63,24820.6081 A900,900 0 0,1 18280.63,23920.606" style="stroke-width:var(--lw-1);" />
        
        <path d="M16830.63,24820.606 L16830.63,24920.606 L17330.63,24920.606 L17330.63,24820.606 Z" style="stroke-width:var(--lw-1);" />
        
        <path d="M17260.63,24920.606 L17260.63,24820.606 L17330.63,24820.606 L17330.63,24920.606 Z" style="stroke-width:var(--lw-1);" />
        
        <path d="M16900.63,24920.606 L16900.63,24820.606 L16830.63,24820.606 L16830.63,24920.606 Z" style="stroke-width:var(--lw-1);" />
        
        <path d="M11350.63,22120.606 L11250.63,22120.606 L11250.63,24000.606 L11350.63,24000.606 Z" style="stroke-width:var(--lw-1);" />
        
        <path d="M11250.63,23930.606 L11350.63,23930.606 L11350.63,24000.606 L11250.63,24000.606 Z" style="stroke-width:var(--lw-1);" />
        
        <path d="M11250.63,22290.606 L11350.63,22290.606 L11350.63,22220.606 L11250.63,22220.606 Z" style="stroke-width:var(--lw-1);" />
        
        <path d="M11350.63,22120.606 L11350.63,22220.606 L9470.63,22220.606 L9470.63,22120.606 Z" style="stroke-width:var(--lw-1);" />
        
        <path d="M9540.63,22220.606 L9540.63,22120.606 L9470.63,22120.606 L9470.63,22220.606 Z" style="stroke-width:var(--lw-1);" />
        
        <path d="M11180.63,22220.606 L11180.63,22120.606 L11250.63,22120.606 L11250.63,22220.606 Z" style="stroke-width:var(--lw-1);" />
        
        <path d="M11470.63,24000.606 L11470.63,22000.606 L9470.63,22000.606" style="stroke-width:var(--lw-5);" />
        
        <path d="M8420.63,22000.606 L6920.63,22000.606" style="stroke-width:var(--lw-5);" />
        
        <path d="M8420.63,22120.606 L8420.63,22220.606 L6920.63,22220.606 L6920.63,22120.606 Z" style="stroke-width:var(--lw-1);" />
        
        <path d="M7990.63,22220.606 L7990.63,22120.606 L7920.63,22120.606 L7920.63,22220.606 Z" style="stroke-width:var(--lw-1);" />
        
        <path d="M8350.63,22220.606 L8350.63,22120.606 L8420.63,22120.606 L8420.63,22220.606 Z" style="stroke-width:var(--lw-1);" />
        
        <path d="M6990.63,22220.606 L6990.63,22120.606 L6920.63,22120.606 L6920.63,22220.606 Z" style="stroke-width:var(--lw-1);" />
        
        <path d="M7920.63,22220.606 L7920.63,22120.606 L7850.63,22120.606 L7850.63,22220.606 Z" style="stroke-width:var(--lw-1);" />
        
        <path d="M6920.63,31120.606 L6920.63,31220.606 L6970.63,31220.606 L6970.63,31120.606 Z" style="stroke-width:var(--lw-1);" />
        
        <path d="M7870.63,31120.606 L7870.63,31220.606 L7920.63,31220.606 L7920.63,31120.606 Z" style="stroke-width:var(--lw-1);" />
        
        <path d="M6970.63,31220.606 L6970.63,32120.606" style="stroke-width:var(--lw-1);" />
        
        <path d="M7870.63,31220.6039 A900,900 0 0,1 6970.63,32120.606" style="stroke-width:var(--lw-1);" />
        
        <path d="M8420.63,31220.606 L8420.63,31120.606 L7920.63,31120.606 L7920.63,31220.606 Z" style="stroke-width:var(--lw-1);" />
        
        <path d="M7990.63,31120.606 L7990.63,31220.606 L7920.63,31220.606 L7920.63,31120.606 Z" style="stroke-width:var(--lw-1);" />
        
        <path d="M8350.63,31120.606 L8350.63,31220.606 L8420.63,31220.606 L8420.63,31120.606 Z" style="stroke-width:var(--lw-1);" />
        
        <path d="M11470.63,26170.606 L11470.63,27170.606" style="stroke-width:var(--lw-5);" />
        
        <path d="M11350.63,27170.606 L11250.63,27170.606 L11250.63,26170.606 L11350.63,26170.606 Z" style="stroke-width:var(--lw-1);" />
        
        <path d="M11250.63,26240.606 L11350.63,26240.606 L11350.63,26170.606 L11250.63,26170.606 Z" style="stroke-width:var(--lw-1);" />
        
        <path d="M11250.63,27170.606 L11350.63,27170.606 L11350.63,27100.606 L11250.63,27100.606 Z" style="stroke-width:var(--lw-1);" />
        
        <path d="M11350.63,31220.606 L11250.63,31220.606 L11250.63,29340.606 L11350.63,29340.606 Z" style="stroke-width:var(--lw-1);" />
        
        <path d="M11250.63,29410.606 L11350.63,29410.606 L11350.63,29340.606 L11250.63,29340.606 Z" style="stroke-width:var(--lw-1);" />
        
        <path d="M11250.63,31050.606 L11350.63,31050.606 L11350.63,31120.606 L11250.63,31120.606 Z" style="stroke-width:var(--lw-1);" />
        
        <path d="M11350.63,31220.606 L11350.63,31120.606 L9470.63,31120.606 L9470.63,31220.606 Z" style="stroke-width:var(--lw-1);" />
        
        <path d="M9540.63,31120.606 L9540.63,31220.606 L9470.63,31220.606 L9470.63,31120.606 Z" style="stroke-width:var(--lw-1);" />
        
        <path d="M11180.63,31120.606 L11180.63,31220.606 L11250.63,31220.606 L11250.63,31120.606 Z" style="stroke-width:var(--lw-1);" />
        
        <path d="M5330.63,32870.606 L5330.63,33340.606" style="stroke-width:var(--lw-6);" />
        
        <path d="M3830.63,32870.606 L3830.63,33340.606" style="stroke-width:var(--lw-6);" />
        
        <path d="M2780.63,32870.606 L2780.63,33340.606" style="stroke-width:var(--lw-6);" />
        
        <path d="M1250.63,31340.606 L780.63,31340.606" style="stroke-width:var(--lw-6);" />
        
        <path d="M900.63,33220.606 L1000.63,33220.606 L1000.63,31340.606 L900.63,31340.606 Z" style="stroke-width:var(--lw-1);" />
        
        <path d="M1000.63,31410.606 L900.63,31410.606 L900.63,31340.606 L1000.63,31340.606 Z" style="stroke-width:var(--lw-1);" />
        
        <path d="M1000.63,33050.606 L900.63,33050.606 L900.63,33120.606 L1000.63,33120.606 Z" style="stroke-width:var(--lw-1);" />
        
        <path d="M900.63,33220.606 L900.63,33120.606 L2780.63,33120.606 L2780.63,33220.606 Z" style="stroke-width:var(--lw-1);" />
        
        <path d="M2710.63,33120.606 L2710.63,33220.606 L2780.63,33220.606 L2780.63,33120.606 Z" style="stroke-width:var(--lw-1);" />
        
        <path d="M1070.63,33120.606 L1070.63,33220.606 L1000.63,33220.606 L1000.63,33120.606 Z" style="stroke-width:var(--lw-1);" />
        
        <path d="M780.63,31340.606 L780.63,33340.606 L2780.63,33340.606" style="stroke-width:var(--lw-5);" />
        
        <path d="M3830.63,33340.606 L5330.63,33340.606" style="stroke-width:var(--lw-5);" />
        
        <path d="M3830.63,33220.606 L3830.63,33120.606 L5330.63,33120.606 L5330.63,33220.606 Z" style="stroke-width:var(--lw-1);" />
        
        <path d="M4260.63,33120.606 L4260.63,33220.606 L4330.63,33220.606 L4330.63,33120.606 Z" style="stroke-width:var(--lw-1);" />
        
        <path d="M3900.63,33120.606 L3900.63,33220.606 L3830.63,33220.606 L3830.63,33120.606 Z" style="stroke-width:var(--lw-1);" />
        
        <path d="M5260.63,33120.606 L5260.63,33220.606 L5330.63,33220.606 L5330.63,33120.606 Z" style="stroke-width:var(--lw-1);" />
        
        <path d="M4330.63,33120.606 L4330.63,33220.606 L4400.63,33220.606 L4400.63,33120.606 Z" style="stroke-width:var(--lw-1);" />
        
        <path d="M780.63,29520.606 L780.63,28520.606" style="stroke-width:var(--lw-5);" />
        
        <path d="M900.63,24820.606 L1000.63,24820.606 L1000.63,26700.606 L900.63,26700.606 Z" style="stroke-width:var(--lw-1);" />
        
        <path d="M1000.63,26630.606 L900.63,26630.606 L900.63,26700.606 L1000.63,26700.606 Z" style="stroke-width:var(--lw-1);" />
        
        <path d="M1000.63,24990.606 L900.63,24990.606 L900.63,24920.606 L1000.63,24920.606 Z" style="stroke-width:var(--lw-1);" />
        
        <path d="M900.63,24820.606 L900.63,24920.606 L2780.63,24920.606 L2780.63,24820.606 Z" style="stroke-width:var(--lw-1);" />
        
        <path d="M2710.63,24920.606 L2710.63,24820.606 L2780.63,24820.606 L2780.63,24920.606 Z" style="stroke-width:var(--lw-1);" />
        
        <path d="M1070.63,24920.606 L1070.63,24820.606 L1000.63,24820.606 L1000.63,24920.606 Z" style="stroke-width:var(--lw-1);" />
        
        <path d="M780.63,26700.606 L780.63,24700.606 L2780.63,24700.606" style="stroke-width:var(--lw-5);" />
        
        <path d="M1250.63,26700.606 L1250.63,25170.606 L2780.63,25170.606" style="stroke-width:var(--lw-1);" />
        
        <path d="M1000.63,28520.606 L900.63,28520.606 L900.63,28570.606 L1000.63,28570.606 Z" style="stroke-width:var(--lw-1);" />
        
        <path d="M1000.63,29470.606 L900.63,29470.606 L900.63,29520.606 L1000.63,29520.606 Z" style="stroke-width:var(--lw-1);" />
        
        <path d="M900.63,28570.606 L0.63,28570.606" style="stroke-width:var(--lw-1);" />
        
        <path d="M900.6321,29470.606 A900,900 0 0,1 0.63,28570.606" style="stroke-width:var(--lw-1);" />
        
        <path d="M2900.63,22120.606 L3000.63,22120.606 L3000.63,23500.606 L2900.63,23500.606 Z" style="stroke-width:var(--lw-1);" />
        
        <path d="M3000.63,23430.606 L2900.63,23430.606 L2900.63,23500.606 L3000.63,23500.606 Z" style="stroke-width:var(--lw-1);" />
        
        <path d="M3000.63,22290.606 L2900.63,22290.606 L2900.63,22220.606 L3000.63,22220.606 Z" style="stroke-width:var(--lw-1);" />
        
        <path d="M2900.63,22120.606 L2900.63,22220.606 L3780.63,22220.606 L3780.63,22120.606 Z" style="stroke-width:var(--lw-1);" />
        
        <path d="M3710.63,22220.606 L3710.63,22120.606 L3780.63,22120.606 L3780.63,22220.606 Z" style="stroke-width:var(--lw-1);" />
        
        <path d="M3070.63,22220.606 L3070.63,22120.606 L3000.63,22120.606 L3000.63,22220.606 Z" style="stroke-width:var(--lw-1);" />
        
        <path d="M15250.63,26295.606 L14250.63,26295.606" style="stroke-width:var(--lw-1);" />
        
        <path d="M15250.63,26045.606 L14250.63,26045.606" style="stroke-width:var(--lw-1);" />
        
        <path d="M17130.63,29420.606 L17250.63,29420.606" style="stroke-width:var(--lw-5);" />
        
        <path d="M17130.63,28620.606 L17250.63,28620.606" style="stroke-width:var(--lw-5);" />
        
        <path d="M1250.63,28400.606 L2230.63,28400.606" style="stroke-width:var(--lw-5);" />
        
        <path d="M2350.63,28400.606 L4130.63,28400.606" style="stroke-width:var(--lw-5);" />
        
        <path d="M3250.63,28200.606 L4130.63,28200.606" style="stroke-width:var(--lw-3);" />
        
        <path d="M1250.63,28520.606 L4250.63,28520.606" style="stroke-width:var(--lw-5);" />
        
        <path d="M4250.63,27170.606 L4250.63,28520.606" style="stroke-width:var(--lw-5);" />
        
        <path d="M4130.63,27290.606 L4130.63,28400.606" style="stroke-width:var(--lw-5);" />
        
        <path d="M3500.63,27170.606 L3500.63,27290.606" style="stroke-width:var(--lw-5);" />
        
        <path d="M2700.63,27170.606 L2700.63,27290.606" style="stroke-width:var(--lw-5);" />
        
        <path d="M6250.63,27170.606 L7980.63,27170.606" style="stroke-width:var(--lw-5);" />
        
        <path d="M8100.63,27170.606 L11000.63,27170.606" style="stroke-width:var(--lw-5);" />
        
        <path d="M6250.63,27290.606 L11000.63,27290.606" style="stroke-width:var(--lw-5);" />
        
        <path d="M6250.63,27890.606 L11000.63,27890.606" style="stroke-width:var(--lw-3);" />
        
        <path d="M6250.63,25370.606 L6920.63,25370.606" style="stroke-width:var(--lw-5);" />
        
        <path d="M7820.63,25370.606 L11000.63,25370.606" style="stroke-width:var(--lw-5);" />
        
        <path d="M6250.63,25490.606 L6920.63,25490.606" style="stroke-width:var(--lw-5);" />
        
        <path d="M7820.63,25490.606 L7980.63,25490.606" style="stroke-width:var(--lw-5);" />
        
        <path d="M8100.63,25490.606 L11000.63,25490.606" style="stroke-width:var(--lw-5);" />
        
        <path d="M8100.63,25490.606 L8100.63,26270.606" style="stroke-width:var(--lw-5);" />
        
        <path d="M8100.63,27070.606 L8100.63,27170.606" style="stroke-width:var(--lw-5);" />
        
        <path d="M7980.63,25490.606 L7980.63,26270.606" style="stroke-width:var(--lw-5);" />
        
        <path d="M7980.63,27070.606 L7980.63,27170.606" style="stroke-width:var(--lw-5);" />
        
        <path d="M6920.63,25370.606 L6920.63,25490.606" style="stroke-width:var(--lw-5);" />
        
        <path d="M7820.63,25370.606 L7820.63,25490.606" style="stroke-width:var(--lw-5);" />
        
        <path d="M8100.63,27070.606 L7980.63,27070.606" style="stroke-width:var(--lw-5);" />
        
        <path d="M8100.63,26270.606 L7980.63,26270.606" style="stroke-width:var(--lw-5);" />
        
        <path d="M3508.13,27903.106 L3508.13,28200.606 L3873.13,28200.606 L3873.13,27903.106 A182.5,182.5 0 0 0 3508.13,27903.106" style="stroke-width:var(--lw-3);" />
        
        <path d="M2350.63,28400.606 L2350.63,27950.606 L2230.63,27950.606 L2230.63,28400.606" style="stroke-width:var(--lw-5);" />
        
        <path d="M2350.63,28400.606 L3250.63,28400.606 L3250.63,27950.606 L2350.63,27950.606 Z" style="stroke-width:var(--lw-3);" />
        
        <path d="M2640.5876,28000.606 A75,75 0 0 0 2565.5876,28075.606 L2565.5876,28275.606 A75,75 0 0 0 2640.5876,28350.606 L2990.5876,28350.606 A75,75 0 0 0 3065.5876,28275.606 L3065.5876,28075.606 A75,75 0 0 0 2990.5876,28000.606 Z" style="stroke-width:var(--lw-3);" />
        
        <path d="M9845.63,29075.7265 L9845.63,29875.7265 L8045.63,29875.7265 L8045.63,29075.7265 Z" style="stroke-width:var(--lw-3);" />
        
        <path d="M8745.63,30325.7265 L8745.63,29975.7265 L9145.63,29975.7265 L9145.63,30325.7265 Z" style="stroke-width:var(--lw-3);" />
        
        <path d="M9295.63,30325.7265 L9295.63,29975.7265 L9695.63,29975.7265 L9695.63,30325.7265 Z" style="stroke-width:var(--lw-3);" />
        
        <path d="M8595.63,30325.7265 L8595.63,29975.7265 L8195.63,29975.7265 L8195.63,30325.7265 Z" style="stroke-width:var(--lw-3);" />
        
        <path d="M8745.63,28625.7265 L8745.63,28975.7265 L9145.63,28975.7265 L9145.63,28625.7265 Z" style="stroke-width:var(--lw-3);" />
        
        <path d="M9295.63,28625.7265 L9295.63,28975.7265 L9695.63,28975.7265 L9695.63,28625.7265 Z" style="stroke-width:var(--lw-3);" />
        
        <path d="M8595.63,28625.7265 L8595.63,28975.7265 L8195.63,28975.7265 L8195.63,28625.7265 Z" style="stroke-width:var(--lw-3);" />
        
        <circle cx="9467.5814" cy="27477.8192" r="100" style="stroke-width:var(--lw-3);" />
        
        <circle cx="9467.5814" cy="27727.8192" r="75" style="stroke-width:var(--lw-3);" />
        
        <circle cx="9217.5814" cy="27727.8192" r="100" style="stroke-width:var(--lw-3);" />
        
        <circle cx="9217.5814" cy="27477.8192" r="75" style="stroke-width:var(--lw-3);" />
        
        <path d="M8065.5584,27433.1499 A100,100 0 0 1 8165.5584,27533.1499 L8165.5584,27683.1499 A100,100 0 0 1 8065.5584,27783.1499 L7765.5584,27783.1499 A100,100 0 0 1 7665.5584,27683.1499 L7665.5584,27533.1499 A100,100 0 0 1 7765.5584,27433.1499 Z" style="stroke-width:var(--lw-3);" />
        
        <path d="M5130.63,31696.1318 L5130.63,32696.1318 L2780.63,32696.1318 L2780.63,31696.1318 Z" style="stroke-width:var(--lw-3);" />
        
        <path d="M2780.63,32446.1318 L4880.63,32446.1318" style="stroke-width:var(--lw-3);" />
        
        <path d="M4880.63,31696.1318 L4880.63,32446.1318" style="stroke-width:var(--lw-3);" />
        
        <path d="M3080.63,31170.606 L4580.63,31170.606 L4580.63,30470.606 L3080.63,30470.606 Z" style="stroke-width:var(--lw-3);" />
        
        <path d="M3455.63,29947.9776 L3455.63,29497.9776 A250,250 0 0 1 3705.63,29247.9776 L3955.63,29247.9776 A250,250 0 0 1 4205.63,29497.9776 L4205.63,29947.9776 Z" style="stroke-width:var(--lw-3);" />
        
        <path d="M6000.63,30370.606 L6000.63,29720.606 L6250.63,29720.606 L6250.63,30370.606" style="stroke-width:var(--lw-5);" />
        
        <path d="M5600.63,29720.606 L6000.63,29720.606 L6000.63,32870.606 L5600.63,32870.606 Z" style="stroke-width:var(--lw-3);" />
        
        <path d="M5600.63,27170.606 L6000.63,27170.606 L6000.63,28520.606 L5600.63,28520.606 Z" style="stroke-width:var(--lw-3);" />
        
        <path d="M9771.5193,26170.606 L9771.5193,25640.606 L10850.63,25640.606 L10850.63,26170.606 Z" style="stroke-width:var(--lw-3);" />
        
        <path d="M8420.63,22470.606 L8420.63,23070.606 L11000.63,23070.606 L11000.63,22470.606 Z" style="stroke-width:var(--lw-3);" />
        
        <path d="M10447.8968,23070.606 L10447.8968,23370.606 L9997.8968,23370.606 L9997.8968,23070.606" style="stroke-width:var(--lw-3);" />
        
        <path d="M6850.63,22470.606 L6850.63,25370.606" style="stroke-width:var(--lw-3);" />
        
        <path d="M6250.63,25370.606 L6850.63,22470.606" style="stroke-width:var(--lw-3);" />
        
        <path d="M6850.63,25370.606 L6250.63,22470.606" style="stroke-width:var(--lw-3);" />
        
        <path d="M11000.63,24470.606 L11000.63,25370.606 L8420.63,25370.606 L8420.63,24470.606 Z" style="stroke-width:var(--lw-3);" />
        
        <path d="M8420.63,25120.606 L10750.63,25120.606" style="stroke-width:var(--lw-3);" />
        
        <path d="M10750.63,24470.606 L10750.63,25120.606" style="stroke-width:var(--lw-3);" />
        
        <path d="M10750.63,24470.606 L10750.63,25120.606" style="stroke-width:var(--lw-3);" />
        
        <path d="M9980.63,24470.606 L9980.63,25120.606" style="stroke-width:var(--lw-3);" />
        
        <path d="M9210.63,24470.606 L9210.63,25120.606" style="stroke-width:var(--lw-3);" />
        
        <path d="M5350.63,24920.606 L5350.63,22470.606" style="stroke-width:var(--lw-3);" />
        
        <path d="M5350.63,24920.606 L6000.63,22470.606" style="stroke-width:var(--lw-3);" />
        
        <path d="M5350.63,22470.606 L6000.63,24920.606" style="stroke-width:var(--lw-3);" />
        
        <path d="M3760.63,24860.606 L3760.63,23500.606 L3310.63,23500.606 L3310.63,24860.606 Z" style="stroke-width:var(--lw-3);" />
        
        <path d="M5330.63,22220.606 L5330.63,22120.606 L5280.63,22120.606 L5280.63,22220.606 Z" style="stroke-width:var(--lw-1);" />
        
        <path d="M4380.63,22220.606 L4380.63,22120.606 L4330.63,22120.606 L4330.63,22220.606 Z" style="stroke-width:var(--lw-1);" />
        
        <path d="M5280.63,22120.606 L5280.63,21220.606" style="stroke-width:var(--lw-1);" />
        
        <path d="M4380.63,22120.6081 A900,900 0 0,1 5280.63,21220.606" style="stroke-width:var(--lw-1);" />
        
        <path d="M2700.63,27170.606 L3500.63,27170.606" style="stroke-width:var(--lw-1);" />
        
        <path d="M2700.63,27170.606 L2700.63,27270.606 L2750.63,27270.606 L2750.63,27170.606 Z" style="stroke-width:var(--lw-1);" />
        
        <path d="M3450.63,27170.606 L3450.63,27270.606 L3500.63,27270.606 L3500.63,27170.606 Z" style="stroke-width:var(--lw-1);" />
        
        <path d="M2750.63,27170.606 L2750.63,26470.606" style="stroke-width:var(--lw-1);" />
        
        <path d="M2750.63,26470.606 A700,700 0 0,1 3450.63,27170.6076" style="stroke-width:var(--lw-1);" />
        
        <path d="M8100.63,27070.606 L8000.63,27070.606 L8000.63,27020.606 L8100.63,27020.606 Z" style="stroke-width:var(--lw-1);" />
        
        <path d="M8100.63,26320.606 L8000.63,26320.606 L8000.63,26270.606 L8100.63,26270.606 Z" style="stroke-width:var(--lw-1);" />
        
        <path d="M8100.63,27020.606 L8800.63,27020.606" style="stroke-width:var(--lw-1);" />
        
        <path d="M8100.6284,26320.606 A700,700 0 0,1 8800.63,27020.606" style="stroke-width:var(--lw-1);" />
        
        <path d="M6920.63,25370.606 L6920.63,25470.606 L6970.63,25470.606 L6970.63,25370.606 Z" style="stroke-width:var(--lw-1);" />
        
        <path d="M7770.63,25370.606 L7770.63,25470.606 L7820.63,25470.606 L7820.63,25370.606 Z" style="stroke-width:var(--lw-1);" />
        
        <path d="M6970.63,25370.606 L6970.63,24570.606" style="stroke-width:var(--lw-1);" />
        
        <path d="M6970.63,24570.606 A800,800 0 0,1 7770.63,25370.6078" style="stroke-width:var(--lw-1);" />
        
        <path d="M18400.63,29520.606 L18400.63,27290.606" style="stroke-width:var(--lw-3);" />
        
        <path d="M18400.63,29520.606 L19000.63,27290.606" style="stroke-width:var(--lw-3);" />
        
        <path d="M19000.63,29520.606 L18400.63,27290.606" style="stroke-width:var(--lw-3);" />
        
        <path d="M14840.63,29640.606 L14840.63,31740.606 L16640.63,31740.606 L16640.63,29640.606 Z" style="stroke-width:var(--lw-3);" />
        
        <path d="M14250.63,30040.606 L14250.63,29640.606 L17230.63,29640.606 L17230.63,30040.606 Z" style="stroke-width:var(--lw-3);" />
        
        <path d="M18400.63,32870.606 L18400.63,29640.606" style="stroke-width:var(--lw-3);" />
        
        <path d="M18400.63,32288.106 L18100.63,32288.106 L18100.63,31838.106 L18400.63,31838.106" style="stroke-width:var(--lw-3);" />
        
        <path d="M14883.13,27788.106 L14883.13,27490.606 L14518.13,27490.606 L14518.13,27788.106 A182.5,182.5 0 0 0 14883.13,27788.106" style="stroke-width:var(--lw-3);" />
        
        <path d="M14250.63,27490.606 L15150.63,27490.606" style="stroke-width:var(--lw-3);" />
        
        <path d="M15150.63,28190.606 L16350.63,28190.606 L16350.63,27290.606 L15150.63,27290.606 Z" style="stroke-width:var(--lw-3);" />
        
        <path d="M15150.63,29520.606 L16350.63,29520.606 L16350.63,29070.606 L15150.63,29070.606 Z" style="stroke-width:var(--lw-3);" />
        
        <path d="M15574.8334,29120.606 A75,75 0 0 0 15499.8334,29195.606 L15499.8334,29395.606 A75,75 0 0 0 15574.8334,29470.606 L15924.8334,29470.606 A75,75 0 0 0 15999.8334,29395.606 L15999.8334,29195.606 A75,75 0 0 0 15924.8334,29120.606 Z" style="stroke-width:var(--lw-3);" />
        
        <path d="M17130.63,29420.606 L17230.63,29420.606 L17230.63,29370.606 L17130.63,29370.606 Z" style="stroke-width:var(--lw-1);" />
        
        <path d="M17130.63,28670.606 L17230.63,28670.606 L17230.63,28620.606 L17130.63,28620.606 Z" style="stroke-width:var(--lw-1);" />
        
        <path d="M17130.63,29370.606 L16430.63,29370.606" style="stroke-width:var(--lw-1);" />
        
        <path d="M16430.63,29370.606 A700,700 0 0,1 17130.6316,28670.606" style="stroke-width:var(--lw-1);" />
        
        <path d="M17430.63,27290.606 L17430.63,27190.606 L17480.63,27190.606 L17480.63,27290.606 Z" style="stroke-width:var(--lw-1);" />
        
        <path d="M18280.63,27290.606 L18280.63,27190.606 L18330.63,27190.606 L18330.63,27290.606 Z" style="stroke-width:var(--lw-1);" />
        
        <path d="M17480.63,27290.606 L17480.63,28090.606" style="stroke-width:var(--lw-1);" />
        
        <path d="M18280.63,27290.6041 A800,800 0 0,1 17480.63,28090.606" style="stroke-width:var(--lw-1);" />
        
        <path d="M19850.63,30870.606 L19850.63,27670.606" style="stroke-width:var(--lw-3);" />
        
        <path d="M19850.63,29845.606 L20150.63,29845.606 L20150.63,30295.606 L19850.63,30295.606" style="stroke-width:var(--lw-3);" />
        
        <path d="M19920.63,27670.606 L19920.63,27570.606 L19970.63,27570.606 L19970.63,27670.606 Z" style="stroke-width:var(--lw-1);" />
        
        <path d="M20770.63,27670.606 L20770.63,27570.606 L20820.63,27570.606 L20820.63,27670.606 Z" style="stroke-width:var(--lw-1);" />
        
        <path d="M19970.63,27670.606 L19970.63,28470.606" style="stroke-width:var(--lw-1);" />
        
        <path d="M20770.63,27670.6041 A800,800 0 0,1 19970.63,28470.606" style="stroke-width:var(--lw-1);" />
        
        <path d="M19850.63,25550.606 L19850.63,22470.606" style="stroke-width:var(--lw-3);" />
        
        <path d="M19920.63,25550.606 L19920.63,25650.606 L19970.63,25650.606 L19970.63,25550.606 Z" style="stroke-width:var(--lw-1);" />
        
        <path d="M20770.63,25550.606 L20770.63,25650.606 L20820.63,25650.606 L20820.63,25550.606 Z" style="stroke-width:var(--lw-1);" />
        
        <path d="M19970.63,25550.606 L19970.63,24750.606" style="stroke-width:var(--lw-1);" />
        
        <path d="M19970.63,24750.606 A800,800 0 0,1 20770.63,25550.6078" style="stroke-width:var(--lw-1);" />
        
        <path d="M19850.63,24010.606 L19250.63,24010.606" style="stroke-width:var(--lw-3);" />
        
        <path d="M19850.63,24010.606 L19250.63,25550.606" style="stroke-width:var(--lw-3);" />
        
        <path d="M19850.63,25550.606 L19250.63,24010.606" style="stroke-width:var(--lw-3);" />
        
        <path d="M19850.63,23015.606 L20150.63,23015.606 L20150.63,23465.606 L19850.63,23465.606" style="stroke-width:var(--lw-3);" />
        
        <path d="M21900.63,24350.606 L21900.63,25550.606 L24000.63,25550.606 L24000.63,24350.606 Z" style="stroke-width:var(--lw-3);" />
        
        <path d="M23500.63,25550.606 L23500.63,24350.606 L24000.63,24350.606 L24000.63,25550.606 Z" style="stroke-width:var(--lw-3);" />
        
        <path d="M21900.63,27670.606 L21900.63,28870.606 L24000.63,28870.606 L24000.63,27670.606 Z" style="stroke-width:var(--lw-3);" />
        
        <path d="M23500.63,28870.606 L23500.63,27670.606 L24000.63,27670.606 L24000.63,28870.606 Z" style="stroke-width:var(--lw-3);" />
        
        <circle cx="8400.63" cy="25829.0572" r="200" style="stroke-width:var(--lw-3);" />
        
        <path d="M8100.63,26170.606 L9300.63,26170.606 L9300.63,25490.606 L8100.63,25490.606 Z" style="stroke-width:var(--lw-3);" />
        
        <circle cx="9000.63" cy="25829.0572" r="200" style="stroke-width:var(--lw-3);" />
        
        <path d="M23457.9236,23463.2975 L23801.0273,23172.1277 A250,250 0 0 0 23829.8796,22819.7536 L23668.1186,22629.1404 A250,250 0 0 0 23315.7445,22600.2881 L22972.6407,22891.4579 Z" style="stroke-width:var(--lw-3);" />
        
        <path d="M23457.9236,29873.9871 L23801.0273,30165.1568 A250,250 0 0 1 23829.8796,30517.531 L23668.1186,30708.1442 A250,250 0 0 1 23315.7445,30736.9964 L22972.6407,30445.8267 Z" style="stroke-width:var(--lw-3);" />
        
        <path d="M16350.63,27290.606 L17130.63,27290.606" style="stroke-width:var(--lw-3);" />
        
        <path d="M16350.63,27890.606 L17130.63,27890.606" style="stroke-width:var(--lw-3);" />
        
        <path d="M16350.63,27890.606 L17130.63,27290.606" style="stroke-width:var(--lw-3);" />
        
        <path d="M17130.63,27890.606 L16350.63,27290.606" style="stroke-width:var(--lw-3);" />
        
        <circle cx="15747.3139" cy="27393.9221" r="25" style="stroke-width:var(--lw-3);" />
        
        <path d="M8420.63,33640.606 L8420.63,32740.606 L10720.63,32740.606 L10720.63,33640.606 Z" style="stroke-width:var(--lw-3);" />
        
        <path d="M9495.63,32290.606 L9495.63,32640.606 L9095.63,32640.606 L9095.63,32290.606 Z" style="stroke-width:var(--lw-3);" />
        
        <path d="M8945.63,32290.606 L8945.63,32640.606 L8545.63,32640.606 L8545.63,32290.606 Z" style="stroke-width:var(--lw-3);" />
        
        <path d="M9645.63,32290.606 L9645.63,32640.606 L10045.63,32640.606 L10045.63,32290.606 Z" style="stroke-width:var(--lw-3);" />
        
        <path d="M10195.63,32290.606 L10195.63,32640.606 L10595.63,32640.606 L10595.63,32290.606 Z" style="stroke-width:var(--lw-3);" />
        
        <path d="M9495.63,34090.606 L9495.63,33740.606 L9095.63,33740.606 L9095.63,34090.606 Z" style="stroke-width:var(--lw-3);" />
        
        <path d="M8945.63,34090.606 L8945.63,33740.606 L8545.63,33740.606 L8545.63,34090.606 Z" style="stroke-width:var(--lw-3);" />
        
        <path d="M9645.63,34090.606 L9645.63,33740.606 L10045.63,33740.606 L10045.63,34090.606 Z" style="stroke-width:var(--lw-3);" />
        
        <path d="M10195.63,34090.606 L10195.63,33740.606 L10595.63,33740.606 L10595.63,34090.606 Z" style="stroke-width:var(--lw-3);" />
        
        <path d="M2505.4468,29520.606 L1505.4468,29520.606 L1505.4468,31696.1318 L2505.4468,31696.1318 Z" style="stroke-width:var(--lw-3);" />
        
        <path d="M1755.4468,31696.1318 L1755.4468,29770.606" style="stroke-width:var(--lw-3);" />
        
        <path d="M2505.4468,29770.606 L1755.4468,29770.606" style="stroke-width:var(--lw-3);" />
        
        <path d="M2505.4468,30733.3689 L1755.4468,30733.3689" style="stroke-width:var(--lw-3);" />
        
        <circle cx="1740.63" cy="28300.606" r="25" style="stroke-width:var(--lw-3);" />
        
        <path d="M5825.63,30120.606 L5900.63,30120.606 L5900.63,31820.606 L5825.63,31820.606 Z" style="stroke-width:var(--lw-3);" />
        
        <circle cx="21332.06" cy="26045.606" r="25" style="stroke-width:var(--lw-3);" />
        
        <path d="M23593.13,26168.106 L23593.13,25870.606 L23228.13,25870.606 L23228.13,26168.106 A182.5,182.5 0 0 0 23593.13,26168.106" style="stroke-width:var(--lw-3);" />
        
        <path d="M22820.63,25870.606 L24000.63,25870.606" style="stroke-width:var(--lw-3);" />
        
        <path d="M22000.63,27550.606 L24000.63,27550.606 L24000.63,27170.606 L22000.63,27170.606 Z" style="stroke-width:var(--lw-3);" />
        
        <path d="M21120.63,26420.606 L22820.63,26420.606 L22820.63,25670.606 L21120.63,25670.606 Z" style="stroke-width:var(--lw-3);" />
        
        <path d="M21270.63,26320.606 L22670.63,26320.606 A50,50 0 0 0 22720.63,26270.606 L22720.63,25820.606 A50,50 0 0 0 22670.63,25770.606 L21270.63,25770.606 A50,50 0 0 0 21220.63,25820.606 L21220.63,26270.606 A50,50 0 0 0 21270.63,26320.606" style="stroke-width:var(--lw-3);" />
        
        <path d="M23310.63,27232.3845 A75,75 0 0 0 23235.63,27307.3845 L23235.63,27407.3845 A75,75 0 0 0 23310.63,27482.3845 L23510.63,27482.3845 A75,75 0 0 0 23585.63,27407.3845 L23585.63,27307.3845 A75,75 0 0 0 23510.63,27232.3845 Z" style="stroke-width:var(--lw-3);" />
        
        <path d="M22690.63,27232.3845 A75,75 0 0 1 22765.63,27307.3845 L22765.63,27407.3845 A75,75 0 0 1 22690.63,27482.3845 L22490.63,27482.3845 A75,75 0 0 1 22415.63,27407.3845 L22415.63,27307.3845 A75,75 0 0 1 22490.63,27232.3845 Z" style="stroke-width:var(--lw-3);" />
        
        <path d="M21000.63,27550.606 L21000.63,27430.606" style="stroke-width:var(--lw-5);" />
        
        <path d="M21000.63,26630.606 L21000.63,25670.606" style="stroke-width:var(--lw-5);" />
        
        <path d="M21120.63,27550.606 L21120.63,27430.606" style="stroke-width:var(--lw-5);" />
        
        <path d="M21120.63,26630.606 L21120.63,25670.606" style="stroke-width:var(--lw-5);" />
        
        <path d="M21000.63,27430.606 L21120.63,27430.606" style="stroke-width:var(--lw-5);" />
        
        <path d="M21000.63,26630.606 L21120.63,26630.606" style="stroke-width:var(--lw-5);" />
        
        <path d="M21120.63,26630.606 L21020.63,26630.606 L21020.63,26680.606 L21120.63,26680.606 Z" style="stroke-width:var(--lw-1);" />
        
        <path d="M21120.63,27380.606 L21020.63,27380.606 L21020.63,27430.606 L21120.63,27430.606 Z" style="stroke-width:var(--lw-1);" />
        
        <path d="M21120.63,27380.606 L21820.63,27380.606" style="stroke-width:var(--lw-1);" />
        
        <path d="M21120.6284,26680.606 A700,700 0 0,1 21820.63,27380.606" style="stroke-width:var(--lw-1);" />
        
        <path d="M18400.63,31255.606 L19000.63,31255.606" style="stroke-width:var(--lw-3);" />
        
        <path d="M18400.63,31255.606 L19000.63,29640.606" style="stroke-width:var(--lw-3);" />
        
        <path d="M19000.63,31255.606 L18400.63,29640.606" style="stroke-width:var(--lw-3);" />
        
        <path d="M15806.5497,32695.606 L15806.5497,32770.606 L16806.5497,32770.606 L16806.5497,32695.606 Z" style="stroke-width:var(--lw-3);" />
        
        <path d="M21446.5497,30695.606 L21446.5497,30770.606 L22446.5497,30770.606 L22446.5497,30695.606 Z" style="stroke-width:var(--lw-3);" />
        
        <path d="M22444.7103,22645.606 L22444.7103,22570.606 L21444.7103,22570.606 L21444.7103,22645.606 Z" style="stroke-width:var(--lw-3);" />
        
        <path d="M19850.63,29270.606 L19250.63,29270.606" style="stroke-width:var(--lw-3);" />
        
        <path d="M19850.63,29270.606 L19250.63,27670.606" style="stroke-width:var(--lw-3);" />
        
        <path d="M19250.63,29270.606 L19850.63,27670.606" style="stroke-width:var(--lw-3);" />
        
        <path d="M15880.63,24700.606 L15880.63,20100.606 L19820.63,20100.606 L19820.63,22000.606" style="stroke-width:var(--lw-1);" />
        
        <path d="M18430.63,33340.606 L18430.63,35240.606 L24370.63,35240.606 L24370.63,31340.606" style="stroke-width:var(--lw-1);" />
        
        <path d="M2500.63,25670.606 L2500.63,25170.606" style="stroke-width:var(--lw-1);" />
        
        <path d="M2750.63,26170.606 L2750.63,25170.606" style="stroke-width:var(--lw-1);" />
        
        <path d="M3000.63,26170.606 L3000.63,25170.606" style="stroke-width:var(--lw-1);" />
        
        <path d="M3250.63,26170.606 L3250.63,25170.606" style="stroke-width:var(--lw-1);" />
        
        <path d="M3500.63,26170.606 L3500.63,25170.606" style="stroke-width:var(--lw-1);" />
        
        <path d="M3750.63,26170.606 L3750.63,25170.606" style="stroke-width:var(--lw-1);" />
        
        <path d="M4000.63,26170.606 L4000.63,25170.606" style="stroke-width:var(--lw-1);" />
        
        <path d="M4250.63,26170.606 L2750.63,26170.606" style="stroke-width:var(--lw-1);" />
        
        <path d="M4250.63,26170.606 L4250.63,25170.606" style="stroke-width:var(--lw-1);" />
        
        <path d="M2750.63,25545.606 L2500.63,25670.606 L2750.63,25795.606" style="stroke-width:var(--lw-4);" />
        
        <path d="M4250.63,25670.606 L2500.63,25670.606" style="stroke-width:var(--lw-4);" />
        
        <path d="M2250.63,25170.606 L2750.63,26170.606" style="stroke-width:var(--lw-1);" />
        
        <path d="M17250.63,26670.606 L14750.63,26670.606 L14750.63,25670.606 L17250.63,25670.606" style="stroke-width:var(--lw-4);" />
        
        <path d="M17000.63,26795.606 L17250.63,26670.606 L17000.63,26545.606" style="stroke-width:var(--lw-4);" />
        
        <text dx="0" dy="200" fill="var(--text-color)" font-size="var(--dxf-big-font)" line-height="1.1" text-anchor="middle" transform="translate(4933.4072,29865.8908) translate(0,100) scale(1,-1)" x="0" y="0">20.7</text>
        
        <path d="M3830.63,32446.1318 L3830.63,31696.1318" style="stroke-width:var(--lw-3);" />
        
        <text dx="0" dy="200" fill="var(--text-color)" font-size="var(--dxf-big-font)" line-height="1.1" text-anchor="middle" transform="translate(4933.4072,26589.1404) translate(0,100) scale(1,-1)" x="0" y="0">11.9</text>
        
        <text dx="0" dy="200" fill="var(--text-color)" font-size="var(--dxf-big-font)" line-height="1.1" text-anchor="middle" transform="translate(3103.6733,27677.3842) translate(0,100) scale(1,-1)" x="0" y="0">3.2</text>
        
        <text dx="0" dy="200" fill="var(--text-color)" font-size="var(--dxf-big-font)" line-height="1.1" text-anchor="middle" transform="translate(7216.4927,29134.6221) translate(0,100) scale(1,-1)" x="0" y="0">17.0</text>
        
        <text dx="0" dy="200" fill="var(--text-color)" font-size="var(--dxf-big-font)" line-height="1.1" text-anchor="middle" transform="translate(7216.4927,26294.0695) translate(0,100) scale(1,-1)" x="0" y="0">2.9</text>
        
        <text dx="0" dy="200" fill="var(--text-color)" font-size="var(--dxf-big-font)" line-height="1.1" text-anchor="middle" transform="translate(9557.5277,26604.9923) translate(0,100) scale(1,-1)" x="0" y="0">4.9</text>
        
        <text dx="0" dy="200" fill="var(--text-color)" font-size="var(--dxf-big-font)" line-height="1.1" text-anchor="middle" transform="translate(4933.4072,23643.0442) translate(0,100) scale(1,-1)" x="0" y="0">6.7</text>
        
        <text dx="0" dy="200" fill="var(--text-color)" font-size="var(--dxf-big-font)" line-height="1.1" text-anchor="middle" transform="translate(7819.6738,23643.0442) translate(0,100) scale(1,-1)" x="0" y="0">13.8</text>
        
        <text dx="0" dy="200" fill="var(--text-color)" font-size="var(--dxf-big-font)" line-height="1.1" text-anchor="middle" transform="translate(17443.198,30929.3714) translate(0,100) scale(1,-1)" x="0" y="0">15.3</text>

        <text dx="0" dy="200" fill="var(--text-color)" font-size="var(--dxf-big-font)" line-height="1.1" text-anchor="middle" transform="translate(15659.5439,28768.9956) translate(0,100) scale(1,-1)" x="0" y="0">6.4</text>

        <text dx="0" dy="200" fill="var(--text-color)" font-size="var(--dxf-big-font)" line-height="1.1" text-anchor="middle" transform="translate(17758.8195,28768.9956) translate(0,100) scale(1,-1)" x="0" y="0">3.9</text>

        <text dx="0" dy="200" fill="var(--text-color)" font-size="var(--dxf-big-font)" line-height="1.1" text-anchor="middle" transform="translate(20676.6177,29071.0179) translate(0,100) scale(1,-1)" x="0" y="0">15.2</text>

        <text dx="0" dy="200" fill="var(--text-color)" font-size="var(--dxf-big-font)" line-height="1.1" text-anchor="middle" transform="translate(18064.4408,26195.281) translate(0,100) scale(1,-1)" x="0" y="0">3.5</text>

        <text dx="0" dy="200" fill="var(--text-color)" font-size="var(--dxf-big-font)" line-height="1.1" text-anchor="middle" transform="translate(20159.0889,26598.7262) translate(0,100) scale(1,-1)" x="0" y="0">3.3</text>
        
        <text dx="0" dy="200" fill="var(--text-color)" font-size="var(--dxf-big-font)" line-height="1.1" text-anchor="middle" transform="translate(23419.5708,26600.5458) translate(0,100) scale(1,-1)" x="0" y="0">5.4</text>
        
        <text dx="0" dy="200" fill="var(--text-color)" font-size="var(--dxf-big-font)" line-height="1.1" text-anchor="middle" transform="translate(20764.9446,24064.6972) translate(0,100) scale(1,-1)" x="0" y="0">14.6</text>
        <text dx="0" dy="200" fill="var(--text-color)" font-size="var(--dxf-big-font)" line-height="1.1" text-anchor="middle" transform="translate(12000,20200) translate(0,110) scale(1,-1)" x="0" y="0"> 2</text>
    </g>
</svg>