<svg xmlns="http://www.w3.org/2000/svg" class="svg-drawing" height="15340mm" version="1.1" viewBox="-299.37 -35640.606 24770.0 15640.0" width="24470mm">
    <g transform="scale(1,-1)">
        
        <path d="M1250.63,27170.606 L2700.63,27170.606" style="stroke-width:var(--lw-5);" />
        
        <path d="M3500.63,27170.606 L4250.63,27170.606" style="stroke-width:var(--lw-5);" />
        
        <path d="M1250.63,27290.606 L2150.63,27290.606" style="stroke-width:var(--lw-5);" />
        
        <path d="M2270.63,27290.606 L2700.63,27290.606" style="stroke-width:var(--lw-5);" />
        
        <path d="M3500.63,27290.606 L4130.63,27290.606" style="stroke-width:var(--lw-5);" />
        
        <path d="M6250.63,30370.606 L6250.63,30870.606 L6920.63,30870.606" style="stroke-width:var(--lw-6);" />
        
        <path d="M8420.63,30870.606 L9470.63,30870.606" style="stroke-width:var(--lw-6);" />
        
        <path d="M11000.63,29340.606 L11000.63,27170.606" style="stroke-width:var(--lw-6);" />
        
        <path d="M11000.63,26170.606 L11000.63,24000.606" style="stroke-width:var(--lw-6);" />
        
        <path d="M9470.63,22470.606 L8420.63,22470.606" style="stroke-width:var(--lw-6);" />
        
        <path d="M6920.63,22470.606 L6250.63,22470.606 L6250.63,25670.606" style="stroke-width:var(--lw-6);" />
        
        <path d="M6250.63,27170.606 L6250.63,28520.606" style="stroke-width:var(--lw-6);" />
        
        <path d="M6000.63,22470.606 L6000.63,24920.606" style="stroke-width:var(--lw-6);" />
        
        <path d="M8420.63,31340.606 L9470.63,31340.606" style="stroke-width:var(--lw-6);" />
        
        <path d="M11470.63,29340.606 L11470.63,27170.606" style="stroke-width:var(--lw-6);" />
        
        <path d="M11470.63,26170.606 L11470.63,24000.606" style="stroke-width:var(--lw-6);" />
        
        <path d="M9470.63,22000.606 L8420.63,22000.606" style="stroke-width:var(--lw-6);" />
        
        <path d="M6920.63,22000.606 L5330.63,22000.606" style="stroke-width:var(--lw-6);" />
        
        <path d="M4330.63,22000.606 L3780.63,22000.606" style="stroke-width:var(--lw-6);" />
        
        <path d="M2780.63,23500.606 L2780.63,24700.606" style="stroke-width:var(--lw-6);" />
        
        <path d="M6000.63,28520.606 L6000.63,27170.606" style="stroke-width:var(--lw-6);" />
        
        <path d="M6000.63,25670.606 L6000.63,25170.606 L5330.63,25170.606" style="stroke-width:var(--lw-6);" />
        
        <path d="M4330.63,25170.606 L2780.63,25170.606" style="stroke-width:var(--lw-6);" />
        
        <path d="M1250.63,26700.606 L1250.63,28520.606" style="stroke-width:var(--lw-6);" />
        
        <path d="M1250.63,29520.606 L1250.63,31340.606" style="stroke-width:var(--lw-6);" />
        
        <path d="M2780.63,32870.606 L3830.63,32870.606" style="stroke-width:var(--lw-6);" />
        
        <path d="M5330.63,32870.606 L6000.63,32870.606 L6000.63,30370.606" style="stroke-width:var(--lw-6);" />
        
        <path d="M6000.63,24920.606 L5330.63,24920.606" style="stroke-width:var(--lw-6);" />
        
        <path d="M4330.63,24920.606 L3250.63,24920.606" style="stroke-width:var(--lw-6);" />
        
        <path d="M780.63,29520.606 L780.63,31340.606" style="stroke-width:var(--lw-6);" />
        
        <path d="M2780.63,33340.606 L3830.63,33340.606" style="stroke-width:var(--lw-6);" />
        
        <path d="M5330.63,33340.606 L6470.63,33340.606 L6470.63,32590.606" style="stroke-width:var(--lw-6);" />
        
        <path d="M6920.63,22470.606 L6920.63,22000.606" style="stroke-width:var(--lw-6);" />
        
        <path d="M8420.63,22470.606 L8420.63,22000.606" style="stroke-width:var(--lw-6);" />
        
        <path d="M9470.63,22470.606 L9470.63,22000.606" style="stroke-width:var(--lw-6);" />
        
        <path d="M11000.63,24000.606 L11470.63,24000.606" style="stroke-width:var(--lw-6);" />
        
        <path d="M6920.63,30870.606 L6920.63,31340.606" style="stroke-width:var(--lw-6);" />
        
        <path d="M8420.63,30870.606 L8420.63,31340.606" style="stroke-width:var(--lw-6);" />
        
        <path d="M9470.63,30870.606 L9470.63,31340.606" style="stroke-width:var(--lw-6);" />
        
        <path d="M11000.63,29340.606 L11470.63,29340.606" style="stroke-width:var(--lw-6);" />
        
        <path d="M5330.63,25170.606 L5330.63,24920.606" style="stroke-width:var(--lw-6);" />
        
        <path d="M5330.63,22470.606 L5330.63,22000.606" style="stroke-width:var(--lw-6);" />
        
        <path d="M4330.63,25170.606 L4330.63,24920.606" style="stroke-width:var(--lw-6);" />
        
        <path d="M4330.63,22470.606 L4330.63,22000.606" style="stroke-width:var(--lw-6);" />
        
        <path d="M2780.63,25170.606 L2780.63,24700.606" style="stroke-width:var(--lw-6);" />
        
        <path d="M1250.63,26700.606 L490.63,26700.606" style="stroke-width:var(--lw-6);" />
        
        <path d="M11000.63,26170.606 L11470.63,26170.606" style="stroke-width:var(--lw-6);" />
        
        <path d="M11000.63,27170.606 L11470.63,27170.606" style="stroke-width:var(--lw-6);" />
        
        <path d="M490.63,28520.606 L1250.63,28520.606" style="stroke-width:var(--lw-6);" />
        
        <path d="M780.63,29520.606 L1250.63,29520.606" style="stroke-width:var(--lw-6);" />
        
        <path d="M3250.63,24920.606 L3250.63,23500.606" style="stroke-width:var(--lw-6);" />
        
        <path d="M3780.63,22470.606 L4330.63,22470.606" style="stroke-width:var(--lw-6);" />
        
        <path d="M5330.63,22470.606 L6000.63,22470.606" style="stroke-width:var(--lw-6);" />
        
        <path d="M6250.63,30370.606 L6000.63,30370.606" style="stroke-width:var(--lw-6);" />
        
        <path d="M6250.63,25670.606 L6000.63,25670.606" style="stroke-width:var(--lw-6);" />
        
        <path d="M6000.63,27170.606 L6250.63,27170.606" style="stroke-width:var(--lw-6);" />
        
        <path d="M6250.63,28520.606 L6000.63,28520.606" style="stroke-width:var(--lw-6);" />
        
        <path d="M490.63,26700.606 L490.63,28520.606" style="stroke-width:var(--lw-6);" />
        
        <path d="M2780.63,20800.606 L3250.63,20800.606 L3250.63,20000.606 L2780.63,20000.606 Z" style="stroke-width:var(--lw-6);" />
        
        <path d="M5780.63,20500.606 L6920.63,20500.606 L6920.63,20000.606 L5780.63,20000.606 Z" style="stroke-width:var(--lw-6);" />
        
        <path d="M5330.63,35340.606 L6470.63,35340.606 L6470.63,34840.606 L5330.63,34840.606 Z" style="stroke-width:var(--lw-6);" />
        
        <path d="M11000.63,35340.606 L11470.63,35340.606 L11470.63,34540.606 L11000.63,34540.606 Z" style="stroke-width:var(--lw-6);" />
        
        <path d="M2780.63,23500.606 L2780.63,20000.606 L6920.63,20000.606 L6920.63,22000.606" style="stroke-width:var(--lw-5);" />
        
        <path d="M5330.63,33340.606 L5330.63,35340.606 L11470.63,35340.606 L11470.63,29340.606" style="stroke-width:var(--lw-5);" />
        
        <path d="M3780.63,22470.606 L3780.63,22000.606" style="stroke-width:var(--lw-6);" />
        
        <path d="M3250.63,23500.606 L2780.63,23500.606" style="stroke-width:var(--lw-6);" />
        
        <path d="M6920.63,31340.606 L6920.63,32590.606 L6470.63,32590.606" style="stroke-width:var(--lw-6);" />
        
        <path d="M11350.63,22120.606 L11250.63,22120.606 L11250.63,24000.606 L11350.63,24000.606 Z" style="stroke-width:var(--lw-1);" />
        
        <path d="M11250.63,23930.606 L11350.63,23930.606 L11350.63,24000.606 L11250.63,24000.606 Z" style="stroke-width:var(--lw-1);" />
        
        <path d="M11250.63,22290.606 L11350.63,22290.606 L11350.63,22220.606 L11250.63,22220.606 Z" style="stroke-width:var(--lw-1);" />
        
        <path d="M11350.63,22120.606 L11350.63,22220.606 L9470.63,22220.606 L9470.63,22120.606 Z" style="stroke-width:var(--lw-1);" />
        
        <path d="M9540.63,22220.606 L9540.63,22120.606 L9470.63,22120.606 L9470.63,22220.606 Z" style="stroke-width:var(--lw-1);" />
        
        <path d="M11180.63,22220.606 L11180.63,22120.606 L11250.63,22120.606 L11250.63,22220.606 Z" style="stroke-width:var(--lw-1);" />
        
        <path d="M11470.63,24000.606 L11470.63,22000.606 L9470.63,22000.606" style="stroke-width:var(--lw-5);" />
        
        <path d="M8420.63,22000.606 L6920.63,22000.606" style="stroke-width:var(--lw-5);" />
        
        <path d="M8420.63,22120.606 L8420.63,22220.606 L6920.63,22220.606 L6920.63,22120.606 Z" style="stroke-width:var(--lw-1);" />
        
        <path d="M7990.63,22220.606 L7990.63,22120.606 L7920.63,22120.606 L7920.63,22220.606 Z" style="stroke-width:var(--lw-1);" />
        
        <path d="M8350.63,22220.606 L8350.63,22120.606 L8420.63,22120.606 L8420.63,22220.606 Z" style="stroke-width:var(--lw-1);" />
        
        <path d="M6990.63,22220.606 L6990.63,22120.606 L6920.63,22120.606 L6920.63,22220.606 Z" style="stroke-width:var(--lw-1);" />
        
        <path d="M7920.63,22220.606 L7920.63,22120.606 L7850.63,22120.606 L7850.63,22220.606 Z" style="stroke-width:var(--lw-1);" />
        
        <path d="M6920.63,31120.606 L6920.63,31220.606 L6970.63,31220.606 L6970.63,31120.606 Z" style="stroke-width:var(--lw-1);" />
        
        <path d="M7870.63,31120.606 L7870.63,31220.606 L7920.63,31220.606 L7920.63,31120.606 Z" style="stroke-width:var(--lw-1);" />
        
        <path d="M6970.63,31220.606 L6970.63,32120.606" style="stroke-width:var(--lw-1);" />
        
        <path d="M7870.63,31220.6039 A900,900 0 0,1 6970.63,32120.606" style="stroke-width:var(--lw-1);" />
        
        <path d="M8420.63,31220.606 L8420.63,31120.606 L7920.63,31120.606 L7920.63,31220.606 Z" style="stroke-width:var(--lw-1);" />
        
        <path d="M7990.63,31120.606 L7990.63,31220.606 L7920.63,31220.606 L7920.63,31120.606 Z" style="stroke-width:var(--lw-1);" />
        
        <path d="M8350.63,31120.606 L8350.63,31220.606 L8420.63,31220.606 L8420.63,31120.606 Z" style="stroke-width:var(--lw-1);" />
        
        <path d="M11470.63,26170.606 L11470.63,27170.606" style="stroke-width:var(--lw-5);" />
        
        <path d="M11350.63,27170.606 L11250.63,27170.606 L11250.63,26170.606 L11350.63,26170.606 Z" style="stroke-width:var(--lw-1);" />
        
        <path d="M11250.63,26240.606 L11350.63,26240.606 L11350.63,26170.606 L11250.63,26170.606 Z" style="stroke-width:var(--lw-1);" />
        
        <path d="M11250.63,27170.606 L11350.63,27170.606 L11350.63,27100.606 L11250.63,27100.606 Z" style="stroke-width:var(--lw-1);" />
        
        <path d="M11350.63,31220.606 L11250.63,31220.606 L11250.63,29340.606 L11350.63,29340.606 Z" style="stroke-width:var(--lw-1);" />
        
        <path d="M11250.63,29410.606 L11350.63,29410.606 L11350.63,29340.606 L11250.63,29340.606 Z" style="stroke-width:var(--lw-1);" />
        
        <path d="M11250.63,31050.606 L11350.63,31050.606 L11350.63,31120.606 L11250.63,31120.606 Z" style="stroke-width:var(--lw-1);" />
        
        <path d="M11350.63,31220.606 L11350.63,31120.606 L9470.63,31120.606 L9470.63,31220.606 Z" style="stroke-width:var(--lw-1);" />
        
        <path d="M9540.63,31120.606 L9540.63,31220.606 L9470.63,31220.606 L9470.63,31120.606 Z" style="stroke-width:var(--lw-1);" />
        
        <path d="M11180.63,31120.606 L11180.63,31220.606 L11250.63,31220.606 L11250.63,31120.606 Z" style="stroke-width:var(--lw-1);" />
        
        <path d="M5330.63,32870.606 L5330.63,33340.606" style="stroke-width:var(--lw-6);" />
        
        <path d="M3830.63,32870.606 L3830.63,33340.606" style="stroke-width:var(--lw-6);" />
        
        <path d="M2780.63,32870.606 L2780.63,33340.606" style="stroke-width:var(--lw-6);" />
        
        <path d="M1250.63,31340.606 L780.63,31340.606" style="stroke-width:var(--lw-6);" />
        
        <path d="M900.63,33220.606 L1000.63,33220.606 L1000.63,31340.606 L900.63,31340.606 Z" style="stroke-width:var(--lw-1);" />
        
        <path d="M1000.63,31410.606 L900.63,31410.606 L900.63,31340.606 L1000.63,31340.606 Z" style="stroke-width:var(--lw-1);" />
        
        <path d="M1000.63,33050.606 L900.63,33050.606 L900.63,33120.606 L1000.63,33120.606 Z" style="stroke-width:var(--lw-1);" />
        
        <path d="M900.63,33220.606 L900.63,33120.606 L2780.63,33120.606 L2780.63,33220.606 Z" style="stroke-width:var(--lw-1);" />
        
        <path d="M2710.63,33120.606 L2710.63,33220.606 L2780.63,33220.606 L2780.63,33120.606 Z" style="stroke-width:var(--lw-1);" />
        
        <path d="M1070.63,33120.606 L1070.63,33220.606 L1000.63,33220.606 L1000.63,33120.606 Z" style="stroke-width:var(--lw-1);" />
        
        <path d="M780.63,31340.606 L780.63,33340.606 L2780.63,33340.606" style="stroke-width:var(--lw-5);" />
        
        <path d="M3830.63,33340.606 L5330.63,33340.606" style="stroke-width:var(--lw-5);" />
        
        <path d="M3830.63,33220.606 L3830.63,33120.606 L5330.63,33120.606 L5330.63,33220.606 Z" style="stroke-width:var(--lw-1);" />
        
        <path d="M4260.63,33120.606 L4260.63,33220.606 L4330.63,33220.606 L4330.63,33120.606 Z" style="stroke-width:var(--lw-1);" />
        
        <path d="M3900.63,33120.606 L3900.63,33220.606 L3830.63,33220.606 L3830.63,33120.606 Z" style="stroke-width:var(--lw-1);" />
        
        <path d="M5260.63,33120.606 L5260.63,33220.606 L5330.63,33220.606 L5330.63,33120.606 Z" style="stroke-width:var(--lw-1);" />
        
        <path d="M4330.63,33120.606 L4330.63,33220.606 L4400.63,33220.606 L4400.63,33120.606 Z" style="stroke-width:var(--lw-1);" />
        
        <path d="M780.63,29520.606 L780.63,28520.606" style="stroke-width:var(--lw-5);" />
        
        <path d="M900.63,24820.606 L1000.63,24820.606 L1000.63,26700.606 L900.63,26700.606 Z" style="stroke-width:var(--lw-1);" />
        
        <path d="M1000.63,26630.606 L900.63,26630.606 L900.63,26700.606 L1000.63,26700.606 Z" style="stroke-width:var(--lw-1);" />
        
        <path d="M1000.63,24990.606 L900.63,24990.606 L900.63,24920.606 L1000.63,24920.606 Z" style="stroke-width:var(--lw-1);" />
        
        <path d="M900.63,24820.606 L900.63,24920.606 L2780.63,24920.606 L2780.63,24820.606 Z" style="stroke-width:var(--lw-1);" />
        
        <path d="M2710.63,24920.606 L2710.63,24820.606 L2780.63,24820.606 L2780.63,24920.606 Z" style="stroke-width:var(--lw-1);" />
        
        <path d="M1070.63,24920.606 L1070.63,24820.606 L1000.63,24820.606 L1000.63,24920.606 Z" style="stroke-width:var(--lw-1);" />
        
        <path d="M780.63,26700.606 L780.63,24700.606 L2780.63,24700.606" style="stroke-width:var(--lw-5);" />
        
        <path d="M1250.63,26700.606 L1250.63,25170.606 L2780.63,25170.606" style="stroke-width:var(--lw-1);" />
        
        <path d="M1000.63,28520.606 L900.63,28520.606 L900.63,28570.606 L1000.63,28570.606 Z" style="stroke-width:var(--lw-1);" />
        
        <path d="M1000.63,29470.606 L900.63,29470.606 L900.63,29520.606 L1000.63,29520.606 Z" style="stroke-width:var(--lw-1);" />
        
        <path d="M900.63,28570.606 L0.63,28570.606" style="stroke-width:var(--lw-1);" />
        
        <path d="M900.6321,29470.606 A900,900 0 0,1 0.63,28570.606" style="stroke-width:var(--lw-1);" />
        
        <path d="M2900.63,22120.606 L3000.63,22120.606 L3000.63,23500.606 L2900.63,23500.606 Z" style="stroke-width:var(--lw-1);" />
        
        <path d="M3000.63,23430.606 L2900.63,23430.606 L2900.63,23500.606 L3000.63,23500.606 Z" style="stroke-width:var(--lw-1);" />
        
        <path d="M3000.63,22290.606 L2900.63,22290.606 L2900.63,22220.606 L3000.63,22220.606 Z" style="stroke-width:var(--lw-1);" />
        
        <path d="M2900.63,22120.606 L2900.63,22220.606 L3780.63,22220.606 L3780.63,22120.606 Z" style="stroke-width:var(--lw-1);" />
        
        <path d="M3710.63,22220.606 L3710.63,22120.606 L3780.63,22120.606 L3780.63,22220.606 Z" style="stroke-width:var(--lw-1);" />
        
        <path d="M3070.63,22220.606 L3070.63,22120.606 L3000.63,22120.606 L3000.63,22220.606 Z" style="stroke-width:var(--lw-1);" />
        
        <path d="M1250.63,28400.606 L4130.63,28400.606" style="stroke-width:var(--lw-5);" />
        
        <path d="M1250.63,28520.606 L4250.63,28520.606" style="stroke-width:var(--lw-5);" />
        
        <path d="M4250.63,27170.606 L4250.63,28520.606" style="stroke-width:var(--lw-5);" />
        
        <path d="M4130.63,27290.606 L4130.63,28400.606" style="stroke-width:var(--lw-5);" />
        
        <path d="M3500.63,27170.606 L3500.63,27290.606" style="stroke-width:var(--lw-5);" />
        
        <path d="M2700.63,27170.606 L2700.63,27290.606" style="stroke-width:var(--lw-5);" />
        
        <path d="M6000.63,25670.606 L6000.63,26170.606" style="stroke-width:var(--lw-5);" />
        
        <path d="M6250.63,26170.606 L6250.63,25670.606" style="stroke-width:var(--lw-5);" />
        
        <path d="M8420.63,22470.606 L8420.63,22590.606" style="stroke-width:var(--lw-5);" />
        
        <path d="M8420.63,23490.606 L8420.63,25400.606" style="stroke-width:var(--lw-5);" />
        
        <path d="M8540.63,22470.606 L8540.63,22590.606" style="stroke-width:var(--lw-5);" />
        
        <path d="M8540.63,23490.606 L8540.63,25400.606" style="stroke-width:var(--lw-5);" />
        
        <path d="M7270.63,25520.606 L9980.63,25520.606" style="stroke-width:var(--lw-5);" />
        
        <path d="M7150.63,25400.606 L8420.63,25400.606" style="stroke-width:var(--lw-5);" />
        
        <path d="M8540.63,25400.606 L10100.63,25400.606" style="stroke-width:var(--lw-5);" />
        
        <path d="M7150.63,25520.606 L7150.63,26170.606" style="stroke-width:var(--lw-5);" />
        
        <path d="M7270.63,25520.606 L7270.63,26170.606" style="stroke-width:var(--lw-5);" />
        
        <path d="M10100.63,25400.606 L10100.63,26170.606" style="stroke-width:var(--lw-5);" />
        
        <path d="M9980.63,25520.606 L9980.63,26170.606" style="stroke-width:var(--lw-5);" />
        
        <path d="M9980.63,26170.606 L10100.63,26170.606" style="stroke-width:var(--lw-5);" />
        
        <path d="M7270.63,26170.606 L9980.63,26170.606 L9980.63,25520.606 L7270.63,25520.606 Z" style="stroke-width:var(--lw-3);" />
        
        <path d="M7270.63,28070.606 L9980.63,28070.606 L9980.63,27170.606 L7270.63,27170.606 Z" style="stroke-width:var(--lw-3);" />
        
        <path d="M6000.63,26170.606 L6250.63,26170.606" style="stroke-width:var(--lw-5);" />
        
        <path d="M14250.63,27170.606 L17430.63,27170.606" style="stroke-width:var(--lw-5);" />
        
        <path d="M18330.63,27170.606 L19000.63,27170.606" style="stroke-width:var(--lw-5);" />
        
        <path d="M14250.63,27290.606 L15210.63,27290.606" style="stroke-width:var(--lw-5);" />
        
        <path d="M15330.63,27290.606 L17130.63,27290.606" style="stroke-width:var(--lw-5);" />
        
        <path d="M17250.63,27290.606 L17430.63,27290.606" style="stroke-width:var(--lw-5);" />
        
        <path d="M18330.63,27290.606 L19000.63,27290.606" style="stroke-width:var(--lw-5);" />
        
        <path d="M14250.63,29520.606 L17130.63,29520.606" style="stroke-width:var(--lw-5);" />
        
        <path d="M17250.63,29520.606 L17430.63,29520.606" style="stroke-width:var(--lw-5);" />
        
        <path d="M18330.63,29520.606 L19000.63,29520.606" style="stroke-width:var(--lw-5);" />
        
        <path d="M18330.63,29640.606 L19000.63,29640.606" style="stroke-width:var(--lw-5);" />
        
        <path d="M17250.63,27290.606 L17250.63,28620.606" style="stroke-width:var(--lw-5);" />
        
        <path d="M17250.63,29420.606 L17250.63,29520.606" style="stroke-width:var(--lw-5);" />
        
        <path d="M17130.63,27290.606 L17130.63,28620.606" style="stroke-width:var(--lw-5);" />
        
        <path d="M15330.63,27290.606 L15330.63,28090.606 L15210.63,28090.606 L15210.63,27290.606" style="stroke-width:var(--lw-5);" />
        
        <path d="M17130.63,29420.606 L17130.63,29520.606" style="stroke-width:var(--lw-5);" />
        
        <path d="M19250.63,27550.606 L19920.63,27550.606" style="stroke-width:var(--lw-5);" />
        
        <path d="M20820.63,27550.606 L21000.63,27550.606" style="stroke-width:var(--lw-5);" />
        
        <path d="M21120.63,27550.606 L24000.63,27550.606" style="stroke-width:var(--lw-5);" />
        
        <path d="M19250.63,27670.606 L19920.63,27670.606" style="stroke-width:var(--lw-5);" />
        
        <path d="M20820.63,27670.606 L24000.63,27670.606" style="stroke-width:var(--lw-5);" />
        
        <path d="M19250.63,25670.606 L19920.63,25670.606" style="stroke-width:var(--lw-5);" />
        
        <path d="M20820.63,25670.606 L21000.63,25670.606" style="stroke-width:var(--lw-5);" />
        
        <path d="M21120.63,25670.606 L24000.63,25670.606" style="stroke-width:var(--lw-5);" />
        
        <path d="M19250.63,25550.606 L19920.63,25550.606" style="stroke-width:var(--lw-5);" />
        
        <path d="M20820.63,25550.606 L24000.63,25550.606" style="stroke-width:var(--lw-5);" />
        
        <path d="M21000.63,27550.606 L21000.63,27430.606" style="stroke-width:var(--lw-5);" />
        
        <path d="M21000.63,26630.606 L21000.63,25670.606" style="stroke-width:var(--lw-5);" />
        
        <path d="M21120.63,27550.606 L21120.63,27430.606" style="stroke-width:var(--lw-5);" />
        
        <path d="M21120.63,26630.606 L21120.63,25670.606" style="stroke-width:var(--lw-5);" />
        
        <path d="M19000.63,30370.606 L19000.63,29640.606" style="stroke-width:var(--lw-5);" />
        
        <path d="M19000.63,29520.606 L19000.63,28520.606" style="stroke-width:var(--lw-5);" />
        
        <path d="M19250.63,30370.606 L19250.63,28520.606" style="stroke-width:var(--lw-5);" />
        
        <path d="M18330.63,29640.606 L18330.63,29520.606" style="stroke-width:var(--lw-5);" />
        
        <path d="M18330.63,27290.606 L18330.63,27170.606" style="stroke-width:var(--lw-5);" />
        
        <path d="M17430.63,29640.606 L17430.63,29520.606" style="stroke-width:var(--lw-5);" />
        
        <path d="M17430.63,27290.606 L17430.63,27170.606" style="stroke-width:var(--lw-5);" />
        
        <path d="M19920.63,27670.606 L19920.63,27550.606" style="stroke-width:var(--lw-5);" />
        
        <path d="M19920.63,25670.606 L19920.63,25550.606" style="stroke-width:var(--lw-5);" />
        
        <path d="M20820.63,27670.606 L20820.63,27550.606" style="stroke-width:var(--lw-5);" />
        
        <path d="M20820.63,25670.606 L20820.63,25550.606" style="stroke-width:var(--lw-5);" />
        
        <path d="M21000.63,27430.606 L21120.63,27430.606" style="stroke-width:var(--lw-5);" />
        
        <path d="M21000.63,26630.606 L21120.63,26630.606" style="stroke-width:var(--lw-5);" />
        
        <path d="M17430.63,29640.606 L14250.63,29640.606" style="stroke-width:var(--lw-5);" />
        
        <path d="M19250.63,30370.606 L19250.63,30870.606 L19920.63,30870.606" style="stroke-width:var(--lw-6);" />
        
        <path d="M21420.63,30870.606 L22470.63,30870.606" style="stroke-width:var(--lw-6);" />
        
        <path d="M24000.63,29340.606 L24000.63,27170.606" style="stroke-width:var(--lw-6);" />
        
        <path d="M24000.63,26170.606 L24000.63,24000.606" style="stroke-width:var(--lw-6);" />
        
        <path d="M22470.63,22470.606 L21420.63,22470.606" style="stroke-width:var(--lw-6);" />
        
        <path d="M19920.63,22470.606 L19250.63,22470.606 L19250.63,25670.606" style="stroke-width:var(--lw-6);" />
        
        <path d="M19250.63,27170.606 L19250.63,28520.606" style="stroke-width:var(--lw-6);" />
        
        <path d="M21420.63,31340.606 L22470.63,31340.606" style="stroke-width:var(--lw-6);" />
        
        <path d="M24470.63,29340.606 L24470.63,27170.606" style="stroke-width:var(--lw-6);" />
        
        <path d="M24470.63,26170.606 L24470.63,24000.606" style="stroke-width:var(--lw-6);" />
        
        <path d="M22470.63,22000.606 L21420.63,22000.606" style="stroke-width:var(--lw-6);" />
        
        <path d="M19920.63,22000.606 L18780.63,22000.606 L18780.63,22750.606" style="stroke-width:var(--lw-6);" />
        
        <path d="M19000.63,28520.606 L19000.63,27170.606" style="stroke-width:var(--lw-6);" />
        
        <path d="M19000.63,25670.606 L19000.63,25170.606 L18330.63,25170.606" style="stroke-width:var(--lw-6);" />
        
        <path d="M16830.63,25170.606 L15780.63,25170.606" style="stroke-width:var(--lw-6);" />
        
        <path d="M14250.63,26700.606 L14250.63,28520.606" style="stroke-width:var(--lw-6);" />
        
        <path d="M14250.63,29520.606 L14250.63,31340.606" style="stroke-width:var(--lw-6);" />
        
        <path d="M15780.63,32870.606 L16830.63,32870.606" style="stroke-width:var(--lw-6);" />
        
        <path d="M18330.63,32870.606 L19000.63,32870.606 L19000.63,30370.606" style="stroke-width:var(--lw-6);" />
        
        <path d="M16830.63,24700.606 L15780.63,24700.606" style="stroke-width:var(--lw-6);" />
        
        <path d="M13490.63,26700.606 L13490.63,28520.606" style="stroke-width:var(--lw-6);" />
        
        <path d="M13780.63,29520.606 L13780.63,31340.606" style="stroke-width:var(--lw-6);" />
        
        <path d="M15780.63,33340.606 L16830.63,33340.606" style="stroke-width:var(--lw-6);" />
        
        <path d="M18330.63,33340.606 L19470.63,33340.606 L19470.63,32590.606" style="stroke-width:var(--lw-6);" />
        
        <path d="M15250.63,27170.606 L15250.63,25170.606" style="stroke-width:var(--lw-1);" />
        
        <path d="M15500.63,27170.606 L15500.63,25170.606" style="stroke-width:var(--lw-1);" />
        
        <path d="M15750.63,27170.606 L15750.63,25170.606" style="stroke-width:var(--lw-1);" />
        
        <path d="M16000.63,27170.606 L16000.63,25170.606" style="stroke-width:var(--lw-1);" />
        
        <path d="M16250.63,27170.606 L16250.63,25170.606" style="stroke-width:var(--lw-1);" />
        
        <path d="M16500.63,27170.606 L16500.63,25170.606" style="stroke-width:var(--lw-1);" />
        
        <path d="M16750.63,27170.606 L16750.63,25170.606" style="stroke-width:var(--lw-1);" />
        
        <path d="M17000.63,27170.606 L17000.63,25170.606" style="stroke-width:var(--lw-1);" />
        
        <path d="M17250.63,26170.606 L15250.63,26170.606" style="stroke-width:var(--lw-1);" />
        
        <path d="M17250.63,27170.606 L17250.63,25170.606" style="stroke-width:var(--lw-5);" />
        
        <path d="M19250.63,30370.606 L19000.63,30370.606" style="stroke-width:var(--lw-6);" />
        
        <path d="M19250.63,25670.606 L19000.63,25670.606" style="stroke-width:var(--lw-6);" />
        
        <path d="M19000.63,27170.606 L19250.63,27170.606" style="stroke-width:var(--lw-6);" />
        
        <path d="M19250.63,28520.606 L19000.63,28520.606" style="stroke-width:var(--lw-6);" />
        
        <path d="M19920.63,22470.606 L19920.63,22000.606" style="stroke-width:var(--lw-6);" />
        
        <path d="M21420.63,22470.606 L21420.63,22000.606" style="stroke-width:var(--lw-6);" />
        
        <path d="M22470.63,22470.606 L22470.63,22000.606" style="stroke-width:var(--lw-6);" />
        
        <path d="M24000.63,24000.606 L24470.63,24000.606" style="stroke-width:var(--lw-6);" />
        
        <path d="M19920.63,30870.606 L19920.63,31340.606" style="stroke-width:var(--lw-6);" />
        
        <path d="M21420.63,30870.606 L21420.63,31340.606" style="stroke-width:var(--lw-6);" />
        
        <path d="M22470.63,30870.606 L22470.63,31340.606" style="stroke-width:var(--lw-6);" />
        
        <path d="M24000.63,29340.606 L24470.63,29340.606" style="stroke-width:var(--lw-6);" />
        
        <path d="M18330.63,32870.606 L18330.63,33340.606" style="stroke-width:var(--lw-6);" />
        
        <path d="M16830.63,32870.606 L16830.63,33340.606" style="stroke-width:var(--lw-6);" />
        
        <path d="M15780.63,32870.606 L15780.63,33340.606" style="stroke-width:var(--lw-6);" />
        
        <path d="M14250.63,31340.606 L13780.63,31340.606" style="stroke-width:var(--lw-6);" />
        
        <path d="M15780.63,25170.606 L15780.63,24700.606" style="stroke-width:var(--lw-6);" />
        
        <path d="M14250.63,26700.606 L13490.63,26700.606" style="stroke-width:var(--lw-6);" />
        
        <path d="M24000.63,26170.606 L24470.63,26170.606" style="stroke-width:var(--lw-6);" />
        
        <path d="M24000.63,27170.606 L24470.63,27170.606" style="stroke-width:var(--lw-6);" />
        
        <path d="M13490.63,28520.606 L14250.63,28520.606" style="stroke-width:var(--lw-6);" />
        
        <path d="M13780.63,29520.606 L14250.63,29520.606" style="stroke-width:var(--lw-6);" />
        
        <path d="M18330.63,24700.606 L18330.63,25170.606" style="stroke-width:var(--lw-6);" />
        
        <path d="M16830.63,24700.606 L16830.63,25170.606" style="stroke-width:var(--lw-6);" />
        
        <path d="M15780.63,24700.606 L15780.63,20000.606 L19920.63,20000.606 L19920.63,22000.606" style="stroke-width:var(--lw-5);" />
        
        <path d="M18330.63,33340.606 L18330.63,35340.606 L24470.63,35340.606 L24470.63,29340.606" style="stroke-width:var(--lw-5);" />
        
        <path d="M18330.63,24700.606 L18330.63,22750.606 L18780.63,22750.606" style="stroke-width:var(--lw-6);" />
        
        <path d="M19920.63,31340.606 L19920.63,32590.606 L19470.63,32590.606" style="stroke-width:var(--lw-6);" />
        
        <path d="M13780.63,31340.606 L13780.63,33340.606 L15780.63,33340.606" style="stroke-width:var(--lw-5);" />
        
        <path d="M14250.63,31340.606 L14250.63,32870.606 L15780.63,32870.606" style="stroke-width:var(--lw-1);" />
        
        <path d="M16830.63,33340.606 L18330.63,33340.606" style="stroke-width:var(--lw-5);" />
        
        <path d="M16830.63,32870.606 L18330.63,32870.606" style="stroke-width:var(--lw-1);" />
        
        <path d="M13780.63,29520.606 L13780.63,28520.606" style="stroke-width:var(--lw-5);" />
        
        <path d="M14250.63,29520.606 L14250.63,28520.606" style="stroke-width:var(--lw-1);" />
        
        <path d="M14250.63,26700.606 L14250.63,25170.606 L15780.63,25170.606" style="stroke-width:var(--lw-1);" />
        
        <path d="M13780.63,26700.606 L13780.63,24700.606 L15780.63,24700.606" style="stroke-width:var(--lw-1);" />
        
        <path d="M13900.63,33220.606 L13900.63,33120.606 L15780.63,33120.606 L15780.63,33220.606 Z" style="stroke-width:var(--lw-1);" />
        
        <path d="M15710.63,33120.606 L15710.63,33220.606 L15780.63,33220.606 L15780.63,33120.606 Z" style="stroke-width:var(--lw-1);" />
        
        <path d="M14070.63,33120.606 L14070.63,33220.606 L14000.63,33220.606 L14000.63,33120.606 Z" style="stroke-width:var(--lw-1);" />
        
        <path d="M13900.63,33220.606 L14000.63,33220.606 L14000.63,31340.606 L13900.63,31340.606 Z" style="stroke-width:var(--lw-1);" />
        
        <path d="M14000.63,31410.606 L13900.63,31410.606 L13900.63,31340.606 L14000.63,31340.606 Z" style="stroke-width:var(--lw-1);" />
        
        <path d="M14000.63,33050.606 L13900.63,33050.606 L13900.63,33120.606 L14000.63,33120.606 Z" style="stroke-width:var(--lw-1);" />
        
        <path d="M16830.63,33220.606 L16830.63,33120.606 L18330.63,33120.606 L18330.63,33220.606 Z" style="stroke-width:var(--lw-1);" />
        
        <path d="M17260.63,33120.606 L17260.63,33220.606 L17330.63,33220.606 L17330.63,33120.606 Z" style="stroke-width:var(--lw-1);" />
        
        <path d="M16900.63,33120.606 L16900.63,33220.606 L16830.63,33220.606 L16830.63,33120.606 Z" style="stroke-width:var(--lw-1);" />
        
        <path d="M16830.63,25170.606 L18330.63,25170.606" style="stroke-width:var(--lw-5);" />
        
        <path d="M18260.63,33120.606 L18260.63,33220.606 L18330.63,33220.606 L18330.63,33120.606 Z" style="stroke-width:var(--lw-1);" />
        
        <path d="M17330.63,33120.606 L17330.63,33220.606 L17400.63,33220.606 L17400.63,33120.606 Z" style="stroke-width:var(--lw-1);" />
        
        <path d="M22470.63,30870.606 L24000.63,30870.606 L24000.63,29340.606" style="stroke-width:var(--lw-1);" />
        
        <path d="M24350.63,31220.606 L24250.63,31220.606 L24250.63,29340.606 L24350.63,29340.606 Z" style="stroke-width:var(--lw-1);" />
        
        <path d="M24250.63,29410.606 L24350.63,29410.606 L24350.63,29340.606 L24250.63,29340.606 Z" style="stroke-width:var(--lw-1);" />
        
        <path d="M24250.63,31050.606 L24350.63,31050.606 L24350.63,31120.606 L24250.63,31120.606 Z" style="stroke-width:var(--lw-1);" />
        
        <path d="M24350.63,31220.606 L24350.63,31120.606 L22470.63,31120.606 L22470.63,31220.606 Z" style="stroke-width:var(--lw-1);" />
        
        <path d="M22540.63,31120.606 L22540.63,31220.606 L22470.63,31220.606 L22470.63,31120.606 Z" style="stroke-width:var(--lw-1);" />
        
        <path d="M24180.63,31120.606 L24180.63,31220.606 L24250.63,31220.606 L24250.63,31120.606 Z" style="stroke-width:var(--lw-1);" />
        
        <path d="M13900.63,28520.606 L14000.63,28520.606 L14000.63,29520.606 L13900.63,29520.606 Z" style="stroke-width:var(--lw-1);" />
        
        <path d="M14000.63,29450.606 L13900.63,29450.606 L13900.63,29520.606 L14000.63,29520.606 Z" style="stroke-width:var(--lw-1);" />
        
        <path d="M14000.63,28520.606 L13900.63,28520.606 L13900.63,28590.606 L14000.63,28590.606 Z" style="stroke-width:var(--lw-1);" />
        
        <path d="M24470.63,26170.606 L24470.63,27170.606" style="stroke-width:var(--lw-5);" />
        
        <path d="M24000.63,26170.606 L24000.63,27170.606" style="stroke-width:var(--lw-1);" />
        
        <path d="M24350.63,27170.606 L24250.63,27170.606 L24250.63,26170.606 L24350.63,26170.606 Z" style="stroke-width:var(--lw-1);" />
        
        <path d="M24250.63,26240.606 L24350.63,26240.606 L24350.63,26170.606 L24250.63,26170.606 Z" style="stroke-width:var(--lw-1);" />
        
        <path d="M24250.63,27170.606 L24350.63,27170.606 L24350.63,27100.606 L24250.63,27100.606 Z" style="stroke-width:var(--lw-1);" />
        
        <path d="M22470.63,22470.606 L24000.63,22470.606 L24000.63,24000.606" style="stroke-width:var(--lw-1);" />
        
        <path d="M24350.63,22120.606 L24250.63,22120.606 L24250.63,24000.606 L24350.63,24000.606 Z" style="stroke-width:var(--lw-1);" />
        
        <path d="M24250.63,23930.606 L24350.63,23930.606 L24350.63,24000.606 L24250.63,24000.606 Z" style="stroke-width:var(--lw-1);" />
        
        <path d="M24250.63,22290.606 L24350.63,22290.606 L24350.63,22220.606 L24250.63,22220.606 Z" style="stroke-width:var(--lw-1);" />
        
        <path d="M24350.63,22120.606 L24350.63,22220.606 L22470.63,22220.606 L22470.63,22120.606 Z" style="stroke-width:var(--lw-1);" />
        
        <path d="M22540.63,22220.606 L22540.63,22120.606 L22470.63,22120.606 L22470.63,22220.606 Z" style="stroke-width:var(--lw-1);" />
        
        <path d="M24180.63,22220.606 L24180.63,22120.606 L24250.63,22120.606 L24250.63,22220.606 Z" style="stroke-width:var(--lw-1);" />
        
        <path d="M24470.63,24000.606 L24470.63,22000.606 L22470.63,22000.606" style="stroke-width:var(--lw-5);" />
        
        <path d="M21420.63,22000.606 L19920.63,22000.606" style="stroke-width:var(--lw-5);" />
        
        <path d="M21420.63,22470.606 L19920.63,22470.606" style="stroke-width:var(--lw-1);" />
        
        <path d="M21420.63,22120.606 L21420.63,22220.606 L19920.63,22220.606 L19920.63,22120.606 Z" style="stroke-width:var(--lw-1);" />
        
        <path d="M20990.63,22220.606 L20990.63,22120.606 L20920.63,22120.606 L20920.63,22220.606 Z" style="stroke-width:var(--lw-1);" />
        
        <path d="M21350.63,22220.606 L21350.63,22120.606 L21420.63,22120.606 L21420.63,22220.606 Z" style="stroke-width:var(--lw-1);" />
        
        <path d="M19990.63,22220.606 L19990.63,22120.606 L19920.63,22120.606 L19920.63,22220.606 Z" style="stroke-width:var(--lw-1);" />
        
        <path d="M20920.63,22220.606 L20920.63,22120.606 L20850.63,22120.606 L20850.63,22220.606 Z" style="stroke-width:var(--lw-1);" />
        
        <path d="M13900.63,24820.606 L13900.63,24920.606 L15780.63,24920.606 L15780.63,24820.606 Z" style="stroke-width:var(--lw-1);" />
        
        <path d="M15710.63,24920.606 L15710.63,24820.606 L15780.63,24820.606 L15780.63,24920.606 Z" style="stroke-width:var(--lw-1);" />
        
        <path d="M14070.63,24920.606 L14070.63,24820.606 L14000.63,24820.606 L14000.63,24920.606 Z" style="stroke-width:var(--lw-1);" />
        
        <path d="M13900.63,24820.606 L14000.63,24820.606 L14000.63,26700.606 L13900.63,26700.606 Z" style="stroke-width:var(--lw-1);" />
        
        <path d="M14000.63,26630.606 L13900.63,26630.606 L13900.63,26700.606 L14000.63,26700.606 Z" style="stroke-width:var(--lw-1);" />
        
        <path d="M14000.63,24990.606 L13900.63,24990.606 L13900.63,24920.606 L14000.63,24920.606 Z" style="stroke-width:var(--lw-1);" />
        
        <path d="M19920.63,30870.606 L21420.63,30870.606" style="stroke-width:var(--lw-1);" />
        
        <path d="M19920.63,31120.606 L19920.63,31220.606 L19970.63,31220.606 L19970.63,31120.606 Z" style="stroke-width:var(--lw-1);" />
        
        <path d="M20870.63,31120.606 L20870.63,31220.606 L20920.63,31220.606 L20920.63,31120.606 Z" style="stroke-width:var(--lw-1);" />
        
        <path d="M19970.63,31220.606 L19970.63,32120.606" style="stroke-width:var(--lw-1);" />
        
        <path d="M20870.63,31220.6039 A900,900 0 0,1 19970.63,32120.606" style="stroke-width:var(--lw-1);" />
        
        <path d="M21420.63,31220.606 L21420.63,31120.606 L20920.63,31120.606 L20920.63,31220.606 Z" style="stroke-width:var(--lw-1);" />
        
        <path d="M20990.63,31120.606 L20990.63,31220.606 L20920.63,31220.606 L20920.63,31120.606 Z" style="stroke-width:var(--lw-1);" />
        
        <path d="M21350.63,31120.606 L21350.63,31220.606 L21420.63,31220.606 L21420.63,31120.606 Z" style="stroke-width:var(--lw-1);" />
        
        <path d="M18330.63,24920.606 L18330.63,24820.606 L18280.63,24820.606 L18280.63,24920.606 Z" style="stroke-width:var(--lw-1);" />
        
        <path d="M17380.63,24920.606 L17380.63,24820.606 L17330.63,24820.606 L17330.63,24920.606 Z" style="stroke-width:var(--lw-1);" />
        
        <path d="M18280.63,24820.606 L18280.63,23920.606" style="stroke-width:var(--lw-1);" />
        
        <path d="M17380.63,24820.6081 A900,900 0 0,1 18280.63,23920.606" style="stroke-width:var(--lw-1);" />
        
        <path d="M16830.63,24820.606 L16830.63,24920.606 L17330.63,24920.606 L17330.63,24820.606 Z" style="stroke-width:var(--lw-1);" />
        
        <path d="M17260.63,24920.606 L17260.63,24820.606 L17330.63,24820.606 L17330.63,24920.606 Z" style="stroke-width:var(--lw-1);" />
        
        <path d="M16900.63,24920.606 L16900.63,24820.606 L16830.63,24820.606 L16830.63,24920.606 Z" style="stroke-width:var(--lw-1);" />
        
        <path d="M15250.63,26295.606 L14250.63,26295.606" style="stroke-width:var(--lw-1);" />
        
        <path d="M15250.63,26045.606 L14250.63,26045.606" style="stroke-width:var(--lw-1);" />
        
        <path d="M17130.63,29420.606 L17250.63,29420.606" style="stroke-width:var(--lw-5);" />
        
        <path d="M17130.63,28620.606 L17250.63,28620.606" style="stroke-width:var(--lw-5);" />
        
        <path d="M18400.63,29520.606 L18400.63,27290.606" style="stroke-width:var(--lw-3);" />
        
        <path d="M18400.63,29520.606 L19000.63,27290.606" style="stroke-width:var(--lw-3);" />
        
        <path d="M19000.63,29520.606 L18400.63,27290.606" style="stroke-width:var(--lw-3);" />
        
        <path d="M14840.63,29640.606 L14840.63,31740.606 L16640.63,31740.606 L16640.63,29640.606 Z" style="stroke-width:var(--lw-3);" />
        
        <path d="M14250.63,30040.606 L14250.63,29640.606 L17230.63,29640.606 L17230.63,30040.606 Z" style="stroke-width:var(--lw-3);" />
        
        <path d="M18400.63,32870.606 L18400.63,29640.606" style="stroke-width:var(--lw-3);" />
        
        <path d="M18400.63,32190.606 L18100.63,32190.606 L18100.63,31740.606 L18400.63,31740.606" style="stroke-width:var(--lw-3);" />
        
        <path d="M17130.63,29420.606 L17230.63,29420.606 L17230.63,29370.606 L17130.63,29370.606 Z" style="stroke-width:var(--lw-1);" />
        
        <path d="M17130.63,28670.606 L17230.63,28670.606 L17230.63,28620.606 L17130.63,28620.606 Z" style="stroke-width:var(--lw-1);" />
        
        <path d="M17130.63,29370.606 L16430.63,29370.606" style="stroke-width:var(--lw-1);" />
        
        <path d="M16430.63,29370.606 A700,700 0 0,1 17130.6316,28670.606" style="stroke-width:var(--lw-1);" />
        
        <path d="M17430.63,27290.606 L17430.63,27190.606 L17480.63,27190.606 L17480.63,27290.606 Z" style="stroke-width:var(--lw-1);" />
        
        <path d="M18280.63,27290.606 L18280.63,27190.606 L18330.63,27190.606 L18330.63,27290.606 Z" style="stroke-width:var(--lw-1);" />
        
        <path d="M17480.63,27290.606 L17480.63,28090.606" style="stroke-width:var(--lw-1);" />
        
        <path d="M18280.63,27290.6041 A800,800 0 0,1 17480.63,28090.606" style="stroke-width:var(--lw-1);" />
        
        <path d="M19850.63,30870.606 L19850.63,27670.606" style="stroke-width:var(--lw-3);" />
        
        <path d="M19250.63,30870.606 L19850.63,27670.606" style="stroke-width:var(--lw-3);" />
        
        <path d="M19250.63,27670.606 L19850.63,30870.606" style="stroke-width:var(--lw-3);" />
        
        <path d="M19920.63,27670.606 L19920.63,27570.606 L19970.63,27570.606 L19970.63,27670.606 Z" style="stroke-width:var(--lw-1);" />
        
        <path d="M20770.63,27670.606 L20770.63,27570.606 L20820.63,27570.606 L20820.63,27670.606 Z" style="stroke-width:var(--lw-1);" />
        
        <path d="M19970.63,27670.606 L19970.63,28470.606" style="stroke-width:var(--lw-1);" />
        
        <path d="M20770.63,27670.6041 A800,800 0 0,1 19970.63,28470.606" style="stroke-width:var(--lw-1);" />
        
        <path d="M21120.63,26630.606 L21020.63,26630.606 L21020.63,26680.606 L21120.63,26680.606 Z" style="stroke-width:var(--lw-1);" />
        
        <path d="M21120.63,27380.606 L21020.63,27380.606 L21020.63,27430.606 L21120.63,27430.606 Z" style="stroke-width:var(--lw-1);" />
        
        <path d="M19850.63,25550.606 L19850.63,22470.606" style="stroke-width:var(--lw-3);" />
        
        <path d="M19920.63,25550.606 L19920.63,25650.606 L19970.63,25650.606 L19970.63,25550.606 Z" style="stroke-width:var(--lw-1);" />
        
        <path d="M20770.63,25550.606 L20770.63,25650.606 L20820.63,25650.606 L20820.63,25550.606 Z" style="stroke-width:var(--lw-1);" />
        
        <path d="M19970.63,25550.606 L19970.63,24750.606" style="stroke-width:var(--lw-1);" />
        
        <path d="M19970.63,24750.606 A800,800 0 0,1 20770.63,25550.6078" style="stroke-width:var(--lw-1);" />
        
        <path d="M19850.63,24010.606 L19250.63,24010.606" style="stroke-width:var(--lw-3);" />
        
        <path d="M19850.63,24010.606 L19250.63,25550.606" style="stroke-width:var(--lw-3);" />
        
        <path d="M19850.63,25550.606 L19250.63,24010.606" style="stroke-width:var(--lw-3);" />
        
        <path d="M19850.63,23015.606 L20150.63,23015.606 L20150.63,23465.606 L19850.63,23465.606" style="stroke-width:var(--lw-3);" />
        
        <path d="M23497.1705,23450.606 L22297.1705,23450.606 L22297.1705,25550.606 L23497.1705,25550.606 Z" style="stroke-width:var(--lw-3);" />
        
        <path d="M21020.63,25550.606 L21020.63,25150.606 L24000.63,25150.606 L24000.63,25550.606 Z" style="stroke-width:var(--lw-3);" />
        
        <path d="M7150.63,26170.606 L7270.63,26170.606" style="stroke-width:var(--lw-5);" />
        
        <path d="M9525.63,29100.9036 L9525.63,29900.9036 L7725.63,29900.9036 L7725.63,29100.9036 Z" style="stroke-width:var(--lw-3);" />
        
        <path d="M8425.63,30350.9036 L8425.63,30000.9036 L8825.63,30000.9036 L8825.63,30350.9036 Z" style="stroke-width:var(--lw-3);" />
        
        <path d="M8975.63,30350.9036 L8975.63,30000.9036 L9375.63,30000.9036 L9375.63,30350.9036 Z" style="stroke-width:var(--lw-3);" />
        
        <path d="M8275.63,30350.9036 L8275.63,30000.9036 L7875.63,30000.9036 L7875.63,30350.9036 Z" style="stroke-width:var(--lw-3);" />
        
        <path d="M8425.63,28650.9036 L8425.63,29000.9036 L8825.63,29000.9036 L8825.63,28650.9036 Z" style="stroke-width:var(--lw-3);" />
        
        <path d="M8975.63,28650.9036 L8975.63,29000.9036 L9375.63,29000.9036 L9375.63,28650.9036 Z" style="stroke-width:var(--lw-3);" />
        
        <path d="M8275.63,28650.9036 L8275.63,29000.9036 L7875.63,29000.9036 L7875.63,28650.9036 Z" style="stroke-width:var(--lw-3);" />
        
        <path d="M8540.63,23600.606 L8540.63,25400.606 L8840.63,25400.606 L8840.63,23600.606 Z" style="stroke-width:var(--lw-3);" />
        
        <path d="M6450.63,25200.606 L6450.63,24400.606 L7250.63,24400.606 L7250.63,25200.606 Z" style="stroke-width:var(--lw-3);" />
        
        <circle cx="6550.63" cy="22770.606" r="200" style="stroke-width:var(--lw-3);" />
        
        <path d="M6250.63,22470.606 L6250.63,23670.606 L6850.63,23670.606 L6850.63,22470.606 Z" style="stroke-width:var(--lw-3);" />
        
        <circle cx="6550.63" cy="23370.606" r="200" style="stroke-width:var(--lw-3);" />
        
        <circle cx="8757.5782" cy="25724.7404" r="100" style="stroke-width:var(--lw-3);" />
        
        <circle cx="8757.5782" cy="25974.7404" r="75" style="stroke-width:var(--lw-3);" />
        
        <circle cx="8507.5782" cy="25974.7404" r="100" style="stroke-width:var(--lw-3);" />
        
        <circle cx="8507.5782" cy="25724.7404" r="75" style="stroke-width:var(--lw-3);" />
        
        <path d="M8775.63,27281.3272 A100,100 0 0 1 8875.63,27381.3272 L8875.63,27531.3272 A100,100 0 0 1 8775.63,27631.3272 L8475.63,27631.3272 A100,100 0 0 1 8375.63,27531.3272 L8375.63,27381.3272 A100,100 0 0 1 8475.63,27281.3272 Z" style="stroke-width:var(--lw-3);" />
        
        <path d="M2050.63,28920.606 L2050.63,28520.606 L4650.63,28520.606 L4650.63,28920.606 Z" style="stroke-width:var(--lw-3);" />
        
        <path d="M2500.63,28695.606 L2500.63,28620.606 L4200.63,28620.606 L4200.63,28695.606 Z" style="stroke-width:var(--lw-3);" />
        
        <path d="M4650.63,27170.606 L4250.63,27170.606 L4250.63,28520.606 L4650.63,28520.606 Z" style="stroke-width:var(--lw-3);" />
        
        <path d="M5350.63,24920.606 L5350.63,22470.606" style="stroke-width:var(--lw-3);" />
        
        <path d="M5350.63,24920.606 L6000.63,22470.606" style="stroke-width:var(--lw-3);" />
        
        <path d="M5350.63,22470.606 L6000.63,24920.606" style="stroke-width:var(--lw-3);" />
        
        <path d="M3760.63,24860.606 L3760.63,23500.606 L3310.63,23500.606 L3310.63,24860.606 Z" style="stroke-width:var(--lw-3);" />
        
        <path d="M5330.63,22220.606 L5330.63,22120.606 L5280.63,22120.606 L5280.63,22220.606 Z" style="stroke-width:var(--lw-1);" />
        
        <path d="M4380.63,22220.606 L4380.63,22120.606 L4330.63,22120.606 L4330.63,22220.606 Z" style="stroke-width:var(--lw-1);" />
        
        <path d="M5280.63,22120.606 L5280.63,21220.606" style="stroke-width:var(--lw-1);" />
        
        <path d="M4380.63,22120.6081 A900,900 0 0,1 5280.63,21220.606" style="stroke-width:var(--lw-1);" />
        
        <path d="M3930.63,28400.606 L3930.63,27290.606" style="stroke-width:var(--lw-3);" />
        
        <path d="M3633.13,28028.106 L3930.63,28028.106 L3930.63,27663.106 L3633.13,27663.106 A182.5,182.5 0 0 0 3633.13,28028.106" style="stroke-width:var(--lw-3);" />
        
        <path d="M2150.63,27290.606 L2150.63,27800.606 L2270.63,27800.606 L2270.63,27290.606" style="stroke-width:var(--lw-5);" />
        
        <path d="M2270.63,27800.606 L2270.63,28400.606" style="stroke-width:var(--lw-3);" />
        
        <path d="M2270.63,27800.606 L2650.63,27800.606 L2650.63,27290.606 L2270.63,27290.606 Z" style="stroke-width:var(--lw-3);" />
        
        <path d="M2700.63,27170.606 L3500.63,27170.606" style="stroke-width:var(--lw-1);" />
        
        <path d="M2700.63,27170.606 L2700.63,27270.606 L2750.63,27270.606 L2750.63,27170.606 Z" style="stroke-width:var(--lw-1);" />
        
        <path d="M3450.63,27170.606 L3450.63,27270.606 L3500.63,27270.606 L3500.63,27170.606 Z" style="stroke-width:var(--lw-1);" />
        
        <path d="M2750.63,27170.606 L2750.63,26470.606" style="stroke-width:var(--lw-1);" />
        
        <path d="M2750.63,26470.606 A700,700 0 0,1 3450.63,27170.6076" style="stroke-width:var(--lw-1);" />
        
        <path d="M2596.9352,27445.606 A75,75 0 0 0 2521.9352,27370.606 L2421.9352,27370.606 A75,75 0 0 0 2346.9352,27445.606 L2346.9352,27645.606 A75,75 0 0 0 2421.9352,27720.606 L2521.9352,27720.606 A75,75 0 0 0 2596.9352,27645.606 Z" style="stroke-width:var(--lw-3);" />
        
        <path d="M14913.13,27788.106 L14913.13,27490.606 L14548.13,27490.606 L14548.13,27788.106 A182.5,182.5 0 0 0 14913.13,27788.106" style="stroke-width:var(--lw-3);" />
        
        <path d="M14250.63,27490.606 L15210.63,27490.606" style="stroke-width:var(--lw-3);" />
        
        <path d="M15330.63,28090.606 L17130.63,28090.606" style="stroke-width:var(--lw-3);" />
        
        <path d="M14250.63,29520.606 L16130.63,29520.606 L16130.63,29070.606 L14250.63,29070.606 Z" style="stroke-width:var(--lw-3);" />
        
        <path d="M15015.63,29120.606 A75,75 0 0 0 14940.63,29195.606 L14940.63,29395.606 A75,75 0 0 0 15015.63,29470.606 L15365.63,29470.606 A75,75 0 0 0 15440.63,29395.606 L15440.63,29195.606 A75,75 0 0 0 15365.63,29120.606 Z" style="stroke-width:var(--lw-3);" />
        
        <path d="M21120.63,26470.606 L22320.63,26470.606 L22320.63,25670.606 L21120.63,25670.606 Z" style="stroke-width:var(--lw-3);" />
        
        <path d="M23003.13,26168.106 L23003.13,25870.606 L22638.13,25870.606 L22638.13,26168.106 A182.5,182.5 0 0 0 23003.13,26168.106" style="stroke-width:var(--lw-3);" />
        
        <path d="M22320.63,25870.606 L24000.63,25870.606" style="stroke-width:var(--lw-3);" />
        
        <path d="M21120.63,27380.606 L21820.63,27380.606" style="stroke-width:var(--lw-1);" />
        
        <path d="M21120.6284,26680.606 A700,700 0 0,1 21820.63,27380.606" style="stroke-width:var(--lw-1);" />
        
        <path d="M8420.63,33640.606 L8420.63,32740.606 L10720.63,32740.606 L10720.63,33640.606 Z" style="stroke-width:var(--lw-3);" />
        
        <path d="M9495.63,32290.606 L9495.63,32640.606 L9095.63,32640.606 L9095.63,32290.606 Z" style="stroke-width:var(--lw-3);" />
        
        <path d="M8945.63,32290.606 L8945.63,32640.606 L8545.63,32640.606 L8545.63,32290.606 Z" style="stroke-width:var(--lw-3);" />
        
        <path d="M9645.63,32290.606 L9645.63,32640.606 L10045.63,32640.606 L10045.63,32290.606 Z" style="stroke-width:var(--lw-3);" />
        
        <path d="M10195.63,32290.606 L10195.63,32640.606 L10595.63,32640.606 L10595.63,32290.606 Z" style="stroke-width:var(--lw-3);" />
        
        <path d="M9495.63,34090.606 L9495.63,33740.606 L9095.63,33740.606 L9095.63,34090.606 Z" style="stroke-width:var(--lw-3);" />
        
        <path d="M8945.63,34090.606 L8945.63,33740.606 L8545.63,33740.606 L8545.63,34090.606 Z" style="stroke-width:var(--lw-3);" />
        
        <path d="M9645.63,34090.606 L9645.63,33740.606 L10045.63,33740.606 L10045.63,34090.606 Z" style="stroke-width:var(--lw-3);" />
        
        <path d="M10195.63,34090.606 L10195.63,33740.606 L10595.63,33740.606 L10595.63,34090.606 Z" style="stroke-width:var(--lw-3);" />
        
        <path d="M24000.63,28570.606 L24000.63,27670.606 L21420.63,27670.606 L21420.63,28570.606 Z" style="stroke-width:var(--lw-3);" />
        
        <path d="M21420.63,27920.606 L23750.63,27920.606" style="stroke-width:var(--lw-3);" />
        
        <path d="M23750.63,28570.606 L23750.63,27920.606" style="stroke-width:var(--lw-3);" />
        
        <path d="M22980.63,28570.606 L22980.63,27920.606" style="stroke-width:var(--lw-3);" />
        
        <path d="M22210.63,28570.606 L22210.63,27920.606" style="stroke-width:var(--lw-3);" />
        
        <path d="M21420.63,30870.606 L21421.1945,30270.6063 L24001.1956,30270.6063 L24000.6311,30870.606 Z" style="stroke-width:var(--lw-3);" />
        
        <path d="M23469.9613,30271.6532 L23470.2435,29971.6533 L23020.2437,29971.23 L23019.9615,30271.2298" style="stroke-width:var(--lw-3);" />
        
        <path d="M22320.63,27550.606 L24000.63,27550.606 L24000.63,27170.606 L22320.63,27170.606 Z" style="stroke-width:var(--lw-3);" />
        
        <path d="M23052.7718,27232.3845 A75,75 0 0 0 22977.7718,27307.3845 L22977.7718,27407.3845 A75,75 0 0 0 23052.7718,27482.3845 L23252.7718,27482.3845 A75,75 0 0 0 23327.7718,27407.3845 L23327.7718,27307.3845 A75,75 0 0 0 23252.7718,27232.3845 Z" style="stroke-width:var(--lw-3);" />
        
        <path d="M9500.63,23600.606 L10100.63,23600.606 L10100.63,24800.606 L9500.63,24800.606 Z" style="stroke-width:var(--lw-3);" />
        
        <path d="M10550.63,23725.606 L10200.63,23725.606 L10200.63,24125.606 L10550.63,24125.606 Z" style="stroke-width:var(--lw-3);" />
        
        <path d="M10550.63,24275.606 L10200.63,24275.606 L10200.63,24675.606 L10550.63,24675.606 Z" style="stroke-width:var(--lw-3);" />
        
        <path d="M7150.63,25520.606 L6250.63,25520.606" style="stroke-width:var(--lw-5);" />
        
        <path d="M7150.63,25400.606 L6250.63,25400.606" style="stroke-width:var(--lw-5);" />
        
        <path d="M4725.63,31433.9181 L4725.63,32433.9181 L1975.63,32433.9181 L1975.63,31433.9181 Z" style="stroke-width:var(--lw-3);" />
        
        <path d="M2225.63,32183.9181 L4475.63,32183.9181" style="stroke-width:var(--lw-3);" />
        
        <path d="M3725.63,31433.9181 L3725.63,32183.9181" style="stroke-width:var(--lw-3);" />
        
        <path d="M2975.63,31433.9181 L2975.63,32183.9181" style="stroke-width:var(--lw-3);" />
        
        <path d="M2225.63,31433.9181 L2225.63,32183.9181" style="stroke-width:var(--lw-3);" />
        
        <path d="M4475.63,31433.9181 L4475.63,32183.9181" style="stroke-width:var(--lw-3);" />
        
        <path d="M6000.63,30370.606 L5600.63,30370.606 L5600.63,32870.606 L6000.63,32870.606 Z" style="stroke-width:var(--lw-3);" />
        
        <path d="M6000.63,27170.606 L5600.63,27170.606 L5600.63,28920.606 L6000.63,28920.606 Z" style="stroke-width:var(--lw-3);" />
        
        <path d="M6000.63,28520.606 L6000.63,28920.606" style="stroke-width:var(--lw-5);" />
        
        <path d="M6250.63,28920.606 L6250.63,28520.606" style="stroke-width:var(--lw-5);" />
        
        <path d="M6000.63,28920.606 L6250.63,28920.606" style="stroke-width:var(--lw-5);" />
        
        <path d="M2600.63,30933.976 L4100.63,30933.976 L4100.63,30233.976 L2600.63,30233.976 Z" style="stroke-width:var(--lw-3);" />
        
        <path d="M2300.63,30958.976 L1850.63,30958.976 A250,250 0 0 1 1600.63,30708.976 L1600.63,30458.976 A250,250 0 0 1 1850.63,30208.976 L2300.63,30208.976 Z" style="stroke-width:var(--lw-3);" />
        
        <path d="M4400.63,30958.976 L4850.63,30958.976 A250,250 0 0 0 5100.63,30708.976 L5100.63,30458.976 A250,250 0 0 0 4850.63,30208.976 L4400.63,30208.976 Z" style="stroke-width:var(--lw-3);" />
        
        <circle cx="1700.63" cy="27390.606" r="25" style="stroke-width:var(--lw-3);" />
        
        <path d="M6000.63,25170.606 L5600.63,25170.606 L5600.63,26170.606 L6000.63,26170.606 Z" style="stroke-width:var(--lw-3);" />
        
        <path d="M6250.63,26170.606 L7150.63,26170.606" style="stroke-width:var(--lw-3);" />
        
        <path d="M8540.63,22590.606 L8420.63,22590.606" style="stroke-width:var(--lw-5);" />
        
        <path d="M8540.63,23490.606 L8420.63,23490.606" style="stroke-width:var(--lw-5);" />
        
        <path d="M8540.63,22590.606 L8440.63,22590.606 L8440.63,22640.606 L8540.63,22640.606 Z" style="stroke-width:var(--lw-1);" />
        
        <path d="M8540.63,23440.606 L8440.63,23440.606 L8440.63,23490.606 L8540.63,23490.606 Z" style="stroke-width:var(--lw-1);" />
        
        <path d="M8540.63,22640.606 L9340.63,22640.606" style="stroke-width:var(--lw-1);" />
        
        <path d="M9340.63,22640.606 A800,800 0 0,1 8540.6282,23440.606" style="stroke-width:var(--lw-1);" />
        
        <path d="M8840.63,23600.606 L8540.63,25400.606" style="stroke-width:var(--lw-3);" />
        
        <path d="M8840.63,25400.606 L8540.63,23600.606" style="stroke-width:var(--lw-3);" />
        
        <path d="M15480.63,27990.606 L16980.63,27990.606 A50,50 0 0 0 17030.63,27940.606 L17030.63,27440.606 A50,50 0 0 0 16980.63,27390.606 L15480.63,27390.606 A50,50 0 0 0 15430.63,27440.606 L15430.63,27940.606 A50,50 0 0 0 15480.63,27990.606" style="stroke-width:var(--lw-3);" />
        
        <circle cx="15542.06" cy="27690.606" r="25" style="stroke-width:var(--lw-3);" />
        
        <circle cx="21220.63" cy="26070.606" r="25" style="stroke-width:var(--lw-3);" />
        
        <path d="M21446.5497,30695.606 L21446.5497,30770.606 L22446.5497,30770.606 L22446.5497,30695.606 Z" style="stroke-width:var(--lw-3);" />
        
        <path d="M15806.5497,32695.606 L15806.5497,32770.606 L16806.5497,32770.606 L16806.5497,32695.606 Z" style="stroke-width:var(--lw-3);" />
        
        <path d="M22444.7103,22645.606 L22444.7103,22570.606 L21444.7103,22570.606 L21444.7103,22645.606 Z" style="stroke-width:var(--lw-3);" />
        
        <path d="M15880.63,24700.606 L15880.63,20100.606 L19820.63,20100.606 L19820.63,22000.606" style="stroke-width:var(--lw-1);" />
        
        <path d="M18430.63,33340.606 L18430.63,35240.606 L24370.63,35240.606 L24370.63,31340.606" style="stroke-width:var(--lw-1);" />
        
        <path d="M2500.63,25670.606 L2500.63,25170.606" style="stroke-width:var(--lw-1);" />
        
        <path d="M2750.63,26170.606 L2750.63,25170.606" style="stroke-width:var(--lw-1);" />
        
        <path d="M3000.63,26170.606 L3000.63,25170.606" style="stroke-width:var(--lw-1);" />
        
        <path d="M3250.63,26170.606 L3250.63,25170.606" style="stroke-width:var(--lw-1);" />
        
        <path d="M3500.63,26170.606 L3500.63,25170.606" style="stroke-width:var(--lw-1);" />
        
        <path d="M3750.63,26170.606 L3750.63,25170.606" style="stroke-width:var(--lw-1);" />
        
        <path d="M4000.63,26170.606 L4000.63,25170.606" style="stroke-width:var(--lw-1);" />
        
        <path d="M4250.63,26170.606 L2750.63,26170.606" style="stroke-width:var(--lw-1);" />
        
        <path d="M4250.63,26170.606 L4250.63,25170.606" style="stroke-width:var(--lw-1);" />
        
        <path d="M2750.63,25545.606 L2500.63,25670.606 L2750.63,25795.606" style="stroke-width:var(--lw-4);" />
        
        <path d="M4250.63,25670.606 L2500.63,25670.606" style="stroke-width:var(--lw-4);" />
        
        <path d="M2250.63,25170.606 L2750.63,26170.606" style="stroke-width:var(--lw-1);" />
        
        <path d="M17250.63,26670.606 L14750.63,26670.606 L14750.63,25670.606 L17250.63,25670.606" style="stroke-width:var(--lw-4);" />
        
        <path d="M17000.63,26795.606 L17250.63,26670.606 L17000.63,26545.606" style="stroke-width:var(--lw-4);" />
        
        <text dx="0" dy="200" fill="var(--text-color)" font-size="var(--dxf-big-font)" line-height="1.1" text-anchor="middle" transform="translate(17443.198,30929.3714) translate(0,100) scale(1,-1)" x="0" y="0">15.3</text>

        <text dx="0" dy="200" fill="var(--text-color)" font-size="var(--dxf-big-font)" line-height="1.1" text-anchor="middle" transform="translate(15659.5439,28768.9956) translate(0,100) scale(1,-1)" x="0" y="0">6.4</text>

        <text dx="0" dy="200" fill="var(--text-color)" font-size="var(--dxf-big-font)" line-height="1.1" text-anchor="middle" transform="translate(17758.8195,28768.9956) translate(0,100) scale(1,-1)" x="0" y="0">3.9</text>

        <text dx="0" dy="200" fill="var(--text-color)" font-size="var(--dxf-big-font)" line-height="1.1" text-anchor="middle" transform="translate(20676.6177,29071.0179) translate(0,100) scale(1,-1)" x="0" y="0">15.2</text>

        <text dx="0" dy="200" fill="var(--text-color)" font-size="var(--dxf-big-font)" line-height="1.1" text-anchor="middle" transform="translate(18064.4408,26195.281) translate(0,100) scale(1,-1)" x="0" y="0">3.5</text>

        <text dx="0" dy="200" fill="var(--text-color)" font-size="var(--dxf-big-font)" line-height="1.1" text-anchor="middle" transform="translate(20159.0889,26598.7262) translate(0,100) scale(1,-1)" x="0" y="0">3.3</text>
        
        <text dx="0" dy="200" fill="var(--text-color)" font-size="var(--dxf-big-font)" line-height="1.1" text-anchor="middle" transform="translate(22835.8111,26600.5458) translate(0,100) scale(1,-1)" x="0" y="0">5.4</text>
        
        <text dx="0" dy="200" fill="var(--text-color)" font-size="var(--dxf-big-font)" line-height="1.1" text-anchor="middle" transform="translate(20764.9446,24064.6972) translate(0,100) scale(1,-1)" x="0" y="0">14.6</text>
        
        <text dx="0" dy="200" fill="var(--text-color)" font-size="var(--dxf-big-font)" line-height="1.1" text-anchor="middle" transform="translate(3383.7673,29784.1901) translate(0,100) scale(1,-1)" x="0" y="0">20.7</text>
        
        <text dx="0" dy="200" fill="var(--text-color)" font-size="var(--dxf-big-font)" line-height="1.1" text-anchor="middle" transform="translate(4933.4072,26589.1404) translate(0,100) scale(1,-1)" x="0" y="0">11.9</text>
        
        <text dx="0" dy="200" fill="var(--text-color)" font-size="var(--dxf-big-font)" line-height="1.1" text-anchor="middle" transform="translate(3103.6733,27849.7417) translate(0,100) scale(1,-1)" x="0" y="0">3.2</text>
        
        <text dx="0" dy="200" fill="var(--text-color)" font-size="var(--dxf-big-font)" line-height="1.1" text-anchor="middle" transform="translate(8663.0086,26587.1974) translate(0,100) scale(1,-1)" x="0" y="0">24.7</text>
        
        <text dx="0" dy="200" fill="var(--text-color)" font-size="var(--dxf-big-font)" line-height="1.1" text-anchor="middle" transform="translate(9826.0355,23367.9182) translate(0,100) scale(1,-1)" x="0" y="0">7.9</text>
        
        <text dx="0" dy="200" fill="var(--text-color)" font-size="var(--dxf-big-font)" line-height="1.1" text-anchor="middle" transform="translate(7632.9595,23367.9182) translate(0,100) scale(1,-1)" x="0" y="0">6.4</text>
        
        <text dx="0" dy="200" fill="var(--text-color)" font-size="var(--dxf-big-font)" line-height="1.1" text-anchor="middle" transform="translate(4933.4072,23643.0442) translate(0,100) scale(1,-1)" x="0" y="0">6.7</text>
        <text dx="0" dy="200" fill="var(--text-color)" font-size="var(--dxf-big-font)" line-height="1.1" text-anchor="middle" transform="translate(12000,20200) translate(0,110) scale(1,-1)" x="0" y="0"> 3</text>
    </g>
</svg>